<svg width="1920" height="1080" viewBox="0 0 1920 1080" fill="none" xmlns="http://www.w3.org/2000/svg">
<g clip-path="url(#clip0)">
<path d="M216 618H320.178V463H419.747V618H522V463H614.5V618H712" stroke="#EFAD0A" stroke-width="16"/>
<path d="M712 618H816.178V463H915.747V618H1018V463H1110.5V618H1208" stroke="#EFAD0A" stroke-opacity="0.5" stroke-width="16"/>
<path d="M-280 618H-175.822V463H-76.2528V618H26V463H118.5V618H216" stroke="#EFAD0A" stroke-width="16"/>
<path d="M1208 618H1312.18V463H1411.75V618H1543.12V463H1577.23V618H1704" stroke="#EFAD0A" stroke-width="16"/>
<path d="M2200 618H2095.82V463H1996.25V618H1864.88V463H1830.77V618H1704" stroke="#EFAD0A" stroke-width="16"/>
<path fill-rule="evenodd" clip-rule="evenodd" d="M1086.2 637.416V455.393V454.584H1086.2C1085.76 385.704 1029.79 330 960.809 330C891.826 330 835.853 385.704 835.418 454.584H835.416V455.393V637.416H1086.2ZM1104 668.157V637.416H816V668.157H1104Z" fill="#DA5B4A"/>
<path d="M914.982 751V505.968M1006 750V505.5" stroke="black" stroke-width="16"/>
<path d="M903.984 455.161H932.563L948.441 505.968H903.984V455.161Z" fill="black"/>
<path d="M948.441 455.161H1016.71V505.968H962.664L948.441 455.161Z" fill="black"/>
<path opacity="0.75" fill-rule="evenodd" clip-rule="evenodd" d="M1086.2 637.416V455.393V454.584H1086.2C1085.76 385.704 1029.79 330 960.809 330C891.826 330 835.853 385.704 835.418 454.584H835.416V455.393V637.416H1086.2ZM1104 668.157V637.416H816V668.157H1104Z" fill="#DA5B4A"/>
<path d="M198.398 303.75H204.914V291.797C205.211 292.125 205.523 292.422 205.852 292.688C206.18 292.953 206.523 293.195 206.883 293.414C207.492 293.758 208.148 294.016 208.852 294.188C209.57 294.375 210.352 294.469 211.195 294.469C212.789 294.469 214.203 294.141 215.438 293.484C216.672 292.828 217.711 291.922 218.555 290.766C219.383 289.625 220.008 288.266 220.43 286.688C220.867 285.109 221.086 283.398 221.086 281.555V281.062C221.086 279.141 220.867 277.391 220.43 275.812C220.008 274.219 219.375 272.852 218.531 271.711C217.688 270.586 216.648 269.719 215.414 269.109C214.18 268.484 212.758 268.172 211.148 268.172C210.367 268.172 209.633 268.258 208.945 268.43C208.273 268.586 207.656 268.812 207.094 269.109C206.625 269.359 206.188 269.656 205.781 270C205.375 270.328 205 270.703 204.656 271.125L204.422 268.641H198.398V303.75ZM214.57 281.062V281.555C214.57 282.602 214.477 283.594 214.289 284.531C214.102 285.453 213.805 286.266 213.398 286.969C212.992 287.672 212.461 288.227 211.805 288.633C211.164 289.039 210.383 289.242 209.461 289.242C208.883 289.242 208.359 289.188 207.891 289.078C207.422 288.953 207.008 288.781 206.648 288.562C206.273 288.328 205.938 288.047 205.641 287.719C205.359 287.391 205.117 287.023 204.914 286.617V276.023C205.133 275.586 205.391 275.203 205.688 274.875C206 274.547 206.359 274.273 206.766 274.055C207.125 273.867 207.523 273.727 207.961 273.633C208.398 273.523 208.883 273.469 209.414 273.469C210.336 273.469 211.117 273.664 211.758 274.055C212.414 274.445 212.953 274.977 213.375 275.648C213.781 276.336 214.078 277.148 214.266 278.086C214.469 279.008 214.57 280 214.57 281.062ZM229.488 294H235.207L237.902 280.453L238.417 277.875L238.957 280.453L241.746 294H247.464L252.011 268.641H246.035L244.16 283.594L243.832 286.055L243.386 283.641L240.644 268.641H236.285L233.542 283.711L233.097 286.125L232.792 283.711L230.894 268.641H224.941L229.488 294ZM260.976 268.641H255.374V294H261.304V275.016C261.382 274.812 261.468 274.625 261.562 274.453C261.655 274.281 261.765 274.133 261.89 274.008C262.062 273.836 262.257 273.703 262.476 273.609C262.694 273.516 262.944 273.469 263.226 273.469C263.476 273.469 263.71 273.508 263.929 273.586C264.147 273.648 264.343 273.766 264.515 273.938C264.671 274.109 264.796 274.352 264.89 274.664C264.983 274.977 265.03 275.375 265.03 275.859V294H270.772V275.297C270.772 275.109 270.772 274.961 270.772 274.852C270.772 274.742 270.772 274.672 270.772 274.641C270.851 274.469 270.944 274.32 271.054 274.195C271.163 274.055 271.288 273.93 271.429 273.82C271.601 273.711 271.78 273.625 271.968 273.562C272.171 273.5 272.397 273.469 272.647 273.469C272.882 273.469 273.108 273.508 273.327 273.586C273.562 273.648 273.765 273.766 273.937 273.938C274.108 274.125 274.241 274.375 274.335 274.688C274.444 275 274.499 275.398 274.499 275.883V294H280.429V275.906C280.429 274.5 280.288 273.312 280.007 272.344C279.741 271.359 279.366 270.555 278.882 269.93C278.382 269.32 277.796 268.875 277.124 268.594C276.468 268.312 275.757 268.172 274.991 268.172C274.382 268.172 273.819 268.25 273.304 268.406C272.788 268.562 272.327 268.781 271.921 269.062C271.593 269.281 271.288 269.547 271.007 269.859C270.741 270.156 270.499 270.492 270.28 270.867C270.14 270.477 269.968 270.133 269.765 269.836C269.577 269.523 269.351 269.258 269.085 269.039C268.741 268.742 268.335 268.523 267.866 268.383C267.397 268.242 266.866 268.172 266.272 268.172C265.054 268.172 264.015 268.492 263.155 269.133C262.312 269.758 261.647 270.617 261.163 271.711L260.976 268.641ZM292.815 290.227C292.815 291.43 293.221 292.438 294.034 293.25C294.846 294.062 295.948 294.469 297.338 294.469C298.713 294.469 299.807 294.07 300.62 293.273C301.448 292.461 301.862 291.445 301.862 290.227C301.862 289.008 301.456 287.984 300.643 287.156C299.846 286.328 298.745 285.914 297.338 285.914C295.917 285.914 294.807 286.336 294.01 287.18C293.213 288.008 292.815 289.023 292.815 290.227ZM314.857 281.133V281.625C314.857 283.469 315.084 285.18 315.537 286.758C315.99 288.32 316.647 289.672 317.506 290.812C318.35 291.953 319.381 292.852 320.6 293.508C321.834 294.148 323.225 294.469 324.772 294.469C326.193 294.469 327.443 294.195 328.522 293.648C329.6 293.102 330.537 292.336 331.334 291.352L331.662 294H337.545V258H331.006V270.914C330.225 270.039 329.326 269.367 328.311 268.898C327.311 268.414 326.147 268.172 324.818 268.172C323.24 268.172 321.834 268.484 320.6 269.109C319.381 269.734 318.342 270.617 317.482 271.758C316.623 272.898 315.967 274.266 315.514 275.859C315.076 277.453 314.857 279.211 314.857 281.133ZM321.373 281.625V281.133C321.373 280.07 321.467 279.078 321.654 278.156C321.842 277.219 322.139 276.398 322.545 275.695C322.951 275.008 323.475 274.469 324.115 274.078C324.772 273.672 325.561 273.469 326.482 273.469C327.592 273.469 328.514 273.711 329.248 274.195C329.982 274.664 330.568 275.328 331.006 276.188V286.453C330.568 287.297 329.975 287.961 329.225 288.445C328.49 288.93 327.561 289.172 326.436 289.172C325.514 289.172 324.732 288.977 324.092 288.586C323.451 288.195 322.928 287.656 322.522 286.969C322.115 286.297 321.818 285.508 321.631 284.602C321.459 283.68 321.373 282.688 321.373 281.625ZM361.392 294H367.298V268.641H360.759V286.43C360.556 286.836 360.314 287.203 360.033 287.531C359.752 287.859 359.431 288.141 359.072 288.375C358.65 288.641 358.158 288.844 357.595 288.984C357.048 289.125 356.431 289.195 355.744 289.195C354.978 289.195 354.33 289.102 353.798 288.914C353.267 288.727 352.837 288.414 352.509 287.977C352.181 287.555 351.939 286.992 351.783 286.289C351.642 285.586 351.572 284.719 351.572 283.688V268.641H345.056V283.641C345.056 285.562 345.267 287.211 345.689 288.586C346.127 289.945 346.736 291.062 347.517 291.938C348.298 292.828 349.236 293.477 350.33 293.883C351.423 294.289 352.627 294.492 353.939 294.492C355.377 294.492 356.697 294.133 357.9 293.414C359.119 292.695 360.158 291.703 361.017 290.438L361.392 294ZM386.107 262.43H379.591V268.641H373.802V273.445H379.591V284.977C379.591 286.648 379.81 288.086 380.247 289.289C380.685 290.477 381.31 291.453 382.122 292.219C382.919 293 383.88 293.578 385.005 293.953C386.146 294.312 387.411 294.492 388.802 294.492C389.521 294.492 390.247 294.453 390.982 294.375C391.732 294.312 392.45 294.219 393.138 294.094C393.825 293.969 394.474 293.812 395.083 293.625C395.693 293.422 396.224 293.188 396.677 292.922L396.044 288.445C395.747 288.523 395.388 288.602 394.966 288.68C394.56 288.758 394.122 288.828 393.653 288.891C393.169 288.969 392.661 289.031 392.13 289.078C391.614 289.125 391.107 289.148 390.607 289.148C389.919 289.148 389.294 289.07 388.732 288.914C388.185 288.758 387.716 288.492 387.325 288.117C386.935 287.758 386.63 287.273 386.411 286.664C386.208 286.039 386.107 285.266 386.107 284.344V273.445H395.575V268.641H386.107V262.43ZM407.469 304.242C408.782 304.242 409.915 304.023 410.868 303.586C411.837 303.148 412.657 302.609 413.329 301.969C414.001 301.328 414.555 300.633 414.993 299.883C415.446 299.133 415.813 298.438 416.094 297.797L428.962 268.641H421.766L415.977 283.547L415.016 286.078L414.313 283.5L408.501 268.641H401.376L412.11 292.922L410.61 295.711C410.423 296.055 410.258 296.32 410.118 296.508C409.993 296.695 409.79 296.977 409.508 297.352C409.227 297.727 408.883 298.07 408.477 298.383C408.087 298.711 407.633 298.875 407.118 298.875C406.868 298.875 406.532 298.859 406.11 298.828C405.704 298.812 405.368 298.805 405.102 298.805L404.305 303.773C404.868 303.93 405.376 304.047 405.829 304.125C406.298 304.203 406.844 304.242 407.469 304.242ZM437.551 280.125V280.641C437.551 282.859 437.715 284.938 438.043 286.875C438.387 288.812 438.848 290.602 439.426 292.242C440.004 293.898 440.676 295.406 441.442 296.766C442.223 298.125 443.043 299.32 443.902 300.352C444.762 301.398 445.645 302.289 446.551 303.023C447.473 303.758 448.363 304.32 449.223 304.711L450.488 301.195C449.879 300.727 449.262 300.141 448.637 299.438C448.012 298.734 447.418 297.906 446.856 296.953C446.324 296.078 445.824 295.055 445.356 293.883C444.902 292.711 444.504 291.438 444.16 290.062C443.91 289.078 443.676 287.758 443.457 286.102C443.254 284.445 443.152 282.641 443.152 280.688V280.078C443.152 278.094 443.262 276.258 443.481 274.57C443.699 272.883 443.988 271.344 444.348 269.953C444.754 268.516 445.223 267.188 445.754 265.969C446.301 264.75 446.887 263.695 447.512 262.805C447.996 262.117 448.488 261.508 448.988 260.977C449.488 260.445 449.988 259.992 450.488 259.617L449.223 256.055C448.363 256.445 447.473 257.008 446.551 257.742C445.645 258.461 444.762 259.344 443.902 260.391C443.043 261.438 442.223 262.641 441.442 264C440.676 265.359 440.004 266.859 439.426 268.5C438.848 270.156 438.387 271.961 438.043 273.914C437.715 275.852 437.551 277.922 437.551 280.125ZM462.406 277.195L467.609 278.484C467.859 278.234 468.125 278 468.406 277.781C468.687 277.547 469.008 277.344 469.367 277.172C469.726 277 470.14 276.859 470.609 276.75C471.078 276.641 471.633 276.586 472.273 276.586C473.226 276.586 474.054 276.734 474.758 277.031C475.461 277.328 476.047 277.75 476.515 278.297C476.984 278.844 477.328 279.5 477.547 280.266C477.781 281.016 477.898 281.844 477.898 282.75C477.898 283.672 477.804 284.531 477.617 285.328C477.445 286.125 477.172 286.812 476.797 287.391C476.406 287.969 475.898 288.422 475.273 288.75C474.664 289.078 473.922 289.242 473.047 289.242C471.625 289.242 470.453 288.836 469.531 288.023C468.625 287.211 468.093 286.062 467.937 284.578H461.515C461.562 286.156 461.914 287.562 462.57 288.797C463.242 290.016 464.109 291.047 465.172 291.891C466.234 292.734 467.445 293.375 468.804 293.812C470.179 294.25 471.601 294.469 473.07 294.469C475.008 294.469 476.687 294.164 478.109 293.555C479.531 292.945 480.711 292.117 481.648 291.07C482.586 290.023 483.281 288.812 483.734 287.438C484.187 286.062 484.414 284.609 484.414 283.078C484.414 281.281 484.179 279.672 483.711 278.25C483.242 276.828 482.57 275.625 481.695 274.641C480.804 273.656 479.711 272.906 478.414 272.391C477.133 271.859 475.672 271.594 474.031 271.594C472.875 271.594 471.851 271.742 470.961 272.039C470.07 272.336 469.383 272.625 468.898 272.906L469.718 265.406H483.289V259.875H464.351L462.406 277.195ZM507.347 294V259.875H506.995L492.136 265.242V270.914L500.761 267.82V294H507.347ZM543.007 294V288.773H528.03L534.452 281.977C535.561 280.836 536.569 279.75 537.475 278.719C538.382 277.672 539.163 276.648 539.819 275.648C540.46 274.648 540.952 273.641 541.296 272.625C541.655 271.594 541.835 270.516 541.835 269.391C541.835 267.906 541.6 266.555 541.132 265.336C540.663 264.102 539.983 263.047 539.092 262.172C538.186 261.297 537.061 260.617 535.717 260.133C534.389 259.648 532.858 259.406 531.124 259.406C529.311 259.406 527.655 259.703 526.155 260.297C524.671 260.875 523.405 261.672 522.358 262.688C521.296 263.703 520.475 264.891 519.897 266.25C519.319 267.594 519.03 269.023 519.03 270.539H525.569C525.569 269.617 525.686 268.797 525.921 268.078C526.155 267.359 526.499 266.758 526.952 266.273C527.389 265.805 527.936 265.453 528.592 265.219C529.264 264.969 530.038 264.844 530.913 264.844C531.585 264.844 532.194 264.953 532.741 265.172C533.303 265.391 533.788 265.703 534.194 266.109C534.585 266.531 534.889 267.039 535.108 267.633C535.327 268.227 535.436 268.906 535.436 269.672C535.436 270.188 535.35 270.719 535.178 271.266C535.022 271.812 534.764 272.398 534.405 273.023C534.03 273.664 533.546 274.367 532.952 275.133C532.358 275.898 531.632 276.75 530.772 277.688L519.733 289.547V294H543.007ZM567.346 280.641V280.125C567.346 277.984 567.174 275.961 566.83 274.055C566.487 272.133 566.018 270.344 565.424 268.688C564.83 267.031 564.135 265.523 563.338 264.164C562.557 262.789 561.721 261.562 560.83 260.484C559.94 259.422 559.026 258.516 558.088 257.766C557.151 257.016 556.237 256.445 555.346 256.055L554.104 259.547C554.573 259.906 555.041 260.344 555.51 260.859C555.994 261.359 556.463 261.93 556.916 262.57C557.588 263.539 558.221 264.688 558.815 266.016C559.424 267.344 559.94 268.844 560.362 270.516C560.69 271.859 560.948 273.328 561.135 274.922C561.338 276.516 561.44 278.234 561.44 280.078V280.688C561.44 282.578 561.338 284.336 561.135 285.961C560.948 287.586 560.69 289.07 560.362 290.414C559.971 291.883 559.518 293.211 559.002 294.398C558.502 295.586 557.948 296.648 557.338 297.586C556.823 298.383 556.291 299.078 555.744 299.672C555.198 300.281 554.651 300.789 554.104 301.195L555.346 304.711C556.237 304.32 557.151 303.75 558.088 303C559.026 302.25 559.94 301.336 560.83 300.258C561.721 299.195 562.557 297.977 563.338 296.602C564.135 295.242 564.83 293.734 565.424 292.078C566.018 290.422 566.487 288.641 566.83 286.734C567.174 284.812 567.346 282.781 567.346 280.641Z" fill="white"/>
<path d="M1386.26 773.43H1379.74V779.641H1373.95V784.445H1379.74V795.977C1379.74 797.648 1379.96 799.086 1380.4 800.289C1380.84 801.477 1381.46 802.453 1382.27 803.219C1383.07 804 1384.03 804.578 1385.16 804.953C1386.3 805.312 1387.56 805.492 1388.95 805.492C1389.67 805.492 1390.4 805.453 1391.13 805.375C1391.88 805.312 1392.6 805.219 1393.29 805.094C1393.98 804.969 1394.62 804.812 1395.23 804.625C1395.84 804.422 1396.38 804.188 1396.83 803.922L1396.2 799.445C1395.9 799.523 1395.54 799.602 1395.12 799.68C1394.71 799.758 1394.27 799.828 1393.8 799.891C1393.32 799.969 1392.81 800.031 1392.28 800.078C1391.77 800.125 1391.26 800.148 1390.76 800.148C1390.07 800.148 1389.45 800.07 1388.88 799.914C1388.34 799.758 1387.87 799.492 1387.48 799.117C1387.09 798.758 1386.78 798.273 1386.56 797.664C1386.36 797.039 1386.26 796.266 1386.26 795.344V784.445H1395.73V779.641H1386.26V773.43ZM1405.35 779.641V784.961H1412.57V799.703H1405.35V805H1426.02V799.703H1419.15V779.641H1405.35ZM1412.1 773.148C1412.1 773.648 1412.18 774.117 1412.35 774.555C1412.54 774.977 1412.8 775.336 1413.13 775.633C1413.46 775.945 1413.85 776.188 1414.3 776.359C1414.77 776.531 1415.28 776.617 1415.85 776.617C1417 776.617 1417.92 776.297 1418.59 775.656C1419.28 775 1419.62 774.164 1419.62 773.148C1419.62 772.133 1419.28 771.305 1418.59 770.664C1417.92 770.008 1417 769.68 1415.85 769.68C1415.28 769.68 1414.77 769.766 1414.3 769.938C1413.85 770.109 1413.46 770.344 1413.13 770.641C1412.8 770.953 1412.54 771.328 1412.35 771.766C1412.18 772.188 1412.1 772.648 1412.1 773.148ZM1436.98 779.641H1431.37V805H1437.3V786.016C1437.38 785.812 1437.47 785.625 1437.56 785.453C1437.66 785.281 1437.76 785.133 1437.89 785.008C1438.06 784.836 1438.26 784.703 1438.48 784.609C1438.69 784.516 1438.94 784.469 1439.23 784.469C1439.48 784.469 1439.71 784.508 1439.93 784.586C1440.15 784.648 1440.34 784.766 1440.51 784.938C1440.67 785.109 1440.8 785.352 1440.89 785.664C1440.98 785.977 1441.03 786.375 1441.03 786.859V805H1446.77V786.297C1446.77 786.109 1446.77 785.961 1446.77 785.852C1446.77 785.742 1446.77 785.672 1446.77 785.641C1446.85 785.469 1446.94 785.32 1447.05 785.195C1447.16 785.055 1447.29 784.93 1447.43 784.82C1447.6 784.711 1447.78 784.625 1447.97 784.562C1448.17 784.5 1448.4 784.469 1448.65 784.469C1448.88 784.469 1449.11 784.508 1449.33 784.586C1449.56 784.648 1449.76 784.766 1449.94 784.938C1450.11 785.125 1450.24 785.375 1450.33 785.688C1450.44 786 1450.5 786.398 1450.5 786.883V805H1456.43V786.906C1456.43 785.5 1456.29 784.312 1456.01 783.344C1455.74 782.359 1455.37 781.555 1454.88 780.93C1454.38 780.32 1453.8 779.875 1453.12 779.594C1452.47 779.312 1451.76 779.172 1450.99 779.172C1450.38 779.172 1449.82 779.25 1449.3 779.406C1448.79 779.562 1448.33 779.781 1447.92 780.062C1447.59 780.281 1447.29 780.547 1447.01 780.859C1446.74 781.156 1446.5 781.492 1446.28 781.867C1446.14 781.477 1445.97 781.133 1445.76 780.836C1445.58 780.523 1445.35 780.258 1445.08 780.039C1444.74 779.742 1444.33 779.523 1443.87 779.383C1443.4 779.242 1442.87 779.172 1442.27 779.172C1441.05 779.172 1440.01 779.492 1439.16 780.133C1438.31 780.758 1437.65 781.617 1437.16 782.711L1436.98 779.641ZM1474.53 805.469C1476.99 805.469 1479.11 804.992 1480.91 804.039C1482.71 803.086 1484.02 802.023 1484.85 800.852L1481.59 797.336C1480.84 798.305 1479.86 799.031 1478.66 799.516C1477.46 800 1476.21 800.242 1474.93 800.242C1474.03 800.242 1473.19 800.102 1472.42 799.82C1471.66 799.539 1470.98 799.141 1470.39 798.625C1469.81 798.125 1469.35 797.57 1469 796.961C1468.66 796.336 1468.38 795.516 1468.16 794.5V794.43H1485.36V791.664C1485.36 789.805 1485.1 788.109 1484.59 786.578C1484.07 785.031 1483.32 783.711 1482.34 782.617C1481.34 781.523 1480.12 780.68 1478.68 780.086C1477.26 779.477 1475.64 779.172 1473.81 779.172C1472.04 779.172 1470.41 779.492 1468.91 780.133C1467.41 780.773 1466.11 781.672 1465.02 782.828C1463.92 783.984 1463.07 785.367 1462.46 786.977C1461.85 788.57 1461.55 790.336 1461.55 792.273V793.211C1461.55 794.914 1461.85 796.516 1462.46 798.016C1463.09 799.5 1463.97 800.789 1465.11 801.883C1466.25 802.992 1467.62 803.867 1469.21 804.508C1470.81 805.148 1472.58 805.469 1474.53 805.469ZM1473.76 784.445C1474.59 784.445 1475.32 784.578 1475.94 784.844C1476.58 785.094 1477.12 785.438 1477.56 785.875C1477.99 786.328 1478.34 786.859 1478.59 787.469C1478.84 788.078 1478.96 788.727 1478.96 789.414V789.93H1468.28C1468.43 789.102 1468.67 788.352 1468.98 787.68C1469.29 787.008 1469.68 786.43 1470.15 785.945C1470.6 785.461 1471.14 785.094 1471.74 784.844C1472.35 784.578 1473.03 784.445 1473.76 784.445ZM1498.12 801.227C1498.12 802.43 1498.53 803.438 1499.34 804.25C1500.15 805.062 1501.26 805.469 1502.65 805.469C1504.02 805.469 1505.12 805.07 1505.93 804.273C1506.76 803.461 1507.17 802.445 1507.17 801.227C1507.17 800.008 1506.76 798.984 1505.95 798.156C1505.15 797.328 1504.05 796.914 1502.65 796.914C1501.22 796.914 1500.12 797.336 1499.32 798.18C1498.52 799.008 1498.12 800.023 1498.12 801.227ZM1537.2 798.039C1537.2 798.43 1537.1 798.789 1536.9 799.117C1536.71 799.445 1536.42 799.734 1536.03 799.984C1535.63 800.234 1535.1 800.438 1534.46 800.594C1533.84 800.734 1533.1 800.805 1532.26 800.805C1531.56 800.805 1530.87 800.734 1530.2 800.594C1529.54 800.453 1528.95 800.227 1528.44 799.914C1527.92 799.617 1527.5 799.227 1527.17 798.742C1526.85 798.242 1526.66 797.648 1526.61 796.961H1520.4C1520.4 797.992 1520.65 799.023 1521.15 800.055C1521.67 801.07 1522.42 801.977 1523.4 802.773C1524.38 803.586 1525.6 804.242 1527.06 804.742C1528.52 805.242 1530.21 805.492 1532.12 805.492C1533.85 805.492 1535.42 805.305 1536.83 804.93C1538.24 804.539 1539.44 804 1540.44 803.312C1541.42 802.625 1542.18 801.812 1542.71 800.875C1543.26 799.922 1543.53 798.883 1543.53 797.758C1543.53 796.539 1543.26 795.492 1542.71 794.617C1542.18 793.727 1541.44 792.969 1540.49 792.344C1539.53 791.734 1538.4 791.234 1537.09 790.844C1535.77 790.453 1534.35 790.133 1532.82 789.883C1531.76 789.727 1530.88 789.547 1530.2 789.344C1529.51 789.125 1528.97 788.883 1528.58 788.617C1528.17 788.367 1527.89 788.086 1527.74 787.773C1527.58 787.445 1527.5 787.094 1527.5 786.719C1527.5 786.344 1527.59 785.992 1527.76 785.664C1527.95 785.32 1528.21 785.023 1528.56 784.773C1528.93 784.492 1529.42 784.273 1530.01 784.117C1530.6 783.961 1531.3 783.883 1532.1 783.883C1533.03 783.883 1533.83 784 1534.49 784.234C1535.16 784.469 1535.69 784.781 1536.08 785.172C1536.36 785.469 1536.57 785.805 1536.71 786.18C1536.85 786.539 1536.92 786.93 1536.92 787.352H1543.44C1543.44 786.18 1543.18 785.094 1542.67 784.094C1542.15 783.094 1541.41 782.227 1540.44 781.492C1539.45 780.773 1538.26 780.211 1536.85 779.805C1535.45 779.383 1533.86 779.172 1532.1 779.172C1530.41 779.172 1528.89 779.383 1527.55 779.805C1526.2 780.227 1525.06 780.797 1524.13 781.516C1523.19 782.234 1522.47 783.07 1521.97 784.023C1521.47 784.977 1521.22 785.977 1521.22 787.023C1521.22 788.102 1521.46 789.055 1521.95 789.883C1522.45 790.711 1523.13 791.438 1524.01 792.062C1524.88 792.703 1525.93 793.25 1527.15 793.703C1528.38 794.141 1529.74 794.508 1531.23 794.805C1532.4 795.023 1533.37 795.242 1534.13 795.461C1534.9 795.68 1535.52 795.914 1535.99 796.164C1536.44 796.43 1536.75 796.711 1536.92 797.008C1537.11 797.305 1537.2 797.648 1537.2 798.039ZM1551.51 769V774.32H1559.11V799.703H1551.51V805H1572.96V799.703H1565.69V769H1551.51ZM1591.77 805.469C1594.22 805.469 1596.34 804.992 1598.14 804.039C1599.94 803.086 1601.25 802.023 1602.08 800.852L1598.82 797.336C1598.07 798.305 1597.09 799.031 1595.89 799.516C1594.69 800 1593.45 800.242 1592.16 800.242C1591.26 800.242 1590.42 800.102 1589.66 799.82C1588.89 799.539 1588.21 799.141 1587.62 798.625C1587.04 798.125 1586.58 797.57 1586.24 796.961C1585.89 796.336 1585.61 795.516 1585.39 794.5V794.43H1602.59V791.664C1602.59 789.805 1602.34 788.109 1601.82 786.578C1601.31 785.031 1600.56 783.711 1599.57 782.617C1598.57 781.523 1597.35 780.68 1595.91 780.086C1594.49 779.477 1592.87 779.172 1591.04 779.172C1589.27 779.172 1587.64 779.492 1586.14 780.133C1584.64 780.773 1583.34 781.672 1582.25 782.828C1581.16 783.984 1580.31 785.367 1579.7 786.977C1579.09 788.57 1578.78 790.336 1578.78 792.273V793.211C1578.78 794.914 1579.09 796.516 1579.7 798.016C1580.32 799.5 1581.2 800.789 1582.34 801.883C1583.49 802.992 1584.85 803.867 1586.45 804.508C1588.04 805.148 1589.81 805.469 1591.77 805.469ZM1590.99 784.445C1591.82 784.445 1592.55 784.578 1593.17 784.844C1593.81 785.094 1594.35 785.438 1594.79 785.875C1595.23 786.328 1595.57 786.859 1595.82 787.469C1596.07 788.078 1596.2 788.727 1596.2 789.414V789.93H1585.51C1585.66 789.102 1585.9 788.352 1586.21 787.68C1586.52 787.008 1586.91 786.43 1587.38 785.945C1587.84 785.461 1588.37 785.094 1588.98 784.844C1589.59 784.578 1590.26 784.445 1590.99 784.445ZM1621.07 805.469C1623.53 805.469 1625.65 804.992 1627.45 804.039C1629.25 803.086 1630.56 802.023 1631.39 800.852L1628.13 797.336C1627.38 798.305 1626.4 799.031 1625.2 799.516C1624 800 1622.75 800.242 1621.47 800.242C1620.57 800.242 1619.73 800.102 1618.96 799.82C1618.2 799.539 1617.52 799.141 1616.93 798.625C1616.35 798.125 1615.89 797.57 1615.54 796.961C1615.2 796.336 1614.92 795.516 1614.7 794.5V794.43H1631.9V791.664C1631.9 789.805 1631.64 788.109 1631.13 786.578C1630.61 785.031 1629.86 783.711 1628.88 782.617C1627.88 781.523 1626.66 780.68 1625.22 780.086C1623.8 779.477 1622.18 779.172 1620.35 779.172C1618.58 779.172 1616.95 779.492 1615.45 780.133C1613.95 780.773 1612.65 781.672 1611.56 782.828C1610.46 783.984 1609.61 785.367 1609 786.977C1608.39 788.57 1608.09 790.336 1608.09 792.273V793.211C1608.09 794.914 1608.39 796.516 1609 798.016C1609.63 799.5 1610.51 800.789 1611.65 801.883C1612.79 802.992 1614.16 803.867 1615.75 804.508C1617.35 805.148 1619.12 805.469 1621.07 805.469ZM1620.3 784.445C1621.13 784.445 1621.86 784.578 1622.48 784.844C1623.12 785.094 1623.66 785.438 1624.1 785.875C1624.54 786.328 1624.88 786.859 1625.13 787.469C1625.38 788.078 1625.5 788.727 1625.5 789.414V789.93H1614.82C1614.97 789.102 1615.21 788.352 1615.52 787.68C1615.83 787.008 1616.22 786.43 1616.69 785.945C1617.14 785.461 1617.68 785.094 1618.29 784.844C1618.89 784.578 1619.57 784.445 1620.3 784.445ZM1638.17 814.75H1644.69V802.797C1644.98 803.125 1645.3 803.422 1645.62 803.688C1645.95 803.953 1646.3 804.195 1646.66 804.414C1647.27 804.758 1647.92 805.016 1648.62 805.188C1649.34 805.375 1650.12 805.469 1650.97 805.469C1652.56 805.469 1653.98 805.141 1655.21 804.484C1656.45 803.828 1657.48 802.922 1658.33 801.766C1659.16 800.625 1659.78 799.266 1660.2 797.688C1660.64 796.109 1660.86 794.398 1660.86 792.555V792.062C1660.86 790.141 1660.64 788.391 1660.2 786.812C1659.78 785.219 1659.15 783.852 1658.3 782.711C1657.46 781.586 1656.42 780.719 1655.19 780.109C1653.95 779.484 1652.53 779.172 1650.92 779.172C1650.14 779.172 1649.41 779.258 1648.72 779.43C1648.05 779.586 1647.43 779.812 1646.87 780.109C1646.4 780.359 1645.96 780.656 1645.55 781C1645.15 781.328 1644.77 781.703 1644.43 782.125L1644.2 779.641H1638.17V814.75ZM1654.34 792.062V792.555C1654.34 793.602 1654.25 794.594 1654.06 795.531C1653.87 796.453 1653.58 797.266 1653.17 797.969C1652.77 798.672 1652.23 799.227 1651.58 799.633C1650.94 800.039 1650.16 800.242 1649.23 800.242C1648.66 800.242 1648.13 800.188 1647.66 800.078C1647.2 799.953 1646.78 799.781 1646.42 799.562C1646.05 799.328 1645.71 799.047 1645.41 798.719C1645.13 798.391 1644.89 798.023 1644.69 797.617V787.023C1644.91 786.586 1645.16 786.203 1645.46 785.875C1645.77 785.547 1646.13 785.273 1646.54 785.055C1646.9 784.867 1647.3 784.727 1647.73 784.633C1648.17 784.523 1648.66 784.469 1649.19 784.469C1650.11 784.469 1650.89 784.664 1651.53 785.055C1652.19 785.445 1652.73 785.977 1653.15 786.648C1653.55 787.336 1653.85 788.148 1654.04 789.086C1654.24 790.008 1654.34 791 1654.34 792.062ZM1688.92 810.086V805H1667.55V810.086H1688.92ZM1700.75 779.641H1695.15V805H1701.08V786.016C1701.15 785.812 1701.24 785.625 1701.33 785.453C1701.43 785.281 1701.54 785.133 1701.66 785.008C1701.83 784.836 1702.03 784.703 1702.25 784.609C1702.47 784.516 1702.72 784.469 1703 784.469C1703.25 784.469 1703.48 784.508 1703.7 784.586C1703.92 784.648 1704.12 784.766 1704.29 784.938C1704.44 785.109 1704.57 785.352 1704.66 785.664C1704.76 785.977 1704.8 786.375 1704.8 786.859V805H1710.55V786.297C1710.55 786.109 1710.55 785.961 1710.55 785.852C1710.55 785.742 1710.55 785.672 1710.55 785.641C1710.62 785.469 1710.72 785.32 1710.83 785.195C1710.94 785.055 1711.06 784.93 1711.2 784.82C1711.37 784.711 1711.55 784.625 1711.74 784.562C1711.94 784.5 1712.17 784.469 1712.42 784.469C1712.65 784.469 1712.88 784.508 1713.1 784.586C1713.33 784.648 1713.54 784.766 1713.71 784.938C1713.88 785.125 1714.01 785.375 1714.11 785.688C1714.22 786 1714.27 786.398 1714.27 786.883V805H1720.2V786.906C1720.2 785.5 1720.06 784.312 1719.78 783.344C1719.51 782.359 1719.14 781.555 1718.65 780.93C1718.15 780.32 1717.57 779.875 1716.9 779.594C1716.24 779.312 1715.53 779.172 1714.76 779.172C1714.15 779.172 1713.59 779.25 1713.08 779.406C1712.56 779.562 1712.1 779.781 1711.69 780.062C1711.37 780.281 1711.06 780.547 1710.78 780.859C1710.51 781.156 1710.27 781.492 1710.05 781.867C1709.91 781.477 1709.74 781.133 1709.54 780.836C1709.35 780.523 1709.12 780.258 1708.86 780.039C1708.51 779.742 1708.11 779.523 1707.64 779.383C1707.17 779.242 1706.64 779.172 1706.05 779.172C1704.83 779.172 1703.79 779.492 1702.93 780.133C1702.08 780.758 1701.42 781.617 1700.94 782.711L1700.75 779.641ZM1742.36 798.039C1742.36 798.43 1742.26 798.789 1742.06 799.117C1741.87 799.445 1741.58 799.734 1741.19 799.984C1740.78 800.234 1740.26 800.438 1739.62 800.594C1738.99 800.734 1738.26 800.805 1737.42 800.805C1736.71 800.805 1736.03 800.734 1735.35 800.594C1734.7 800.453 1734.11 800.227 1733.6 799.914C1733.08 799.617 1732.66 799.227 1732.33 798.742C1732 798.242 1731.81 797.648 1731.77 796.961H1725.56C1725.56 797.992 1725.81 799.023 1726.31 800.055C1726.82 801.07 1727.57 801.977 1728.56 802.773C1729.54 803.586 1730.76 804.242 1732.21 804.742C1733.68 805.242 1735.37 805.492 1737.28 805.492C1739.01 805.492 1740.58 805.305 1741.99 804.93C1743.39 804.539 1744.6 804 1745.6 803.312C1746.58 802.625 1747.34 801.812 1747.87 800.875C1748.42 799.922 1748.69 798.883 1748.69 797.758C1748.69 796.539 1748.42 795.492 1747.87 794.617C1747.34 793.727 1746.6 792.969 1745.64 792.344C1744.69 791.734 1743.56 791.234 1742.24 790.844C1740.93 790.453 1739.51 790.133 1737.98 789.883C1736.92 789.727 1736.04 789.547 1735.35 789.344C1734.67 789.125 1734.13 788.883 1733.74 788.617C1733.33 788.367 1733.05 788.086 1732.89 787.773C1732.74 787.445 1732.66 787.094 1732.66 786.719C1732.66 786.344 1732.74 785.992 1732.92 785.664C1733.1 785.32 1733.37 785.023 1733.71 784.773C1734.09 784.492 1734.57 784.273 1735.17 784.117C1735.76 783.961 1736.46 783.883 1737.25 783.883C1738.19 783.883 1738.99 784 1739.64 784.234C1740.31 784.469 1740.85 784.781 1741.24 785.172C1741.52 785.469 1741.73 785.805 1741.87 786.18C1742.01 786.539 1742.08 786.93 1742.08 787.352H1748.6C1748.6 786.18 1748.34 785.094 1747.82 784.094C1747.31 783.094 1746.56 782.227 1745.6 781.492C1744.61 780.773 1743.42 780.211 1742.01 779.805C1740.6 779.383 1739.02 779.172 1737.25 779.172C1735.56 779.172 1734.05 779.383 1732.71 779.805C1731.36 780.227 1730.22 780.797 1729.28 781.516C1728.35 782.234 1727.63 783.07 1727.13 784.023C1726.63 784.977 1726.38 785.977 1726.38 787.023C1726.38 788.102 1726.62 789.055 1727.1 789.883C1727.6 790.711 1728.29 791.438 1729.17 792.062C1730.04 792.703 1731.09 793.25 1732.31 793.703C1733.54 794.141 1734.9 794.508 1736.39 794.805C1737.56 795.023 1738.53 795.242 1739.29 795.461C1740.06 795.68 1740.67 795.914 1741.14 796.164C1741.6 796.43 1741.91 796.711 1742.08 797.008C1742.27 797.305 1742.36 797.648 1742.36 798.039ZM1760.09 791.125V791.641C1760.09 793.859 1760.26 795.938 1760.58 797.875C1760.93 799.812 1761.39 801.602 1761.97 803.242C1762.54 804.898 1763.22 806.406 1763.98 807.766C1764.76 809.125 1765.58 810.32 1766.44 811.352C1767.3 812.398 1768.19 813.289 1769.09 814.023C1770.01 814.758 1770.9 815.32 1771.76 815.711L1773.03 812.195C1772.42 811.727 1771.8 811.141 1771.18 810.438C1770.55 809.734 1769.96 808.906 1769.4 807.953C1768.86 807.078 1768.36 806.055 1767.9 804.883C1767.44 803.711 1767.04 802.438 1766.7 801.062C1766.45 800.078 1766.22 798.758 1766 797.102C1765.79 795.445 1765.69 793.641 1765.69 791.688V791.078C1765.69 789.094 1765.8 787.258 1766.02 785.57C1766.24 783.883 1766.53 782.344 1766.89 780.953C1767.29 779.516 1767.76 778.188 1768.29 776.969C1768.84 775.75 1769.43 774.695 1770.05 773.805C1770.54 773.117 1771.03 772.508 1771.53 771.977C1772.03 771.445 1772.53 770.992 1773.03 770.617L1771.76 767.055C1770.9 767.445 1770.01 768.008 1769.09 768.742C1768.19 769.461 1767.3 770.344 1766.44 771.391C1765.58 772.438 1764.76 773.641 1763.98 775C1763.22 776.359 1762.54 777.859 1761.97 779.5C1761.39 781.156 1760.93 782.961 1760.58 784.914C1760.26 786.852 1760.09 788.922 1760.09 791.125ZM1784.95 788.195L1790.15 789.484C1790.4 789.234 1790.67 789 1790.95 788.781C1791.23 788.547 1791.55 788.344 1791.91 788.172C1792.27 788 1792.68 787.859 1793.15 787.75C1793.62 787.641 1794.17 787.586 1794.81 787.586C1795.77 787.586 1796.6 787.734 1797.3 788.031C1798 788.328 1798.59 788.75 1799.06 789.297C1799.52 789.844 1799.87 790.5 1800.09 791.266C1800.32 792.016 1800.44 792.844 1800.44 793.75C1800.44 794.672 1800.35 795.531 1800.16 796.328C1799.99 797.125 1799.71 797.812 1799.34 798.391C1798.95 798.969 1798.44 799.422 1797.81 799.75C1797.2 800.078 1796.46 800.242 1795.59 800.242C1794.17 800.242 1792.99 799.836 1792.07 799.023C1791.17 798.211 1790.63 797.062 1790.48 795.578H1784.06C1784.1 797.156 1784.45 798.562 1785.11 799.797C1785.78 801.016 1786.65 802.047 1787.71 802.891C1788.77 803.734 1789.99 804.375 1791.35 804.812C1792.72 805.25 1794.14 805.469 1795.61 805.469C1797.55 805.469 1799.23 805.164 1800.65 804.555C1802.07 803.945 1803.25 803.117 1804.19 802.07C1805.13 801.023 1805.82 799.812 1806.27 798.438C1806.73 797.062 1806.95 795.609 1806.95 794.078C1806.95 792.281 1806.72 790.672 1806.25 789.25C1805.78 787.828 1805.11 786.625 1804.24 785.641C1803.35 784.656 1802.25 783.906 1800.95 783.391C1799.67 782.859 1798.21 782.594 1796.57 782.594C1795.42 782.594 1794.39 782.742 1793.5 783.039C1792.61 783.336 1791.92 783.625 1791.44 783.906L1792.26 776.406H1805.83V770.875H1786.89L1784.95 788.195ZM1831.27 791.641V791.125C1831.27 788.984 1831.1 786.961 1830.75 785.055C1830.41 783.133 1829.94 781.344 1829.35 779.688C1828.75 778.031 1828.06 776.523 1827.26 775.164C1826.48 773.789 1825.65 772.562 1824.75 771.484C1823.86 770.422 1822.95 769.516 1822.01 768.766C1821.08 768.016 1820.16 767.445 1819.27 767.055L1818.03 770.547C1818.5 770.906 1818.97 771.344 1819.43 771.859C1819.92 772.359 1820.39 772.93 1820.84 773.57C1821.51 774.539 1822.15 775.688 1822.74 777.016C1823.35 778.344 1823.86 779.844 1824.29 781.516C1824.61 782.859 1824.87 784.328 1825.06 785.922C1825.26 787.516 1825.36 789.234 1825.36 791.078V791.688C1825.36 793.578 1825.26 795.336 1825.06 796.961C1824.87 798.586 1824.61 800.07 1824.29 801.414C1823.9 802.883 1823.44 804.211 1822.93 805.398C1822.43 806.586 1821.87 807.648 1821.26 808.586C1820.75 809.383 1820.22 810.078 1819.67 810.672C1819.12 811.281 1818.58 811.789 1818.03 812.195L1819.27 815.711C1820.16 815.32 1821.08 814.75 1822.01 814C1822.95 813.25 1823.86 812.336 1824.75 811.258C1825.65 810.195 1826.48 808.977 1827.26 807.602C1828.06 806.242 1828.75 804.734 1829.35 803.078C1829.94 801.422 1830.41 799.641 1830.75 797.734C1831.1 795.812 1831.27 793.781 1831.27 791.641Z" fill="white"/>
<path d="M1006 750V1080" stroke="#E67E22" stroke-width="16"/>
<path d="M915 750V1080" stroke="#B2B2B2" stroke-width="16"/>
<path d="M964 151V247" stroke="white" stroke-width="16" stroke-linecap="round"/>
<path d="M1103.12 182.738L1055.28 265.615" stroke="white" stroke-width="16" stroke-linecap="round"/>
<path d="M827.785 182.738L875.633 265.615" stroke="white" stroke-width="16" stroke-linecap="round"/>
<path d="M1186 280.312L1103.12 328.161" stroke="white" stroke-width="16" stroke-linecap="round"/>
<path d="M811.211 328.161L728.335 280.312" stroke="white" stroke-width="16" stroke-linecap="round"/>
<path d="M1705.77 655.232C1704.79 654.256 1703.21 654.256 1702.23 655.232L1686.32 671.142C1685.35 672.118 1685.35 673.701 1686.32 674.678C1687.3 675.654 1688.88 675.654 1689.86 674.678L1704 660.536L1718.14 674.678C1719.12 675.654 1720.7 675.654 1721.68 674.678C1722.65 673.701 1722.65 672.118 1721.68 671.142L1705.77 655.232ZM1706.5 746L1706.5 657L1701.5 657L1701.5 746L1706.5 746Z" fill="white"/>
<path d="M368.232 423.768C369.209 424.744 370.791 424.744 371.768 423.768L387.678 407.858C388.654 406.882 388.654 405.299 387.678 404.322C386.701 403.346 385.118 403.346 384.142 404.322L370 418.464L355.858 404.322C354.882 403.346 353.299 403.346 352.322 404.322C351.346 405.299 351.346 406.882 352.322 407.858L368.232 423.768ZM367.5 335L367.5 422L372.5 422L372.5 335L367.5 335Z" fill="white"/>
</g>
<defs>
<clipPath id="clip0">
<rect width="1920" height="1080" fill="white"/>
</clipPath>
</defs>
</svg>
