<svg width="65" height="47" viewBox="0 0 65 47" fill="none" xmlns="http://www.w3.org/2000/svg">
<g clip-path="url(#clip0)">
<path fill-rule="evenodd" clip-rule="evenodd" d="M65 15.8537C65 7.10522 57.8053 0 48.9868 0C48.1749 0 47.3404 0.0462881 46.5285 0.185152C39.6721 1.18035 35.0711 6.24889 32.5 10.1371C29.9289 6.24889 25.3279 1.18035 18.4715 0.185152C17.6596 0.0694321 16.8251 0 16.0132 0C7.1721 0 0 7.10522 0 15.8537C0 24.6021 7.19466 31.7073 16.0132 31.7073C16.8251 31.7073 17.6596 31.661 18.4941 31.5222C25.3505 30.5038 29.9514 25.4353 32.5226 21.5471C35.0937 25.4353 39.6947 30.5038 46.551 31.5222C47.3629 31.6379 48.1974 31.7073 49.0319 31.7073C57.8053 31.7073 65 24.6021 65 15.8537ZM17.6821 25.9676C17.1182 26.0602 16.5544 26.0833 15.9905 26.0833C10.1717 26.0833 5.45792 21.4776 5.45792 15.8536C5.45792 10.2065 10.1942 5.62398 16.0131 5.62398C16.5769 5.62398 17.1408 5.67027 17.7046 5.7397C24.1776 6.68861 28.1245 13.2384 29.4777 15.8536C28.1019 18.4921 24.1325 25.0187 17.6821 25.9676ZM47.2952 5.7397C40.8223 6.68861 36.8528 13.2384 35.5222 15.8536C36.8528 18.4689 40.8223 25.0187 47.2952 25.9676C47.8591 26.037 48.4229 26.0833 48.9868 26.0833C54.7831 26.0833 59.5194 21.5008 59.5194 15.8536C59.5194 10.2296 54.8056 5.62398 48.9868 5.62398C48.4229 5.62398 47.8591 5.67027 47.2952 5.7397ZM11.4964 14.1554H21.181V17.2034H11.4964V14.1554ZM53.4558 17.2256H50.1898V20.4293H47.0599V17.2256H43.7939V14.1554H47.0599V10.9517H50.1898V14.1554H53.4558V17.2256ZM60.878 1.75806C60.878 0.796622 61.6622 0 62.6143 0C63.5944 0 64.3785 0.796622 64.3785 1.75806C64.3785 2.77444 63.5944 3.51613 62.6143 3.51613C61.6622 3.51613 60.878 2.7195 60.878 1.75806ZM62.6393 0.659123H61.7711V2.8567H62.3312V2.11502H62.6393L62.9473 2.8567H63.5634L63.1433 2.03261C63.4234 1.92273 63.5634 1.70297 63.5634 1.40081C63.5634 0.93382 63.3114 0.659123 62.6393 0.659123ZM64.0683 1.75787C64.0683 0.961248 63.4522 0.274505 62.6121 0.274505C61.772 0.274505 61.1839 0.878839 61.1839 1.75787C61.1839 2.66437 61.856 3.24124 62.6121 3.24124C63.4522 3.24124 64.0683 2.66437 64.0683 1.75787ZM62.9754 1.37337C62.9754 1.64807 62.8354 1.73048 62.5834 1.73048L62.3033 1.75795V1.04373H62.5834C62.8914 1.04373 62.9754 1.12614 62.9754 1.37337Z" fill="#00979D"/>
<path d="M0.616699 46.1267L3.49479 36.7075H6.11124L9.12015 46.1267H6.63452L6.11124 44.2952H3.49479L2.9715 46.1267H0.616699ZM4.80301 39.0623L3.88726 42.4637H5.71877L4.80301 39.0623Z" fill="#00979D"/>
<path d="M10.5591 36.8384H14.3529C16.9694 36.8384 17.8851 38.1466 17.8851 39.9781C17.8851 41.2863 17.3618 42.2021 16.3153 42.7254L18.1468 46.1268H15.3995L14.0913 43.2487H12.9139V46.2576H10.5591V36.8384ZM15.5303 39.9781C15.5303 39.1932 15.2687 38.6699 14.0913 38.6699H12.9139V41.2863H14.0913C15.007 41.4172 15.5303 41.0247 15.5303 39.9781Z" fill="#00979D"/>
<path d="M19.8476 36.8384H22.8565C26.3887 36.8384 27.5661 38.5391 27.5661 41.4172C27.5661 43.6411 26.912 46.1268 22.8565 46.1268H19.7168V36.8384H19.8476ZM22.2024 38.6699V44.1644H23.1182C25.0805 44.1644 25.2113 42.987 25.2113 41.4172C25.2113 39.5856 25.0805 38.6699 22.9874 38.6699H22.2024Z" fill="#00979D"/>
<path d="M34.3691 36.8384H36.5931V42.987C36.5931 45.7343 34.5 46.3884 32.7993 46.3884C31.2294 46.3884 29.1362 45.8651 29.1362 42.987V36.8384H31.491V42.5946C31.491 44.1644 32.0143 44.5569 32.9301 44.5569C33.9767 44.5569 34.3691 44.0336 34.3691 42.5946V36.8384V36.8384Z" fill="#00979D"/>
<path d="M38.686 44.2953H41.1717V38.8007H38.8169V36.8384H46.0121V38.8007H43.5265V44.2953H46.0121V46.2576H38.8169V44.2953H38.686Z" fill="#00979D"/>
<path d="M49.9369 46.1268H47.7129V36.8384H50.3293L53.3383 42.4637V36.8384H55.5622V46.2576H53.2074L50.0677 40.2398L49.9369 46.1268Z" fill="#00979D"/>
<path d="M64.9811 41.5479C64.9811 44.2952 63.9346 46.3884 60.9256 46.3884C58.1784 46.3884 57.001 44.8185 57.001 41.6788C57.001 38.8007 58.0476 36.7075 60.9256 36.7075C63.6729 36.7075 64.9811 37.8849 64.9811 41.5479ZM62.4955 41.5479C62.4955 39.1931 62.3647 38.6699 60.9256 38.6699C59.7482 38.539 59.4866 39.324 59.4866 41.6788C59.4866 43.5103 59.6174 44.5569 60.9256 44.5569C62.3647 44.426 62.4955 43.6411 62.4955 41.5479Z" fill="#00979D"/>
</g>
<defs>
<clipPath id="clip0">
<rect width="65" height="46.3882" fill="white"/>
</clipPath>
</defs>
</svg>
