<svg width="1169" height="905" viewBox="0 0 1169 905" fill="none" xmlns="http://www.w3.org/2000/svg">
<g clip-path="url(#clip0)">
<path d="M572.5 650.4L429.4 719.3C419.2 724.2 402.6 724.2 392.4 719.3L250.7 651.1C240.5 646.2 240.5 638.2 250.7 633.3L393.8 564.4C404 559.5 420.6 559.5 430.8 564.4L572.6 632.7C582.7 637.5 582.7 645.5 572.5 650.4Z" fill="#CEFAFC"/>
<path d="M549.2 647.1L426.8 706C418.1 710.2 403.9 710.2 395.1 706L273.9 647.7C265.2 643.5 265.2 636.7 273.9 632.5L396.3 573.6C405 569.4 419.2 569.4 428 573.6L549.2 632C557.9 636.1 557.9 642.9 549.2 647.1Z" stroke="#00979D" stroke-width="1.0001" stroke-miterlimit="10" stroke-dasharray="4.26 4.26"/>
<path d="M549.2 581.4L426.8 640.3C418.1 644.5 403.9 644.5 395.1 640.3L273.9 581.9C265.2 577.7 265.2 570.9 273.9 566.7L396.3 507.8C405 503.6 419.2 503.6 428 507.8L549.2 566.2C557.9 570.3 557.9 577.2 549.2 581.4Z" fill="#8DE6EA"/>
<path d="M549.2 488.1L426.8 547C418.1 551.2 403.9 551.2 395.1 547L273.9 488.7C265.2 484.5 265.2 477.7 273.9 473.5L396.3 414.6C405 410.4 419.2 410.4 428 414.6L549.2 473C557.9 477.1 557.9 483.9 549.2 488.1Z" fill="#4ECCD1"/>
<path d="M549.2 368.5L426.8 427.4C418.1 431.6 403.9 431.6 395.1 427.4L273.9 369.1C265.2 364.9 265.2 358.1 273.9 353.9L396.3 295C405 290.8 419.2 290.8 428 295L549.2 353.4C557.9 357.5 557.9 364.3 549.2 368.5Z" fill="#24AFB5"/>
<path d="M549.2 254.8L426.8 313.7C418.1 317.9 403.9 317.9 395.1 313.7L273.9 255.3C265.2 251.1 265.2 244.3 273.9 240.1L396.3 181.2C405 177 419.2 177 428 181.2L549.2 239.6C557.9 243.8 557.9 250.6 549.2 254.8Z" fill="#00979D"/>
<path d="M267 253.6V633.6" stroke="#00979D" stroke-width="1.0001" stroke-miterlimit="10" stroke-dasharray="4.25 4.25"/>
<path d="M412 317L412 709" stroke="#00979D" stroke-width="1.0001" stroke-miterlimit="10" stroke-dasharray="4.25 4.25"/>
<path d="M556.1 253.6V633.6" stroke="#00979D" stroke-width="1.0001" stroke-miterlimit="10" stroke-dasharray="4.25 4.25"/>
</g>
<path d="M609.02 248.039H603.688L602.516 252H599.609L605.152 234.938H607.625L613.062 252H610.168L609.02 248.039ZM604.402 245.637H608.316L606.383 238.945L604.402 245.637ZM620.879 245.344H618.02V252H615.207V234.938H620.598C621.473 234.945 622.277 235.059 623.012 235.277C623.754 235.488 624.395 235.809 624.934 236.238C625.473 236.66 625.891 237.191 626.188 237.832C626.484 238.473 626.633 239.223 626.633 240.082C626.633 240.66 626.555 241.188 626.398 241.664C626.25 242.133 626.039 242.559 625.766 242.941C625.492 243.324 625.164 243.66 624.781 243.949C624.398 244.238 623.977 244.484 623.516 244.688L627.125 251.859V252H624.125L620.879 245.344ZM618.02 243.07H620.609C621.078 243.07 621.508 243.004 621.898 242.871C622.289 242.738 622.625 242.551 622.906 242.309C623.195 242.059 623.418 241.758 623.574 241.406C623.73 241.047 623.809 240.637 623.809 240.176C623.809 239.699 623.734 239.277 623.586 238.91C623.438 238.543 623.223 238.234 622.941 237.984C622.668 237.734 622.332 237.547 621.934 237.422C621.535 237.289 621.09 237.219 620.598 237.211H618.02V243.07ZM629.434 252V234.938H633.605C634.777 234.945 635.828 235.141 636.758 235.523C637.695 235.906 638.488 236.445 639.137 237.141C639.793 237.836 640.297 238.668 640.648 239.637C641 240.598 641.18 241.664 641.188 242.836V244.125C641.18 245.297 641 246.367 640.648 247.336C640.297 248.297 639.797 249.125 639.148 249.82C638.5 250.508 637.715 251.043 636.793 251.426C635.871 251.809 634.836 252 633.688 252H629.434ZM632.293 237.211V249.738H633.688C634.461 249.73 635.137 249.594 635.715 249.328C636.293 249.055 636.773 248.676 637.156 248.191C637.547 247.699 637.836 247.109 638.023 246.422C638.219 245.734 638.32 244.969 638.328 244.125V242.812C638.32 241.992 638.219 241.242 638.023 240.562C637.836 239.883 637.547 239.297 637.156 238.805C636.766 238.305 636.273 237.918 635.68 237.645C635.094 237.363 634.402 237.219 633.605 237.211H632.293ZM655.086 234.938L655.109 246.363C655.102 247.238 654.961 248.039 654.688 248.766C654.414 249.484 654.031 250.102 653.539 250.617C653.047 251.133 652.449 251.531 651.746 251.812C651.051 252.094 650.27 252.234 649.402 252.234C648.559 252.234 647.793 252.094 647.105 251.812C646.418 251.531 645.828 251.137 645.336 250.629C644.844 250.113 644.461 249.496 644.188 248.777C643.914 248.051 643.773 247.246 643.766 246.363L643.789 234.938H646.555L646.578 246.363C646.586 246.887 646.652 247.367 646.777 247.805C646.902 248.242 647.082 248.621 647.316 248.941C647.551 249.254 647.84 249.5 648.184 249.68C648.535 249.852 648.941 249.938 649.402 249.938C649.871 249.938 650.285 249.852 650.645 249.68C651.004 249.5 651.305 249.254 651.547 248.941C651.789 248.621 651.973 248.242 652.098 247.805C652.223 247.367 652.289 246.887 652.297 246.363L652.32 234.938H655.086ZM658.777 234.938H668.926V237.27H665.234V249.68H668.926V252H658.777V249.68H662.387V237.27H658.777V234.938ZM683.855 252H681.02L675.465 240.258L675.453 252H672.605V234.938H675.453L680.984 246.645L681.008 234.938H683.855V252ZM698.797 244.57C698.797 245.578 698.668 246.547 698.41 247.477C698.152 248.398 697.766 249.215 697.25 249.926C696.742 250.629 696.102 251.191 695.328 251.613C694.562 252.027 693.664 252.234 692.633 252.234C691.609 252.234 690.719 252.023 689.961 251.602C689.203 251.18 688.57 250.617 688.062 249.914C687.562 249.203 687.184 248.387 686.926 247.465C686.676 246.543 686.551 245.578 686.551 244.57V242.391C686.551 241.719 686.605 241.062 686.715 240.422C686.832 239.781 687 239.18 687.219 238.617C687.445 238.047 687.723 237.523 688.051 237.047C688.387 236.562 688.777 236.148 689.223 235.805C689.676 235.461 690.184 235.191 690.746 234.996C691.316 234.801 691.941 234.703 692.621 234.703C693.652 234.703 694.551 234.914 695.316 235.336C696.09 235.758 696.734 236.324 697.25 237.035C697.766 237.738 698.152 238.555 698.41 239.484C698.668 240.414 698.797 241.383 698.797 242.391V244.57ZM695.973 242.367C695.965 241.727 695.906 241.09 695.797 240.457C695.688 239.824 695.504 239.262 695.246 238.77C694.988 238.27 694.645 237.867 694.215 237.562C693.793 237.25 693.262 237.094 692.621 237.094C691.988 237.094 691.461 237.25 691.039 237.562C690.625 237.867 690.293 238.27 690.043 238.77C689.801 239.27 689.629 239.836 689.527 240.469C689.434 241.094 689.383 241.727 689.375 242.367V244.57C689.383 245.211 689.438 245.848 689.539 246.48C689.641 247.105 689.812 247.672 690.055 248.18C690.305 248.68 690.637 249.086 691.051 249.398C691.473 249.711 692 249.867 692.633 249.867C693.273 249.867 693.805 249.711 694.227 249.398C694.656 249.086 695 248.68 695.258 248.18C695.516 247.68 695.695 247.113 695.797 246.48C695.906 245.848 695.965 245.211 695.973 244.57V242.367ZM727.578 246.762C727.5 247.582 727.305 248.332 726.992 249.012C726.68 249.684 726.266 250.262 725.75 250.746C725.234 251.223 724.625 251.594 723.922 251.859C723.227 252.117 722.449 252.246 721.59 252.246C720.551 252.246 719.645 252.047 718.871 251.648C718.098 251.242 717.453 250.695 716.938 250.008C716.422 249.32 716.035 248.516 715.777 247.594C715.52 246.672 715.387 245.688 715.379 244.641V242.309C715.387 241.27 715.523 240.289 715.789 239.367C716.055 238.438 716.445 237.629 716.961 236.941C717.484 236.246 718.133 235.699 718.906 235.301C719.68 234.895 720.578 234.691 721.602 234.691C722.5 234.691 723.301 234.824 724.004 235.09C724.707 235.355 725.309 235.73 725.809 236.215C726.309 236.699 726.707 237.289 727.004 237.984C727.301 238.68 727.492 239.453 727.578 240.305H724.766C724.719 239.805 724.621 239.352 724.473 238.945C724.332 238.531 724.137 238.18 723.887 237.891C723.637 237.594 723.32 237.367 722.938 237.211C722.562 237.055 722.117 236.977 721.602 236.977C720.969 236.977 720.438 237.121 720.008 237.41C719.578 237.699 719.23 238.09 718.965 238.582C718.699 239.066 718.508 239.629 718.391 240.27C718.281 240.91 718.227 241.582 718.227 242.285V244.641C718.227 245.375 718.281 246.066 718.391 246.715C718.508 247.355 718.695 247.918 718.953 248.402C719.211 248.887 719.555 249.27 719.984 249.551C720.414 249.832 720.949 249.973 721.59 249.973C722.574 249.973 723.324 249.695 723.84 249.141C724.355 248.578 724.66 247.785 724.754 246.762H727.578ZM742.039 244.57C742.039 245.578 741.91 246.547 741.652 247.477C741.395 248.398 741.008 249.215 740.492 249.926C739.984 250.629 739.344 251.191 738.57 251.613C737.805 252.027 736.906 252.234 735.875 252.234C734.852 252.234 733.961 252.023 733.203 251.602C732.445 251.18 731.812 250.617 731.305 249.914C730.805 249.203 730.426 248.387 730.168 247.465C729.918 246.543 729.793 245.578 729.793 244.57V242.391C729.793 241.719 729.848 241.062 729.957 240.422C730.074 239.781 730.242 239.18 730.461 238.617C730.688 238.047 730.965 237.523 731.293 237.047C731.629 236.562 732.02 236.148 732.465 235.805C732.918 235.461 733.426 235.191 733.988 234.996C734.559 234.801 735.184 234.703 735.863 234.703C736.895 234.703 737.793 234.914 738.559 235.336C739.332 235.758 739.977 236.324 740.492 237.035C741.008 237.738 741.395 238.555 741.652 239.484C741.91 240.414 742.039 241.383 742.039 242.391V244.57ZM739.215 242.367C739.207 241.727 739.148 241.09 739.039 240.457C738.93 239.824 738.746 239.262 738.488 238.77C738.23 238.27 737.887 237.867 737.457 237.562C737.035 237.25 736.504 237.094 735.863 237.094C735.23 237.094 734.703 237.25 734.281 237.562C733.867 237.867 733.535 238.27 733.285 238.77C733.043 239.27 732.871 239.836 732.77 240.469C732.676 241.094 732.625 241.727 732.617 242.367V244.57C732.625 245.211 732.68 245.848 732.781 246.48C732.883 247.105 733.055 247.672 733.297 248.18C733.547 248.68 733.879 249.086 734.293 249.398C734.715 249.711 735.242 249.867 735.875 249.867C736.516 249.867 737.047 249.711 737.469 249.398C737.898 249.086 738.242 248.68 738.5 248.18C738.758 247.68 738.938 247.113 739.039 246.48C739.148 245.848 739.207 245.211 739.215 244.57V242.367ZM744.746 252V234.938H748.918C750.09 234.945 751.141 235.141 752.07 235.523C753.008 235.906 753.801 236.445 754.449 237.141C755.105 237.836 755.609 238.668 755.961 239.637C756.312 240.598 756.492 241.664 756.5 242.836V244.125C756.492 245.297 756.312 246.367 755.961 247.336C755.609 248.297 755.109 249.125 754.461 249.82C753.812 250.508 753.027 251.043 752.105 251.426C751.184 251.809 750.148 252 749 252H744.746ZM747.605 237.211V249.738H749C749.773 249.73 750.449 249.594 751.027 249.328C751.605 249.055 752.086 248.676 752.469 248.191C752.859 247.699 753.148 247.109 753.336 246.422C753.531 245.734 753.633 244.969 753.641 244.125V242.812C753.633 241.992 753.531 241.242 753.336 240.562C753.148 239.883 752.859 239.297 752.469 238.805C752.078 238.305 751.586 237.918 750.992 237.645C750.406 237.363 749.715 237.219 748.918 237.211H747.605ZM769.297 244.348H762.277V249.703H770.492V252H759.453V234.938H770.41V237.258H762.277V242.074H769.297V244.348Z" fill="#00979D"/>
<path d="M611.797 647H609.055V639.383H603.254V647H600.523V629.938H603.254V637.074H609.055V629.938H611.797V647ZM623.434 643.039H618.102L616.93 647H614.023L619.566 629.938H622.039L627.477 647H624.582L623.434 643.039ZM618.816 640.637H622.73L620.797 633.945L618.816 640.637ZM635.293 640.344H632.434V647H629.621V629.938H635.012C635.887 629.945 636.691 630.059 637.426 630.277C638.168 630.488 638.809 630.809 639.348 631.238C639.887 631.66 640.305 632.191 640.602 632.832C640.898 633.473 641.047 634.223 641.047 635.082C641.047 635.66 640.969 636.188 640.812 636.664C640.664 637.133 640.453 637.559 640.18 637.941C639.906 638.324 639.578 638.66 639.195 638.949C638.812 639.238 638.391 639.484 637.93 639.688L641.539 646.859V647H638.539L635.293 640.344ZM632.434 638.07H635.023C635.492 638.07 635.922 638.004 636.312 637.871C636.703 637.738 637.039 637.551 637.32 637.309C637.609 637.059 637.832 636.758 637.988 636.406C638.145 636.047 638.223 635.637 638.223 635.176C638.223 634.699 638.148 634.277 638 633.91C637.852 633.543 637.637 633.234 637.355 632.984C637.082 632.734 636.746 632.547 636.348 632.422C635.949 632.289 635.504 632.219 635.012 632.211H632.434V638.07ZM643.848 647V629.938H648.02C649.191 629.945 650.242 630.141 651.172 630.523C652.109 630.906 652.902 631.445 653.551 632.141C654.207 632.836 654.711 633.668 655.062 634.637C655.414 635.598 655.594 636.664 655.602 637.836V639.125C655.594 640.297 655.414 641.367 655.062 642.336C654.711 643.297 654.211 644.125 653.562 644.82C652.914 645.508 652.129 646.043 651.207 646.426C650.285 646.809 649.25 647 648.102 647H643.848ZM646.707 632.211V644.738H648.102C648.875 644.73 649.551 644.594 650.129 644.328C650.707 644.055 651.188 643.676 651.57 643.191C651.961 642.699 652.25 642.109 652.438 641.422C652.633 640.734 652.734 639.969 652.742 639.125V637.812C652.734 636.992 652.633 636.242 652.438 635.562C652.25 634.883 651.961 634.297 651.57 633.805C651.18 633.305 650.688 632.918 650.094 632.645C649.508 632.363 648.816 632.219 648.02 632.211H646.707ZM666.816 641.129L668.035 629.938H670.66L668.48 647H665.785L663.922 635.656L662.082 647H659.398L657.219 629.938H659.844L661.062 641.07L662.809 629.938H665.012L666.816 641.129ZM681.09 643.039H675.758L674.586 647H671.68L677.223 629.938H679.695L685.133 647H682.238L681.09 643.039ZM676.473 640.637H680.387L678.453 633.945L676.473 640.637ZM692.949 640.344H690.09V647H687.277V629.938H692.668C693.543 629.945 694.348 630.059 695.082 630.277C695.824 630.488 696.465 630.809 697.004 631.238C697.543 631.66 697.961 632.191 698.258 632.832C698.555 633.473 698.703 634.223 698.703 635.082C698.703 635.66 698.625 636.188 698.469 636.664C698.32 637.133 698.109 637.559 697.836 637.941C697.562 638.324 697.234 638.66 696.852 638.949C696.469 639.238 696.047 639.484 695.586 639.688L699.195 646.859V647H696.195L692.949 640.344ZM690.09 638.07H692.68C693.148 638.07 693.578 638.004 693.969 637.871C694.359 637.738 694.695 637.551 694.977 637.309C695.266 637.059 695.488 636.758 695.645 636.406C695.801 636.047 695.879 635.637 695.879 635.176C695.879 634.699 695.805 634.277 695.656 633.91C695.508 633.543 695.293 633.234 695.012 632.984C694.738 632.734 694.402 632.547 694.004 632.422C693.605 632.289 693.16 632.219 692.668 632.211H690.09V638.07ZM711.641 639.348H704.621V644.703H712.836V647H701.797V629.938H712.754V632.258H704.621V637.074H711.641V639.348ZM730.848 629.938H740.996V632.27H737.305V644.68H740.996V647H730.848V644.68H734.457V632.27H730.848V629.938ZM755.926 647H753.09L747.535 635.258L747.523 647H744.676V629.938H747.523L753.055 641.645L753.078 629.938H755.926V647ZM771.383 632.258H766.145V647H763.344V632.258H758.141V629.938H771.383V632.258ZM783.711 639.348H776.691V644.703H784.906V647H773.867V629.938H784.824V632.258H776.691V637.074H783.711V639.348ZM793.848 640.344H790.988V647H788.176V629.938H793.566C794.441 629.945 795.246 630.059 795.98 630.277C796.723 630.488 797.363 630.809 797.902 631.238C798.441 631.66 798.859 632.191 799.156 632.832C799.453 633.473 799.602 634.223 799.602 635.082C799.602 635.66 799.523 636.188 799.367 636.664C799.219 637.133 799.008 637.559 798.734 637.941C798.461 638.324 798.133 638.66 797.75 638.949C797.367 639.238 796.945 639.484 796.484 639.688L800.094 646.859V647H797.094L793.848 640.344ZM790.988 638.07H793.578C794.047 638.07 794.477 638.004 794.867 637.871C795.258 637.738 795.594 637.551 795.875 637.309C796.164 637.059 796.387 636.758 796.543 636.406C796.699 636.047 796.777 635.637 796.777 635.176C796.777 634.699 796.703 634.277 796.555 633.91C796.406 633.543 796.191 633.234 795.91 632.984C795.637 632.734 795.301 632.547 794.902 632.422C794.504 632.289 794.059 632.219 793.566 632.211H790.988V638.07ZM812.762 639.734H805.602V647H802.766V629.938H813.816V632.258H805.602V637.426H812.762V639.734ZM825.23 643.039H819.898L818.727 647H815.82L821.363 629.938H823.836L829.273 647H826.379L825.23 643.039ZM820.613 640.637H824.527L822.594 633.945L820.613 640.637ZM842.891 641.762C842.812 642.582 842.617 643.332 842.305 644.012C841.992 644.684 841.578 645.262 841.062 645.746C840.547 646.223 839.938 646.594 839.234 646.859C838.539 647.117 837.762 647.246 836.902 647.246C835.863 647.246 834.957 647.047 834.184 646.648C833.41 646.242 832.766 645.695 832.25 645.008C831.734 644.32 831.348 643.516 831.09 642.594C830.832 641.672 830.699 640.688 830.691 639.641V637.309C830.699 636.27 830.836 635.289 831.102 634.367C831.367 633.438 831.758 632.629 832.273 631.941C832.797 631.246 833.445 630.699 834.219 630.301C834.992 629.895 835.891 629.691 836.914 629.691C837.812 629.691 838.613 629.824 839.316 630.09C840.02 630.355 840.621 630.73 841.121 631.215C841.621 631.699 842.02 632.289 842.316 632.984C842.613 633.68 842.805 634.453 842.891 635.305H840.078C840.031 634.805 839.934 634.352 839.785 633.945C839.645 633.531 839.449 633.18 839.199 632.891C838.949 632.594 838.633 632.367 838.25 632.211C837.875 632.055 837.43 631.977 836.914 631.977C836.281 631.977 835.75 632.121 835.32 632.41C834.891 632.699 834.543 633.09 834.277 633.582C834.012 634.066 833.82 634.629 833.703 635.27C833.594 635.91 833.539 636.582 833.539 637.285V639.641C833.539 640.375 833.594 641.066 833.703 641.715C833.82 642.355 834.008 642.918 834.266 643.402C834.523 643.887 834.867 644.27 835.297 644.551C835.727 644.832 836.262 644.973 836.902 644.973C837.887 644.973 838.637 644.695 839.152 644.141C839.668 643.578 839.973 642.785 840.066 641.762H842.891ZM855.781 639.348H848.762V644.703H856.977V647H845.938V629.938H856.895V632.258H848.762V637.074H855.781V639.348ZM869.059 642.605C869.059 642.199 868.973 641.844 868.801 641.539C868.637 641.227 868.398 640.953 868.086 640.719C867.781 640.484 867.414 640.281 866.984 640.109C866.562 639.93 866.102 639.766 865.602 639.617C864.93 639.422 864.266 639.18 863.609 638.891C862.961 638.602 862.379 638.25 861.863 637.836C861.355 637.414 860.941 636.926 860.621 636.371C860.309 635.809 860.152 635.16 860.152 634.426C860.152 633.691 860.309 633.035 860.621 632.457C860.941 631.871 861.367 631.375 861.898 630.969C862.43 630.562 863.047 630.25 863.75 630.031C864.453 629.812 865.188 629.703 865.953 629.703C866.773 629.703 867.539 629.832 868.25 630.09C868.969 630.34 869.594 630.695 870.125 631.156C870.664 631.609 871.09 632.156 871.402 632.797C871.715 633.43 871.875 634.133 871.883 634.906H869.07C869.031 634.477 868.938 634.086 868.789 633.734C868.648 633.375 868.445 633.066 868.18 632.809C867.922 632.551 867.605 632.352 867.23 632.211C866.855 632.07 866.422 632 865.93 632C865.508 632 865.117 632.055 864.758 632.164C864.398 632.273 864.086 632.434 863.82 632.645C863.562 632.855 863.359 633.109 863.211 633.406C863.062 633.703 862.988 634.039 862.988 634.414C862.988 634.812 863.09 635.16 863.293 635.457C863.496 635.746 863.762 636 864.09 636.219C864.418 636.438 864.793 636.629 865.215 636.793C865.645 636.949 866.09 637.094 866.551 637.227C867.262 637.438 867.941 637.699 868.59 638.012C869.238 638.316 869.809 638.688 870.301 639.125C870.793 639.555 871.184 640.055 871.473 640.625C871.762 641.195 871.906 641.848 871.906 642.582C871.906 643.34 871.746 644.008 871.426 644.586C871.105 645.164 870.676 645.648 870.137 646.039C869.598 646.43 868.973 646.727 868.262 646.93C867.551 647.125 866.809 647.223 866.035 647.223C865.512 647.223 864.992 647.172 864.477 647.07C863.961 646.969 863.465 646.816 862.988 646.613C862.52 646.41 862.082 646.16 861.676 645.863C861.27 645.559 860.914 645.211 860.609 644.82C860.312 644.422 860.078 643.98 859.906 643.496C859.734 643.004 859.645 642.465 859.637 641.879H862.461C862.5 642.395 862.613 642.844 862.801 643.227C862.988 643.609 863.238 643.93 863.551 644.188C863.863 644.438 864.227 644.629 864.641 644.762C865.062 644.887 865.527 644.949 866.035 644.949C866.457 644.949 866.852 644.898 867.219 644.797C867.586 644.695 867.906 644.547 868.18 644.352C868.453 644.148 868.668 643.902 868.824 643.613C868.98 643.316 869.059 642.98 869.059 642.605Z" fill="#00979D"/>
<path d="M609.605 575.605C609.605 575.199 609.52 574.844 609.348 574.539C609.184 574.227 608.945 573.953 608.633 573.719C608.328 573.484 607.961 573.281 607.531 573.109C607.109 572.93 606.648 572.766 606.148 572.617C605.477 572.422 604.812 572.18 604.156 571.891C603.508 571.602 602.926 571.25 602.41 570.836C601.902 570.414 601.488 569.926 601.168 569.371C600.855 568.809 600.699 568.16 600.699 567.426C600.699 566.691 600.855 566.035 601.168 565.457C601.488 564.871 601.914 564.375 602.445 563.969C602.977 563.562 603.594 563.25 604.297 563.031C605 562.812 605.734 562.703 606.5 562.703C607.32 562.703 608.086 562.832 608.797 563.09C609.516 563.34 610.141 563.695 610.672 564.156C611.211 564.609 611.637 565.156 611.949 565.797C612.262 566.43 612.422 567.133 612.43 567.906H609.617C609.578 567.477 609.484 567.086 609.336 566.734C609.195 566.375 608.992 566.066 608.727 565.809C608.469 565.551 608.152 565.352 607.777 565.211C607.402 565.07 606.969 565 606.477 565C606.055 565 605.664 565.055 605.305 565.164C604.945 565.273 604.633 565.434 604.367 565.645C604.109 565.855 603.906 566.109 603.758 566.406C603.609 566.703 603.535 567.039 603.535 567.414C603.535 567.812 603.637 568.16 603.84 568.457C604.043 568.746 604.309 569 604.637 569.219C604.965 569.438 605.34 569.629 605.762 569.793C606.191 569.949 606.637 570.094 607.098 570.227C607.809 570.438 608.488 570.699 609.137 571.012C609.785 571.316 610.355 571.688 610.848 572.125C611.34 572.555 611.73 573.055 612.02 573.625C612.309 574.195 612.453 574.848 612.453 575.582C612.453 576.34 612.293 577.008 611.973 577.586C611.652 578.164 611.223 578.648 610.684 579.039C610.145 579.43 609.52 579.727 608.809 579.93C608.098 580.125 607.355 580.223 606.582 580.223C606.059 580.223 605.539 580.172 605.023 580.07C604.508 579.969 604.012 579.816 603.535 579.613C603.066 579.41 602.629 579.16 602.223 578.863C601.816 578.559 601.461 578.211 601.156 577.82C600.859 577.422 600.625 576.98 600.453 576.496C600.281 576.004 600.191 575.465 600.184 574.879H603.008C603.047 575.395 603.16 575.844 603.348 576.227C603.535 576.609 603.785 576.93 604.098 577.188C604.41 577.438 604.773 577.629 605.188 577.762C605.609 577.887 606.074 577.949 606.582 577.949C607.004 577.949 607.398 577.898 607.766 577.797C608.133 577.695 608.453 577.547 608.727 577.352C609 577.148 609.215 576.902 609.371 576.613C609.527 576.316 609.605 575.98 609.605 575.605ZM625.156 572.348H618.137V577.703H626.352V580H615.312V562.938H626.27V565.258H618.137V570.074H625.156V572.348ZM641.094 574.762C641.016 575.582 640.82 576.332 640.508 577.012C640.195 577.684 639.781 578.262 639.266 578.746C638.75 579.223 638.141 579.594 637.438 579.859C636.742 580.117 635.965 580.246 635.105 580.246C634.066 580.246 633.16 580.047 632.387 579.648C631.613 579.242 630.969 578.695 630.453 578.008C629.938 577.32 629.551 576.516 629.293 575.594C629.035 574.672 628.902 573.688 628.895 572.641V570.309C628.902 569.27 629.039 568.289 629.305 567.367C629.57 566.438 629.961 565.629 630.477 564.941C631 564.246 631.648 563.699 632.422 563.301C633.195 562.895 634.094 562.691 635.117 562.691C636.016 562.691 636.816 562.824 637.52 563.09C638.223 563.355 638.824 563.73 639.324 564.215C639.824 564.699 640.223 565.289 640.52 565.984C640.816 566.68 641.008 567.453 641.094 568.305H638.281C638.234 567.805 638.137 567.352 637.988 566.945C637.848 566.531 637.652 566.18 637.402 565.891C637.152 565.594 636.836 565.367 636.453 565.211C636.078 565.055 635.633 564.977 635.117 564.977C634.484 564.977 633.953 565.121 633.523 565.41C633.094 565.699 632.746 566.09 632.48 566.582C632.215 567.066 632.023 567.629 631.906 568.27C631.797 568.91 631.742 569.582 631.742 570.285V572.641C631.742 573.375 631.797 574.066 631.906 574.715C632.023 575.355 632.211 575.918 632.469 576.402C632.727 576.887 633.07 577.27 633.5 577.551C633.93 577.832 634.465 577.973 635.105 577.973C636.09 577.973 636.84 577.695 637.355 577.141C637.871 576.578 638.176 575.785 638.27 574.762H641.094ZM655.086 562.938L655.109 574.363C655.102 575.238 654.961 576.039 654.688 576.766C654.414 577.484 654.031 578.102 653.539 578.617C653.047 579.133 652.449 579.531 651.746 579.812C651.051 580.094 650.27 580.234 649.402 580.234C648.559 580.234 647.793 580.094 647.105 579.812C646.418 579.531 645.828 579.137 645.336 578.629C644.844 578.113 644.461 577.496 644.188 576.777C643.914 576.051 643.773 575.246 643.766 574.363L643.789 562.938H646.555L646.578 574.363C646.586 574.887 646.652 575.367 646.777 575.805C646.902 576.242 647.082 576.621 647.316 576.941C647.551 577.254 647.84 577.5 648.184 577.68C648.535 577.852 648.941 577.938 649.402 577.938C649.871 577.938 650.285 577.852 650.645 577.68C651.004 577.5 651.305 577.254 651.547 576.941C651.789 576.621 651.973 576.242 652.098 575.805C652.223 575.367 652.289 574.887 652.297 574.363L652.32 562.938H655.086ZM664.121 573.344H661.262V580H658.449V562.938H663.84C664.715 562.945 665.52 563.059 666.254 563.277C666.996 563.488 667.637 563.809 668.176 564.238C668.715 564.66 669.133 565.191 669.43 565.832C669.727 566.473 669.875 567.223 669.875 568.082C669.875 568.66 669.797 569.188 669.641 569.664C669.492 570.133 669.281 570.559 669.008 570.941C668.734 571.324 668.406 571.66 668.023 571.949C667.641 572.238 667.219 572.484 666.758 572.688L670.367 579.859V580H667.367L664.121 573.344ZM661.262 571.07H663.852C664.32 571.07 664.75 571.004 665.141 570.871C665.531 570.738 665.867 570.551 666.148 570.309C666.438 570.059 666.66 569.758 666.816 569.406C666.973 569.047 667.051 568.637 667.051 568.176C667.051 567.699 666.977 567.277 666.828 566.91C666.68 566.543 666.465 566.234 666.184 565.984C665.91 565.734 665.574 565.547 665.176 565.422C664.777 565.289 664.332 565.219 663.84 565.211H661.262V571.07ZM673.191 562.938H683.34V565.27H679.648V577.68H683.34V580H673.191V577.68H676.801V565.27H673.191V562.938ZM699.312 565.258H694.074V580H691.273V565.258H686.07V562.938H699.312V565.258ZM707.117 571.094L710.668 562.938H713.809L708.488 573.871L708.465 580H705.734L705.711 573.801L700.426 562.938H703.566L707.117 571.094ZM738.746 576.039H733.414L732.242 580H729.336L734.879 562.938H737.352L742.789 580H739.895L738.746 576.039ZM734.129 573.637H738.043L736.109 566.945L734.129 573.637ZM747.91 573.461V580H745.098V562.938H750.805C751.656 562.945 752.441 563.074 753.16 563.324C753.887 563.566 754.512 563.918 755.035 564.379C755.559 564.832 755.965 565.387 756.254 566.043C756.551 566.691 756.699 567.426 756.699 568.246C756.699 569.043 756.551 569.762 756.254 570.402C755.965 571.043 755.559 571.59 755.035 572.043C754.512 572.496 753.887 572.844 753.16 573.086C752.441 573.328 751.656 573.453 750.805 573.461H747.91ZM747.91 571.188H750.805C751.281 571.188 751.707 571.117 752.082 570.977C752.457 570.828 752.777 570.625 753.043 570.367C753.309 570.109 753.512 569.801 753.652 569.441C753.793 569.082 753.863 568.691 753.863 568.27C753.863 567.824 753.793 567.414 753.652 567.039C753.512 566.664 753.309 566.344 753.043 566.078C752.777 565.805 752.457 565.594 752.082 565.445C751.707 565.297 751.281 565.219 750.805 565.211H747.91V571.188ZM759.676 562.938H769.824V565.27H766.133V577.68H769.824V580H759.676V577.68H763.285V565.27H759.676V562.938ZM782.574 575.605C782.574 575.199 782.488 574.844 782.316 574.539C782.152 574.227 781.914 573.953 781.602 573.719C781.297 573.484 780.93 573.281 780.5 573.109C780.078 572.93 779.617 572.766 779.117 572.617C778.445 572.422 777.781 572.18 777.125 571.891C776.477 571.602 775.895 571.25 775.379 570.836C774.871 570.414 774.457 569.926 774.137 569.371C773.824 568.809 773.668 568.16 773.668 567.426C773.668 566.691 773.824 566.035 774.137 565.457C774.457 564.871 774.883 564.375 775.414 563.969C775.945 563.562 776.562 563.25 777.266 563.031C777.969 562.812 778.703 562.703 779.469 562.703C780.289 562.703 781.055 562.832 781.766 563.09C782.484 563.34 783.109 563.695 783.641 564.156C784.18 564.609 784.605 565.156 784.918 565.797C785.23 566.43 785.391 567.133 785.398 567.906H782.586C782.547 567.477 782.453 567.086 782.305 566.734C782.164 566.375 781.961 566.066 781.695 565.809C781.438 565.551 781.121 565.352 780.746 565.211C780.371 565.07 779.938 565 779.445 565C779.023 565 778.633 565.055 778.273 565.164C777.914 565.273 777.602 565.434 777.336 565.645C777.078 565.855 776.875 566.109 776.727 566.406C776.578 566.703 776.504 567.039 776.504 567.414C776.504 567.812 776.605 568.16 776.809 568.457C777.012 568.746 777.277 569 777.605 569.219C777.934 569.438 778.309 569.629 778.73 569.793C779.16 569.949 779.605 570.094 780.066 570.227C780.777 570.438 781.457 570.699 782.105 571.012C782.754 571.316 783.324 571.688 783.816 572.125C784.309 572.555 784.699 573.055 784.988 573.625C785.277 574.195 785.422 574.848 785.422 575.582C785.422 576.34 785.262 577.008 784.941 577.586C784.621 578.164 784.191 578.648 783.652 579.039C783.113 579.43 782.488 579.727 781.777 579.93C781.066 580.125 780.324 580.223 779.551 580.223C779.027 580.223 778.508 580.172 777.992 580.07C777.477 579.969 776.98 579.816 776.504 579.613C776.035 579.41 775.598 579.16 775.191 578.863C774.785 578.559 774.43 578.211 774.125 577.82C773.828 577.422 773.594 576.98 773.422 576.496C773.25 576.004 773.16 575.465 773.152 574.879H775.977C776.016 575.395 776.129 575.844 776.316 576.227C776.504 576.609 776.754 576.93 777.066 577.188C777.379 577.438 777.742 577.629 778.156 577.762C778.578 577.887 779.043 577.949 779.551 577.949C779.973 577.949 780.367 577.898 780.734 577.797C781.102 577.695 781.422 577.547 781.695 577.352C781.969 577.148 782.184 576.902 782.34 576.613C782.496 576.316 782.574 575.98 782.574 575.605Z" fill="#00979D"/>
<path d="M604.074 468.938L606.195 476.309L608.539 468.938H612.031V486H609.383V480.141L609.547 472.664L606.922 480.844H605.445L603.066 472.945L603.23 480.141V486H600.582V468.938H604.074ZM615.148 486V468.938H620.598C621.418 468.945 622.184 469.039 622.895 469.219C623.613 469.398 624.238 469.676 624.77 470.051C625.309 470.426 625.73 470.906 626.035 471.492C626.34 472.07 626.488 472.758 626.48 473.555C626.473 474.398 626.238 475.121 625.777 475.723C625.316 476.316 624.695 476.777 623.914 477.105C624.391 477.238 624.812 477.43 625.18 477.68C625.555 477.922 625.867 478.215 626.117 478.559C626.367 478.902 626.559 479.285 626.691 479.707C626.824 480.121 626.891 480.562 626.891 481.031C626.891 481.844 626.742 482.559 626.445 483.176C626.148 483.793 625.734 484.309 625.203 484.723C624.68 485.137 624.055 485.453 623.328 485.672C622.609 485.883 621.832 485.992 620.996 486H615.148ZM617.973 478.266V483.703H621.043C621.488 483.695 621.895 483.629 622.262 483.504C622.629 483.371 622.945 483.191 623.211 482.965C623.477 482.738 623.684 482.461 623.832 482.133C623.988 481.805 624.066 481.438 624.066 481.031C624.066 480.602 624 480.219 623.867 479.883C623.734 479.539 623.543 479.25 623.293 479.016C623.043 478.781 622.738 478.602 622.379 478.477C622.02 478.344 621.617 478.273 621.172 478.266H617.973ZM617.973 476.121H620.668C621.09 476.113 621.48 476.059 621.84 475.957C622.207 475.848 622.523 475.691 622.789 475.488C623.055 475.277 623.266 475.023 623.422 474.727C623.578 474.422 623.656 474.074 623.656 473.684C623.656 473.254 623.582 472.887 623.434 472.582C623.285 472.277 623.074 472.027 622.801 471.832C622.535 471.637 622.219 471.496 621.852 471.41C621.484 471.316 621.082 471.266 620.645 471.258H617.973V476.121ZM639.57 478.348H632.551V483.703H640.766V486H629.727V468.938H640.684V471.258H632.551V476.074H639.57V478.348ZM643.848 486V468.938H648.02C649.191 468.945 650.242 469.141 651.172 469.523C652.109 469.906 652.902 470.445 653.551 471.141C654.207 471.836 654.711 472.668 655.062 473.637C655.414 474.598 655.594 475.664 655.602 476.836V478.125C655.594 479.297 655.414 480.367 655.062 481.336C654.711 482.297 654.211 483.125 653.562 483.82C652.914 484.508 652.129 485.043 651.207 485.426C650.285 485.809 649.25 486 648.102 486H643.848ZM646.707 471.211V483.738H648.102C648.875 483.73 649.551 483.594 650.129 483.328C650.707 483.055 651.188 482.676 651.57 482.191C651.961 481.699 652.25 481.109 652.438 480.422C652.633 479.734 652.734 478.969 652.742 478.125V476.812C652.734 475.992 652.633 475.242 652.438 474.562C652.25 473.883 651.961 473.297 651.57 472.805C651.18 472.305 650.688 471.918 650.094 471.645C649.508 471.363 648.816 471.219 648.02 471.211H646.707ZM684.383 478.57C684.383 479.578 684.254 480.547 683.996 481.477C683.738 482.398 683.352 483.215 682.836 483.926C682.328 484.629 681.688 485.191 680.914 485.613C680.148 486.027 679.25 486.234 678.219 486.234C677.195 486.234 676.305 486.023 675.547 485.602C674.789 485.18 674.156 484.617 673.648 483.914C673.148 483.203 672.77 482.387 672.512 481.465C672.262 480.543 672.137 479.578 672.137 478.57V476.391C672.137 475.719 672.191 475.062 672.301 474.422C672.418 473.781 672.586 473.18 672.805 472.617C673.031 472.047 673.309 471.523 673.637 471.047C673.973 470.562 674.363 470.148 674.809 469.805C675.262 469.461 675.77 469.191 676.332 468.996C676.902 468.801 677.527 468.703 678.207 468.703C679.238 468.703 680.137 468.914 680.902 469.336C681.676 469.758 682.32 470.324 682.836 471.035C683.352 471.738 683.738 472.555 683.996 473.484C684.254 474.414 684.383 475.383 684.383 476.391V478.57ZM681.559 476.367C681.551 475.727 681.492 475.09 681.383 474.457C681.273 473.824 681.09 473.262 680.832 472.77C680.574 472.27 680.23 471.867 679.801 471.562C679.379 471.25 678.848 471.094 678.207 471.094C677.574 471.094 677.047 471.25 676.625 471.562C676.211 471.867 675.879 472.27 675.629 472.77C675.387 473.27 675.215 473.836 675.113 474.469C675.02 475.094 674.969 475.727 674.961 476.367V478.57C674.969 479.211 675.023 479.848 675.125 480.48C675.227 481.105 675.398 481.672 675.641 482.18C675.891 482.68 676.223 483.086 676.637 483.398C677.059 483.711 677.586 483.867 678.219 483.867C678.859 483.867 679.391 483.711 679.812 483.398C680.242 483.086 680.586 482.68 680.844 482.18C681.102 481.68 681.281 481.113 681.383 480.48C681.492 479.848 681.551 479.211 681.559 478.57V476.367ZM696.09 481.605C696.09 481.199 696.004 480.844 695.832 480.539C695.668 480.227 695.43 479.953 695.117 479.719C694.812 479.484 694.445 479.281 694.016 479.109C693.594 478.93 693.133 478.766 692.633 478.617C691.961 478.422 691.297 478.18 690.641 477.891C689.992 477.602 689.41 477.25 688.895 476.836C688.387 476.414 687.973 475.926 687.652 475.371C687.34 474.809 687.184 474.16 687.184 473.426C687.184 472.691 687.34 472.035 687.652 471.457C687.973 470.871 688.398 470.375 688.93 469.969C689.461 469.562 690.078 469.25 690.781 469.031C691.484 468.812 692.219 468.703 692.984 468.703C693.805 468.703 694.57 468.832 695.281 469.09C696 469.34 696.625 469.695 697.156 470.156C697.695 470.609 698.121 471.156 698.434 471.797C698.746 472.43 698.906 473.133 698.914 473.906H696.102C696.062 473.477 695.969 473.086 695.82 472.734C695.68 472.375 695.477 472.066 695.211 471.809C694.953 471.551 694.637 471.352 694.262 471.211C693.887 471.07 693.453 471 692.961 471C692.539 471 692.148 471.055 691.789 471.164C691.43 471.273 691.117 471.434 690.852 471.645C690.594 471.855 690.391 472.109 690.242 472.406C690.094 472.703 690.02 473.039 690.02 473.414C690.02 473.812 690.121 474.16 690.324 474.457C690.527 474.746 690.793 475 691.121 475.219C691.449 475.438 691.824 475.629 692.246 475.793C692.676 475.949 693.121 476.094 693.582 476.227C694.293 476.438 694.973 476.699 695.621 477.012C696.27 477.316 696.84 477.688 697.332 478.125C697.824 478.555 698.215 479.055 698.504 479.625C698.793 480.195 698.938 480.848 698.938 481.582C698.938 482.34 698.777 483.008 698.457 483.586C698.137 484.164 697.707 484.648 697.168 485.039C696.629 485.43 696.004 485.727 695.293 485.93C694.582 486.125 693.84 486.223 693.066 486.223C692.543 486.223 692.023 486.172 691.508 486.07C690.992 485.969 690.496 485.816 690.02 485.613C689.551 485.41 689.113 485.16 688.707 484.863C688.301 484.559 687.945 484.211 687.641 483.82C687.344 483.422 687.109 482.98 686.938 482.496C686.766 482.004 686.676 481.465 686.668 480.879H689.492C689.531 481.395 689.645 481.844 689.832 482.227C690.02 482.609 690.27 482.93 690.582 483.188C690.895 483.438 691.258 483.629 691.672 483.762C692.094 483.887 692.559 483.949 693.066 483.949C693.488 483.949 693.883 483.898 694.25 483.797C694.617 483.695 694.938 483.547 695.211 483.352C695.484 483.148 695.699 482.902 695.855 482.613C696.012 482.316 696.09 481.98 696.09 481.605ZM724.332 482.039H719L717.828 486H714.922L720.465 468.938H722.938L728.375 486H725.48L724.332 482.039ZM719.715 479.637H723.629L721.695 472.945L719.715 479.637ZM733.496 479.461V486H730.684V468.938H736.391C737.242 468.945 738.027 469.074 738.746 469.324C739.473 469.566 740.098 469.918 740.621 470.379C741.145 470.832 741.551 471.387 741.84 472.043C742.137 472.691 742.285 473.426 742.285 474.246C742.285 475.043 742.137 475.762 741.84 476.402C741.551 477.043 741.145 477.59 740.621 478.043C740.098 478.496 739.473 478.844 738.746 479.086C738.027 479.328 737.242 479.453 736.391 479.461H733.496ZM733.496 477.188H736.391C736.867 477.188 737.293 477.117 737.668 476.977C738.043 476.828 738.363 476.625 738.629 476.367C738.895 476.109 739.098 475.801 739.238 475.441C739.379 475.082 739.449 474.691 739.449 474.27C739.449 473.824 739.379 473.414 739.238 473.039C739.098 472.664 738.895 472.344 738.629 472.078C738.363 471.805 738.043 471.594 737.668 471.445C737.293 471.297 736.867 471.219 736.391 471.211H733.496V477.188ZM745.262 468.938H755.41V471.27H751.719V483.68H755.41V486H745.262V483.68H748.871V471.27H745.262V468.938Z" fill="#00979D"/>
<path d="M604.074 348.938L606.195 356.309L608.539 348.938H612.031V366H609.383V360.141L609.547 352.664L606.922 360.844H605.445L603.066 352.945L603.23 360.141V366H600.582V348.938H604.074ZM615.148 366V348.938H620.598C621.418 348.945 622.184 349.039 622.895 349.219C623.613 349.398 624.238 349.676 624.77 350.051C625.309 350.426 625.73 350.906 626.035 351.492C626.34 352.07 626.488 352.758 626.48 353.555C626.473 354.398 626.238 355.121 625.777 355.723C625.316 356.316 624.695 356.777 623.914 357.105C624.391 357.238 624.812 357.43 625.18 357.68C625.555 357.922 625.867 358.215 626.117 358.559C626.367 358.902 626.559 359.285 626.691 359.707C626.824 360.121 626.891 360.562 626.891 361.031C626.891 361.844 626.742 362.559 626.445 363.176C626.148 363.793 625.734 364.309 625.203 364.723C624.68 365.137 624.055 365.453 623.328 365.672C622.609 365.883 621.832 365.992 620.996 366H615.148ZM617.973 358.266V363.703H621.043C621.488 363.695 621.895 363.629 622.262 363.504C622.629 363.371 622.945 363.191 623.211 362.965C623.477 362.738 623.684 362.461 623.832 362.133C623.988 361.805 624.066 361.438 624.066 361.031C624.066 360.602 624 360.219 623.867 359.883C623.734 359.539 623.543 359.25 623.293 359.016C623.043 358.781 622.738 358.602 622.379 358.477C622.02 358.344 621.617 358.273 621.172 358.266H617.973ZM617.973 356.121H620.668C621.09 356.113 621.48 356.059 621.84 355.957C622.207 355.848 622.523 355.691 622.789 355.488C623.055 355.277 623.266 355.023 623.422 354.727C623.578 354.422 623.656 354.074 623.656 353.684C623.656 353.254 623.582 352.887 623.434 352.582C623.285 352.277 623.074 352.027 622.801 351.832C622.535 351.637 622.219 351.496 621.852 351.41C621.484 351.316 621.082 351.266 620.645 351.258H617.973V356.121ZM639.57 358.348H632.551V363.703H640.766V366H629.727V348.938H640.684V351.258H632.551V356.074H639.57V358.348ZM643.848 366V348.938H648.02C649.191 348.945 650.242 349.141 651.172 349.523C652.109 349.906 652.902 350.445 653.551 351.141C654.207 351.836 654.711 352.668 655.062 353.637C655.414 354.598 655.594 355.664 655.602 356.836V358.125C655.594 359.297 655.414 360.367 655.062 361.336C654.711 362.297 654.211 363.125 653.562 363.82C652.914 364.508 652.129 365.043 651.207 365.426C650.285 365.809 649.25 366 648.102 366H643.848ZM646.707 351.211V363.738H648.102C648.875 363.73 649.551 363.594 650.129 363.328C650.707 363.055 651.188 362.676 651.57 362.191C651.961 361.699 652.25 361.109 652.438 360.422C652.633 359.734 652.734 358.969 652.742 358.125V356.812C652.734 355.992 652.633 355.242 652.438 354.562C652.25 353.883 651.961 353.297 651.57 352.805C651.18 352.305 650.688 351.918 650.094 351.645C649.508 351.363 648.816 351.219 648.02 351.211H646.707ZM681.09 362.039H675.758L674.586 366H671.68L677.223 348.938H679.695L685.133 366H682.238L681.09 362.039ZM676.473 359.637H680.387L678.453 352.945L676.473 359.637ZM690.254 359.461V366H687.441V348.938H693.148C694 348.945 694.785 349.074 695.504 349.324C696.23 349.566 696.855 349.918 697.379 350.379C697.902 350.832 698.309 351.387 698.598 352.043C698.895 352.691 699.043 353.426 699.043 354.246C699.043 355.043 698.895 355.762 698.598 356.402C698.309 357.043 697.902 357.59 697.379 358.043C696.855 358.496 696.23 358.844 695.504 359.086C694.785 359.328 694 359.453 693.148 359.461H690.254ZM690.254 357.188H693.148C693.625 357.188 694.051 357.117 694.426 356.977C694.801 356.828 695.121 356.625 695.387 356.367C695.652 356.109 695.855 355.801 695.996 355.441C696.137 355.082 696.207 354.691 696.207 354.27C696.207 353.824 696.137 353.414 695.996 353.039C695.855 352.664 695.652 352.344 695.387 352.078C695.121 351.805 694.801 351.594 694.426 351.445C694.051 351.297 693.625 351.219 693.148 351.211H690.254V357.188ZM704.668 359.461V366H701.855V348.938H707.562C708.414 348.945 709.199 349.074 709.918 349.324C710.645 349.566 711.27 349.918 711.793 350.379C712.316 350.832 712.723 351.387 713.012 352.043C713.309 352.691 713.457 353.426 713.457 354.246C713.457 355.043 713.309 355.762 713.012 356.402C712.723 357.043 712.316 357.59 711.793 358.043C711.27 358.496 710.645 358.844 709.918 359.086C709.199 359.328 708.414 359.453 707.562 359.461H704.668ZM704.668 357.188H707.562C708.039 357.188 708.465 357.117 708.84 356.977C709.215 356.828 709.535 356.625 709.801 356.367C710.066 356.109 710.27 355.801 710.41 355.441C710.551 355.082 710.621 354.691 710.621 354.27C710.621 353.824 710.551 353.414 710.41 353.039C710.27 352.664 710.066 352.344 709.801 352.078C709.535 351.805 709.215 351.594 708.84 351.445C708.465 351.297 708.039 351.219 707.562 351.211H704.668V357.188ZM719.141 363.703H727.273V366H716.328V348.938H719.141V363.703ZM730.848 348.938H740.996V351.27H737.305V363.68H740.996V366H730.848V363.68H734.457V351.27H730.848V348.938ZM756.406 360.762C756.328 361.582 756.133 362.332 755.82 363.012C755.508 363.684 755.094 364.262 754.578 364.746C754.062 365.223 753.453 365.594 752.75 365.859C752.055 366.117 751.277 366.246 750.418 366.246C749.379 366.246 748.473 366.047 747.699 365.648C746.926 365.242 746.281 364.695 745.766 364.008C745.25 363.32 744.863 362.516 744.605 361.594C744.348 360.672 744.215 359.688 744.207 358.641V356.309C744.215 355.27 744.352 354.289 744.617 353.367C744.883 352.438 745.273 351.629 745.789 350.941C746.312 350.246 746.961 349.699 747.734 349.301C748.508 348.895 749.406 348.691 750.43 348.691C751.328 348.691 752.129 348.824 752.832 349.09C753.535 349.355 754.137 349.73 754.637 350.215C755.137 350.699 755.535 351.289 755.832 351.984C756.129 352.68 756.32 353.453 756.406 354.305H753.594C753.547 353.805 753.449 353.352 753.301 352.945C753.16 352.531 752.965 352.18 752.715 351.891C752.465 351.594 752.148 351.367 751.766 351.211C751.391 351.055 750.945 350.977 750.43 350.977C749.797 350.977 749.266 351.121 748.836 351.41C748.406 351.699 748.059 352.09 747.793 352.582C747.527 353.066 747.336 353.629 747.219 354.27C747.109 354.91 747.055 355.582 747.055 356.285V358.641C747.055 359.375 747.109 360.066 747.219 360.715C747.336 361.355 747.523 361.918 747.781 362.402C748.039 362.887 748.383 363.27 748.812 363.551C749.242 363.832 749.777 363.973 750.418 363.973C751.402 363.973 752.152 363.695 752.668 363.141C753.184 362.578 753.488 361.785 753.582 360.762H756.406ZM767.574 362.039H762.242L761.07 366H758.164L763.707 348.938H766.18L771.617 366H768.723L767.574 362.039ZM762.957 359.637H766.871L764.938 352.945L762.957 359.637ZM785.797 351.258H780.559V366H777.758V351.258H772.555V348.938H785.797V351.258ZM799.695 358.57C799.695 359.578 799.566 360.547 799.309 361.477C799.051 362.398 798.664 363.215 798.148 363.926C797.641 364.629 797 365.191 796.227 365.613C795.461 366.027 794.562 366.234 793.531 366.234C792.508 366.234 791.617 366.023 790.859 365.602C790.102 365.18 789.469 364.617 788.961 363.914C788.461 363.203 788.082 362.387 787.824 361.465C787.574 360.543 787.449 359.578 787.449 358.57V356.391C787.449 355.719 787.504 355.062 787.613 354.422C787.73 353.781 787.898 353.18 788.117 352.617C788.344 352.047 788.621 351.523 788.949 351.047C789.285 350.562 789.676 350.148 790.121 349.805C790.574 349.461 791.082 349.191 791.645 348.996C792.215 348.801 792.84 348.703 793.52 348.703C794.551 348.703 795.449 348.914 796.215 349.336C796.988 349.758 797.633 350.324 798.148 351.035C798.664 351.738 799.051 352.555 799.309 353.484C799.566 354.414 799.695 355.383 799.695 356.391V358.57ZM796.871 356.367C796.863 355.727 796.805 355.09 796.695 354.457C796.586 353.824 796.402 353.262 796.145 352.77C795.887 352.27 795.543 351.867 795.113 351.562C794.691 351.25 794.16 351.094 793.52 351.094C792.887 351.094 792.359 351.25 791.938 351.562C791.523 351.867 791.191 352.27 790.941 352.77C790.699 353.27 790.527 353.836 790.426 354.469C790.332 355.094 790.281 355.727 790.273 356.367V358.57C790.281 359.211 790.336 359.848 790.438 360.48C790.539 361.105 790.711 361.672 790.953 362.18C791.203 362.68 791.535 363.086 791.949 363.398C792.371 363.711 792.898 363.867 793.531 363.867C794.172 363.867 794.703 363.711 795.125 363.398C795.555 363.086 795.898 362.68 796.156 362.18C796.414 361.68 796.594 361.113 796.695 360.48C796.805 359.848 796.863 359.211 796.871 358.57V356.367ZM813.582 366H810.746L805.191 354.258L805.18 366H802.332V348.938H805.18L810.711 360.645L810.734 348.938H813.582V366ZM842.891 360.762C842.812 361.582 842.617 362.332 842.305 363.012C841.992 363.684 841.578 364.262 841.062 364.746C840.547 365.223 839.938 365.594 839.234 365.859C838.539 366.117 837.762 366.246 836.902 366.246C835.863 366.246 834.957 366.047 834.184 365.648C833.41 365.242 832.766 364.695 832.25 364.008C831.734 363.32 831.348 362.516 831.09 361.594C830.832 360.672 830.699 359.688 830.691 358.641V356.309C830.699 355.27 830.836 354.289 831.102 353.367C831.367 352.438 831.758 351.629 832.273 350.941C832.797 350.246 833.445 349.699 834.219 349.301C834.992 348.895 835.891 348.691 836.914 348.691C837.812 348.691 838.613 348.824 839.316 349.09C840.02 349.355 840.621 349.73 841.121 350.215C841.621 350.699 842.02 351.289 842.316 351.984C842.613 352.68 842.805 353.453 842.891 354.305H840.078C840.031 353.805 839.934 353.352 839.785 352.945C839.645 352.531 839.449 352.18 839.199 351.891C838.949 351.594 838.633 351.367 838.25 351.211C837.875 351.055 837.43 350.977 836.914 350.977C836.281 350.977 835.75 351.121 835.32 351.41C834.891 351.699 834.543 352.09 834.277 352.582C834.012 353.066 833.82 353.629 833.703 354.27C833.594 354.91 833.539 355.582 833.539 356.285V358.641C833.539 359.375 833.594 360.066 833.703 360.715C833.82 361.355 834.008 361.918 834.266 362.402C834.523 362.887 834.867 363.27 835.297 363.551C835.727 363.832 836.262 363.973 836.902 363.973C837.887 363.973 838.637 363.695 839.152 363.141C839.668 362.578 839.973 361.785 840.066 360.762H842.891ZM857.352 358.57C857.352 359.578 857.223 360.547 856.965 361.477C856.707 362.398 856.32 363.215 855.805 363.926C855.297 364.629 854.656 365.191 853.883 365.613C853.117 366.027 852.219 366.234 851.188 366.234C850.164 366.234 849.273 366.023 848.516 365.602C847.758 365.18 847.125 364.617 846.617 363.914C846.117 363.203 845.738 362.387 845.48 361.465C845.23 360.543 845.105 359.578 845.105 358.57V356.391C845.105 355.719 845.16 355.062 845.27 354.422C845.387 353.781 845.555 353.18 845.773 352.617C846 352.047 846.277 351.523 846.605 351.047C846.941 350.562 847.332 350.148 847.777 349.805C848.23 349.461 848.738 349.191 849.301 348.996C849.871 348.801 850.496 348.703 851.176 348.703C852.207 348.703 853.105 348.914 853.871 349.336C854.645 349.758 855.289 350.324 855.805 351.035C856.32 351.738 856.707 352.555 856.965 353.484C857.223 354.414 857.352 355.383 857.352 356.391V358.57ZM854.527 356.367C854.52 355.727 854.461 355.09 854.352 354.457C854.242 353.824 854.059 353.262 853.801 352.77C853.543 352.27 853.199 351.867 852.77 351.562C852.348 351.25 851.816 351.094 851.176 351.094C850.543 351.094 850.016 351.25 849.594 351.562C849.18 351.867 848.848 352.27 848.598 352.77C848.355 353.27 848.184 353.836 848.082 354.469C847.988 355.094 847.938 355.727 847.93 356.367V358.57C847.938 359.211 847.992 359.848 848.094 360.48C848.195 361.105 848.367 361.672 848.609 362.18C848.859 362.68 849.191 363.086 849.605 363.398C850.027 363.711 850.555 363.867 851.188 363.867C851.828 363.867 852.359 363.711 852.781 363.398C853.211 363.086 853.555 362.68 853.812 362.18C854.07 361.68 854.25 361.113 854.352 360.48C854.461 359.848 854.52 359.211 854.527 358.57V356.367ZM860.059 366V348.938H864.23C865.402 348.945 866.453 349.141 867.383 349.523C868.32 349.906 869.113 350.445 869.762 351.141C870.418 351.836 870.922 352.668 871.273 353.637C871.625 354.598 871.805 355.664 871.812 356.836V358.125C871.805 359.297 871.625 360.367 871.273 361.336C870.922 362.297 870.422 363.125 869.773 363.82C869.125 364.508 868.34 365.043 867.418 365.426C866.496 365.809 865.461 366 864.312 366H860.059ZM862.918 351.211V363.738H864.312C865.086 363.73 865.762 363.594 866.34 363.328C866.918 363.055 867.398 362.676 867.781 362.191C868.172 361.699 868.461 361.109 868.648 360.422C868.844 359.734 868.945 358.969 868.953 358.125V356.812C868.945 355.992 868.844 355.242 868.648 354.562C868.461 353.883 868.172 353.297 867.781 352.805C867.391 352.305 866.898 351.918 866.305 351.645C865.719 351.363 865.027 351.219 864.23 351.211H862.918ZM884.609 358.348H877.59V363.703H885.805V366H874.766V348.938H885.723V351.258H877.59V356.074H884.609V358.348Z" fill="#00979D"/>
<defs>
<clipPath id="clip0">
<rect x="243" y="178" width="337.2" height="545" fill="white"/>
</clipPath>
</defs>
</svg>
