<svg width="1092" height="846" viewBox="0 0 1092 846" fill="none" xmlns="http://www.w3.org/2000/svg">
<g clip-path="url(#clip0)">
<path d="M521.5 627.4L378.4 696.3C368.2 701.2 351.6 701.2 341.4 696.3L199.7 628.1C189.5 623.2 189.5 615.2 199.7 610.3L342.8 541.4C353 536.5 369.6 536.5 379.8 541.4L521.6 609.7C531.7 614.5 531.7 622.5 521.5 627.4Z" fill="#CEFAFC"/>
<path d="M498.2 624.1L375.8 683C367.1 687.2 352.9 687.2 344.1 683L222.9 624.7C214.2 620.5 214.2 613.7 222.9 609.5L345.3 550.6C354 546.4 368.2 546.4 377 550.6L498.2 609C506.9 613.1 506.9 619.9 498.2 624.1Z" stroke="#00979D" stroke-width="1.0001" stroke-miterlimit="10" stroke-dasharray="4.26 4.26"/>
<path d="M498.2 558.4L375.8 617.3C367.1 621.5 352.9 621.5 344.1 617.3L222.9 558.9C214.2 554.7 214.2 547.9 222.9 543.7L345.3 484.8C354 480.6 368.2 480.6 377 484.8L498.2 543.2C506.9 547.3 506.9 554.2 498.2 558.4Z" fill="#8DE6EA"/>
<path d="M498.2 465.1L375.8 524C367.1 528.2 352.9 528.2 344.1 524L222.9 465.7C214.2 461.5 214.2 454.7 222.9 450.5L345.3 391.6C354 387.4 368.2 387.4 377 391.6L498.2 450C506.9 454.1 506.9 460.9 498.2 465.1Z" fill="#4ECCD1"/>
<path d="M498.2 345.5L375.8 404.4C367.1 408.6 352.9 408.6 344.1 404.4L222.9 346.1C214.2 341.9 214.2 335.1 222.9 330.9L345.3 272C354 267.8 368.2 267.8 377 272L498.2 330.4C506.9 334.5 506.9 341.3 498.2 345.5Z" fill="#24AFB5"/>
<path d="M498.2 231.8L375.8 290.7C367.1 294.9 352.9 294.9 344.1 290.7L222.9 232.3C214.2 228.1 214.2 221.3 222.9 217.1L345.3 158.2C354 154 368.2 154 377 158.2L498.2 216.6C506.9 220.8 506.9 227.6 498.2 231.8Z" fill="#00979D"/>
<path d="M216 230.6V610.6" stroke="#00979D" stroke-width="1.0001" stroke-miterlimit="10" stroke-dasharray="4.25 4.25"/>
<path d="M361 294L361 686" stroke="#00979D" stroke-width="1.0001" stroke-miterlimit="10" stroke-dasharray="4.25 4.25"/>
<path d="M505.1 230.6V610.6" stroke="#00979D" stroke-width="1.0001" stroke-miterlimit="10" stroke-dasharray="4.25 4.25"/>
</g>
<path d="M558.02 225.039H552.688L551.516 229H548.609L554.152 211.938H556.625L562.062 229H559.168L558.02 225.039ZM553.402 222.637H557.316L555.383 215.945L553.402 222.637ZM569.879 222.344H567.02V229H564.207V211.938H569.598C570.473 211.945 571.277 212.059 572.012 212.277C572.754 212.488 573.395 212.809 573.934 213.238C574.473 213.66 574.891 214.191 575.188 214.832C575.484 215.473 575.633 216.223 575.633 217.082C575.633 217.66 575.555 218.188 575.398 218.664C575.25 219.133 575.039 219.559 574.766 219.941C574.492 220.324 574.164 220.66 573.781 220.949C573.398 221.238 572.977 221.484 572.516 221.688L576.125 228.859V229H573.125L569.879 222.344ZM567.02 220.07H569.609C570.078 220.07 570.508 220.004 570.898 219.871C571.289 219.738 571.625 219.551 571.906 219.309C572.195 219.059 572.418 218.758 572.574 218.406C572.73 218.047 572.809 217.637 572.809 217.176C572.809 216.699 572.734 216.277 572.586 215.91C572.438 215.543 572.223 215.234 571.941 214.984C571.668 214.734 571.332 214.547 570.934 214.422C570.535 214.289 570.09 214.219 569.598 214.211H567.02V220.07ZM578.434 229V211.938H582.605C583.777 211.945 584.828 212.141 585.758 212.523C586.695 212.906 587.488 213.445 588.137 214.141C588.793 214.836 589.297 215.668 589.648 216.637C590 217.598 590.18 218.664 590.188 219.836V221.125C590.18 222.297 590 223.367 589.648 224.336C589.297 225.297 588.797 226.125 588.148 226.82C587.5 227.508 586.715 228.043 585.793 228.426C584.871 228.809 583.836 229 582.688 229H578.434ZM581.293 214.211V226.738H582.688C583.461 226.73 584.137 226.594 584.715 226.328C585.293 226.055 585.773 225.676 586.156 225.191C586.547 224.699 586.836 224.109 587.023 223.422C587.219 222.734 587.32 221.969 587.328 221.125V219.812C587.32 218.992 587.219 218.242 587.023 217.562C586.836 216.883 586.547 216.297 586.156 215.805C585.766 215.305 585.273 214.918 584.68 214.645C584.094 214.363 583.402 214.219 582.605 214.211H581.293ZM604.086 211.938L604.109 223.363C604.102 224.238 603.961 225.039 603.688 225.766C603.414 226.484 603.031 227.102 602.539 227.617C602.047 228.133 601.449 228.531 600.746 228.812C600.051 229.094 599.27 229.234 598.402 229.234C597.559 229.234 596.793 229.094 596.105 228.812C595.418 228.531 594.828 228.137 594.336 227.629C593.844 227.113 593.461 226.496 593.188 225.777C592.914 225.051 592.773 224.246 592.766 223.363L592.789 211.938H595.555L595.578 223.363C595.586 223.887 595.652 224.367 595.777 224.805C595.902 225.242 596.082 225.621 596.316 225.941C596.551 226.254 596.84 226.5 597.184 226.68C597.535 226.852 597.941 226.938 598.402 226.938C598.871 226.938 599.285 226.852 599.645 226.68C600.004 226.5 600.305 226.254 600.547 225.941C600.789 225.621 600.973 225.242 601.098 224.805C601.223 224.367 601.289 223.887 601.297 223.363L601.32 211.938H604.086ZM607.777 211.938H617.926V214.27H614.234V226.68H617.926V229H607.777V226.68H611.387V214.27H607.777V211.938ZM632.855 229H630.02L624.465 217.258L624.453 229H621.605V211.938H624.453L629.984 223.645L630.008 211.938H632.855V229ZM647.797 221.57C647.797 222.578 647.668 223.547 647.41 224.477C647.152 225.398 646.766 226.215 646.25 226.926C645.742 227.629 645.102 228.191 644.328 228.613C643.562 229.027 642.664 229.234 641.633 229.234C640.609 229.234 639.719 229.023 638.961 228.602C638.203 228.18 637.57 227.617 637.062 226.914C636.562 226.203 636.184 225.387 635.926 224.465C635.676 223.543 635.551 222.578 635.551 221.57V219.391C635.551 218.719 635.605 218.062 635.715 217.422C635.832 216.781 636 216.18 636.219 215.617C636.445 215.047 636.723 214.523 637.051 214.047C637.387 213.562 637.777 213.148 638.223 212.805C638.676 212.461 639.184 212.191 639.746 211.996C640.316 211.801 640.941 211.703 641.621 211.703C642.652 211.703 643.551 211.914 644.316 212.336C645.09 212.758 645.734 213.324 646.25 214.035C646.766 214.738 647.152 215.555 647.41 216.484C647.668 217.414 647.797 218.383 647.797 219.391V221.57ZM644.973 219.367C644.965 218.727 644.906 218.09 644.797 217.457C644.688 216.824 644.504 216.262 644.246 215.77C643.988 215.27 643.645 214.867 643.215 214.562C642.793 214.25 642.262 214.094 641.621 214.094C640.988 214.094 640.461 214.25 640.039 214.562C639.625 214.867 639.293 215.27 639.043 215.77C638.801 216.27 638.629 216.836 638.527 217.469C638.434 218.094 638.383 218.727 638.375 219.367V221.57C638.383 222.211 638.438 222.848 638.539 223.48C638.641 224.105 638.812 224.672 639.055 225.18C639.305 225.68 639.637 226.086 640.051 226.398C640.473 226.711 641 226.867 641.633 226.867C642.273 226.867 642.805 226.711 643.227 226.398C643.656 226.086 644 225.68 644.258 225.18C644.516 224.68 644.695 224.113 644.797 223.48C644.906 222.848 644.965 222.211 644.973 221.57V219.367ZM676.578 223.762C676.5 224.582 676.305 225.332 675.992 226.012C675.68 226.684 675.266 227.262 674.75 227.746C674.234 228.223 673.625 228.594 672.922 228.859C672.227 229.117 671.449 229.246 670.59 229.246C669.551 229.246 668.645 229.047 667.871 228.648C667.098 228.242 666.453 227.695 665.938 227.008C665.422 226.32 665.035 225.516 664.777 224.594C664.52 223.672 664.387 222.688 664.379 221.641V219.309C664.387 218.27 664.523 217.289 664.789 216.367C665.055 215.438 665.445 214.629 665.961 213.941C666.484 213.246 667.133 212.699 667.906 212.301C668.68 211.895 669.578 211.691 670.602 211.691C671.5 211.691 672.301 211.824 673.004 212.09C673.707 212.355 674.309 212.73 674.809 213.215C675.309 213.699 675.707 214.289 676.004 214.984C676.301 215.68 676.492 216.453 676.578 217.305H673.766C673.719 216.805 673.621 216.352 673.473 215.945C673.332 215.531 673.137 215.18 672.887 214.891C672.637 214.594 672.32 214.367 671.938 214.211C671.562 214.055 671.117 213.977 670.602 213.977C669.969 213.977 669.438 214.121 669.008 214.41C668.578 214.699 668.23 215.09 667.965 215.582C667.699 216.066 667.508 216.629 667.391 217.27C667.281 217.91 667.227 218.582 667.227 219.285V221.641C667.227 222.375 667.281 223.066 667.391 223.715C667.508 224.355 667.695 224.918 667.953 225.402C668.211 225.887 668.555 226.27 668.984 226.551C669.414 226.832 669.949 226.973 670.59 226.973C671.574 226.973 672.324 226.695 672.84 226.141C673.355 225.578 673.66 224.785 673.754 223.762H676.578ZM691.039 221.57C691.039 222.578 690.91 223.547 690.652 224.477C690.395 225.398 690.008 226.215 689.492 226.926C688.984 227.629 688.344 228.191 687.57 228.613C686.805 229.027 685.906 229.234 684.875 229.234C683.852 229.234 682.961 229.023 682.203 228.602C681.445 228.18 680.812 227.617 680.305 226.914C679.805 226.203 679.426 225.387 679.168 224.465C678.918 223.543 678.793 222.578 678.793 221.57V219.391C678.793 218.719 678.848 218.062 678.957 217.422C679.074 216.781 679.242 216.18 679.461 215.617C679.688 215.047 679.965 214.523 680.293 214.047C680.629 213.562 681.02 213.148 681.465 212.805C681.918 212.461 682.426 212.191 682.988 211.996C683.559 211.801 684.184 211.703 684.863 211.703C685.895 211.703 686.793 211.914 687.559 212.336C688.332 212.758 688.977 213.324 689.492 214.035C690.008 214.738 690.395 215.555 690.652 216.484C690.91 217.414 691.039 218.383 691.039 219.391V221.57ZM688.215 219.367C688.207 218.727 688.148 218.09 688.039 217.457C687.93 216.824 687.746 216.262 687.488 215.77C687.23 215.27 686.887 214.867 686.457 214.562C686.035 214.25 685.504 214.094 684.863 214.094C684.23 214.094 683.703 214.25 683.281 214.562C682.867 214.867 682.535 215.27 682.285 215.77C682.043 216.27 681.871 216.836 681.77 217.469C681.676 218.094 681.625 218.727 681.617 219.367V221.57C681.625 222.211 681.68 222.848 681.781 223.48C681.883 224.105 682.055 224.672 682.297 225.18C682.547 225.68 682.879 226.086 683.293 226.398C683.715 226.711 684.242 226.867 684.875 226.867C685.516 226.867 686.047 226.711 686.469 226.398C686.898 226.086 687.242 225.68 687.5 225.18C687.758 224.68 687.938 224.113 688.039 223.48C688.148 222.848 688.207 222.211 688.215 221.57V219.367ZM693.746 229V211.938H697.918C699.09 211.945 700.141 212.141 701.07 212.523C702.008 212.906 702.801 213.445 703.449 214.141C704.105 214.836 704.609 215.668 704.961 216.637C705.312 217.598 705.492 218.664 705.5 219.836V221.125C705.492 222.297 705.312 223.367 704.961 224.336C704.609 225.297 704.109 226.125 703.461 226.82C702.812 227.508 702.027 228.043 701.105 228.426C700.184 228.809 699.148 229 698 229H693.746ZM696.605 214.211V226.738H698C698.773 226.73 699.449 226.594 700.027 226.328C700.605 226.055 701.086 225.676 701.469 225.191C701.859 224.699 702.148 224.109 702.336 223.422C702.531 222.734 702.633 221.969 702.641 221.125V219.812C702.633 218.992 702.531 218.242 702.336 217.562C702.148 216.883 701.859 216.297 701.469 215.805C701.078 215.305 700.586 214.918 699.992 214.645C699.406 214.363 698.715 214.219 697.918 214.211H696.605ZM718.297 221.348H711.277V226.703H719.492V229H708.453V211.938H719.41V214.258H711.277V219.074H718.297V221.348Z" fill="#00979D"/>
<path d="M560.797 624H558.055V616.383H552.254V624H549.523V606.938H552.254V614.074H558.055V606.938H560.797V624ZM572.434 620.039H567.102L565.93 624H563.023L568.566 606.938H571.039L576.477 624H573.582L572.434 620.039ZM567.816 617.637H571.73L569.797 610.945L567.816 617.637ZM584.293 617.344H581.434V624H578.621V606.938H584.012C584.887 606.945 585.691 607.059 586.426 607.277C587.168 607.488 587.809 607.809 588.348 608.238C588.887 608.66 589.305 609.191 589.602 609.832C589.898 610.473 590.047 611.223 590.047 612.082C590.047 612.66 589.969 613.188 589.812 613.664C589.664 614.133 589.453 614.559 589.18 614.941C588.906 615.324 588.578 615.66 588.195 615.949C587.812 616.238 587.391 616.484 586.93 616.688L590.539 623.859V624H587.539L584.293 617.344ZM581.434 615.07H584.023C584.492 615.07 584.922 615.004 585.312 614.871C585.703 614.738 586.039 614.551 586.32 614.309C586.609 614.059 586.832 613.758 586.988 613.406C587.145 613.047 587.223 612.637 587.223 612.176C587.223 611.699 587.148 611.277 587 610.91C586.852 610.543 586.637 610.234 586.355 609.984C586.082 609.734 585.746 609.547 585.348 609.422C584.949 609.289 584.504 609.219 584.012 609.211H581.434V615.07ZM592.848 624V606.938H597.02C598.191 606.945 599.242 607.141 600.172 607.523C601.109 607.906 601.902 608.445 602.551 609.141C603.207 609.836 603.711 610.668 604.062 611.637C604.414 612.598 604.594 613.664 604.602 614.836V616.125C604.594 617.297 604.414 618.367 604.062 619.336C603.711 620.297 603.211 621.125 602.562 621.82C601.914 622.508 601.129 623.043 600.207 623.426C599.285 623.809 598.25 624 597.102 624H592.848ZM595.707 609.211V621.738H597.102C597.875 621.73 598.551 621.594 599.129 621.328C599.707 621.055 600.188 620.676 600.57 620.191C600.961 619.699 601.25 619.109 601.438 618.422C601.633 617.734 601.734 616.969 601.742 616.125V614.812C601.734 613.992 601.633 613.242 601.438 612.562C601.25 611.883 600.961 611.297 600.57 610.805C600.18 610.305 599.688 609.918 599.094 609.645C598.508 609.363 597.816 609.219 597.02 609.211H595.707ZM615.816 618.129L617.035 606.938H619.66L617.48 624H614.785L612.922 612.656L611.082 624H608.398L606.219 606.938H608.844L610.062 618.07L611.809 606.938H614.012L615.816 618.129ZM630.09 620.039H624.758L623.586 624H620.68L626.223 606.938H628.695L634.133 624H631.238L630.09 620.039ZM625.473 617.637H629.387L627.453 610.945L625.473 617.637ZM641.949 617.344H639.09V624H636.277V606.938H641.668C642.543 606.945 643.348 607.059 644.082 607.277C644.824 607.488 645.465 607.809 646.004 608.238C646.543 608.66 646.961 609.191 647.258 609.832C647.555 610.473 647.703 611.223 647.703 612.082C647.703 612.66 647.625 613.188 647.469 613.664C647.32 614.133 647.109 614.559 646.836 614.941C646.562 615.324 646.234 615.66 645.852 615.949C645.469 616.238 645.047 616.484 644.586 616.688L648.195 623.859V624H645.195L641.949 617.344ZM639.09 615.07H641.68C642.148 615.07 642.578 615.004 642.969 614.871C643.359 614.738 643.695 614.551 643.977 614.309C644.266 614.059 644.488 613.758 644.645 613.406C644.801 613.047 644.879 612.637 644.879 612.176C644.879 611.699 644.805 611.277 644.656 610.91C644.508 610.543 644.293 610.234 644.012 609.984C643.738 609.734 643.402 609.547 643.004 609.422C642.605 609.289 642.16 609.219 641.668 609.211H639.09V615.07ZM660.641 616.348H653.621V621.703H661.836V624H650.797V606.938H661.754V609.258H653.621V614.074H660.641V616.348ZM679.848 606.938H689.996V609.27H686.305V621.68H689.996V624H679.848V621.68H683.457V609.27H679.848V606.938ZM704.926 624H702.09L696.535 612.258L696.523 624H693.676V606.938H696.523L702.055 618.645L702.078 606.938H704.926V624ZM720.383 609.258H715.145V624H712.344V609.258H707.141V606.938H720.383V609.258ZM732.711 616.348H725.691V621.703H733.906V624H722.867V606.938H733.824V609.258H725.691V614.074H732.711V616.348ZM742.848 617.344H739.988V624H737.176V606.938H742.566C743.441 606.945 744.246 607.059 744.98 607.277C745.723 607.488 746.363 607.809 746.902 608.238C747.441 608.66 747.859 609.191 748.156 609.832C748.453 610.473 748.602 611.223 748.602 612.082C748.602 612.66 748.523 613.188 748.367 613.664C748.219 614.133 748.008 614.559 747.734 614.941C747.461 615.324 747.133 615.66 746.75 615.949C746.367 616.238 745.945 616.484 745.484 616.688L749.094 623.859V624H746.094L742.848 617.344ZM739.988 615.07H742.578C743.047 615.07 743.477 615.004 743.867 614.871C744.258 614.738 744.594 614.551 744.875 614.309C745.164 614.059 745.387 613.758 745.543 613.406C745.699 613.047 745.777 612.637 745.777 612.176C745.777 611.699 745.703 611.277 745.555 610.91C745.406 610.543 745.191 610.234 744.91 609.984C744.637 609.734 744.301 609.547 743.902 609.422C743.504 609.289 743.059 609.219 742.566 609.211H739.988V615.07ZM761.762 616.734H754.602V624H751.766V606.938H762.816V609.258H754.602V614.426H761.762V616.734ZM774.23 620.039H768.898L767.727 624H764.82L770.363 606.938H772.836L778.273 624H775.379L774.23 620.039ZM769.613 617.637H773.527L771.594 610.945L769.613 617.637ZM791.891 618.762C791.812 619.582 791.617 620.332 791.305 621.012C790.992 621.684 790.578 622.262 790.062 622.746C789.547 623.223 788.938 623.594 788.234 623.859C787.539 624.117 786.762 624.246 785.902 624.246C784.863 624.246 783.957 624.047 783.184 623.648C782.41 623.242 781.766 622.695 781.25 622.008C780.734 621.32 780.348 620.516 780.09 619.594C779.832 618.672 779.699 617.688 779.691 616.641V614.309C779.699 613.27 779.836 612.289 780.102 611.367C780.367 610.438 780.758 609.629 781.273 608.941C781.797 608.246 782.445 607.699 783.219 607.301C783.992 606.895 784.891 606.691 785.914 606.691C786.812 606.691 787.613 606.824 788.316 607.09C789.02 607.355 789.621 607.73 790.121 608.215C790.621 608.699 791.02 609.289 791.316 609.984C791.613 610.68 791.805 611.453 791.891 612.305H789.078C789.031 611.805 788.934 611.352 788.785 610.945C788.645 610.531 788.449 610.18 788.199 609.891C787.949 609.594 787.633 609.367 787.25 609.211C786.875 609.055 786.43 608.977 785.914 608.977C785.281 608.977 784.75 609.121 784.32 609.41C783.891 609.699 783.543 610.09 783.277 610.582C783.012 611.066 782.82 611.629 782.703 612.27C782.594 612.91 782.539 613.582 782.539 614.285V616.641C782.539 617.375 782.594 618.066 782.703 618.715C782.82 619.355 783.008 619.918 783.266 620.402C783.523 620.887 783.867 621.27 784.297 621.551C784.727 621.832 785.262 621.973 785.902 621.973C786.887 621.973 787.637 621.695 788.152 621.141C788.668 620.578 788.973 619.785 789.066 618.762H791.891ZM804.781 616.348H797.762V621.703H805.977V624H794.938V606.938H805.895V609.258H797.762V614.074H804.781V616.348ZM818.059 619.605C818.059 619.199 817.973 618.844 817.801 618.539C817.637 618.227 817.398 617.953 817.086 617.719C816.781 617.484 816.414 617.281 815.984 617.109C815.562 616.93 815.102 616.766 814.602 616.617C813.93 616.422 813.266 616.18 812.609 615.891C811.961 615.602 811.379 615.25 810.863 614.836C810.355 614.414 809.941 613.926 809.621 613.371C809.309 612.809 809.152 612.16 809.152 611.426C809.152 610.691 809.309 610.035 809.621 609.457C809.941 608.871 810.367 608.375 810.898 607.969C811.43 607.562 812.047 607.25 812.75 607.031C813.453 606.812 814.188 606.703 814.953 606.703C815.773 606.703 816.539 606.832 817.25 607.09C817.969 607.34 818.594 607.695 819.125 608.156C819.664 608.609 820.09 609.156 820.402 609.797C820.715 610.43 820.875 611.133 820.883 611.906H818.07C818.031 611.477 817.938 611.086 817.789 610.734C817.648 610.375 817.445 610.066 817.18 609.809C816.922 609.551 816.605 609.352 816.23 609.211C815.855 609.07 815.422 609 814.93 609C814.508 609 814.117 609.055 813.758 609.164C813.398 609.273 813.086 609.434 812.82 609.645C812.562 609.855 812.359 610.109 812.211 610.406C812.062 610.703 811.988 611.039 811.988 611.414C811.988 611.812 812.09 612.16 812.293 612.457C812.496 612.746 812.762 613 813.09 613.219C813.418 613.438 813.793 613.629 814.215 613.793C814.645 613.949 815.09 614.094 815.551 614.227C816.262 614.438 816.941 614.699 817.59 615.012C818.238 615.316 818.809 615.688 819.301 616.125C819.793 616.555 820.184 617.055 820.473 617.625C820.762 618.195 820.906 618.848 820.906 619.582C820.906 620.34 820.746 621.008 820.426 621.586C820.105 622.164 819.676 622.648 819.137 623.039C818.598 623.43 817.973 623.727 817.262 623.93C816.551 624.125 815.809 624.223 815.035 624.223C814.512 624.223 813.992 624.172 813.477 624.07C812.961 623.969 812.465 623.816 811.988 623.613C811.52 623.41 811.082 623.16 810.676 622.863C810.27 622.559 809.914 622.211 809.609 621.82C809.312 621.422 809.078 620.98 808.906 620.496C808.734 620.004 808.645 619.465 808.637 618.879H811.461C811.5 619.395 811.613 619.844 811.801 620.227C811.988 620.609 812.238 620.93 812.551 621.188C812.863 621.438 813.227 621.629 813.641 621.762C814.062 621.887 814.527 621.949 815.035 621.949C815.457 621.949 815.852 621.898 816.219 621.797C816.586 621.695 816.906 621.547 817.18 621.352C817.453 621.148 817.668 620.902 817.824 620.613C817.98 620.316 818.059 619.98 818.059 619.605Z" fill="#00979D"/>
<path d="M558.605 552.605C558.605 552.199 558.52 551.844 558.348 551.539C558.184 551.227 557.945 550.953 557.633 550.719C557.328 550.484 556.961 550.281 556.531 550.109C556.109 549.93 555.648 549.766 555.148 549.617C554.477 549.422 553.812 549.18 553.156 548.891C552.508 548.602 551.926 548.25 551.41 547.836C550.902 547.414 550.488 546.926 550.168 546.371C549.855 545.809 549.699 545.16 549.699 544.426C549.699 543.691 549.855 543.035 550.168 542.457C550.488 541.871 550.914 541.375 551.445 540.969C551.977 540.562 552.594 540.25 553.297 540.031C554 539.812 554.734 539.703 555.5 539.703C556.32 539.703 557.086 539.832 557.797 540.09C558.516 540.34 559.141 540.695 559.672 541.156C560.211 541.609 560.637 542.156 560.949 542.797C561.262 543.43 561.422 544.133 561.43 544.906H558.617C558.578 544.477 558.484 544.086 558.336 543.734C558.195 543.375 557.992 543.066 557.727 542.809C557.469 542.551 557.152 542.352 556.777 542.211C556.402 542.07 555.969 542 555.477 542C555.055 542 554.664 542.055 554.305 542.164C553.945 542.273 553.633 542.434 553.367 542.645C553.109 542.855 552.906 543.109 552.758 543.406C552.609 543.703 552.535 544.039 552.535 544.414C552.535 544.812 552.637 545.16 552.84 545.457C553.043 545.746 553.309 546 553.637 546.219C553.965 546.438 554.34 546.629 554.762 546.793C555.191 546.949 555.637 547.094 556.098 547.227C556.809 547.438 557.488 547.699 558.137 548.012C558.785 548.316 559.355 548.688 559.848 549.125C560.34 549.555 560.73 550.055 561.02 550.625C561.309 551.195 561.453 551.848 561.453 552.582C561.453 553.34 561.293 554.008 560.973 554.586C560.652 555.164 560.223 555.648 559.684 556.039C559.145 556.43 558.52 556.727 557.809 556.93C557.098 557.125 556.355 557.223 555.582 557.223C555.059 557.223 554.539 557.172 554.023 557.07C553.508 556.969 553.012 556.816 552.535 556.613C552.066 556.41 551.629 556.16 551.223 555.863C550.816 555.559 550.461 555.211 550.156 554.82C549.859 554.422 549.625 553.98 549.453 553.496C549.281 553.004 549.191 552.465 549.184 551.879H552.008C552.047 552.395 552.16 552.844 552.348 553.227C552.535 553.609 552.785 553.93 553.098 554.188C553.41 554.438 553.773 554.629 554.188 554.762C554.609 554.887 555.074 554.949 555.582 554.949C556.004 554.949 556.398 554.898 556.766 554.797C557.133 554.695 557.453 554.547 557.727 554.352C558 554.148 558.215 553.902 558.371 553.613C558.527 553.316 558.605 552.98 558.605 552.605ZM574.156 549.348H567.137V554.703H575.352V557H564.312V539.938H575.27V542.258H567.137V547.074H574.156V549.348ZM590.094 551.762C590.016 552.582 589.82 553.332 589.508 554.012C589.195 554.684 588.781 555.262 588.266 555.746C587.75 556.223 587.141 556.594 586.438 556.859C585.742 557.117 584.965 557.246 584.105 557.246C583.066 557.246 582.16 557.047 581.387 556.648C580.613 556.242 579.969 555.695 579.453 555.008C578.938 554.32 578.551 553.516 578.293 552.594C578.035 551.672 577.902 550.688 577.895 549.641V547.309C577.902 546.27 578.039 545.289 578.305 544.367C578.57 543.438 578.961 542.629 579.477 541.941C580 541.246 580.648 540.699 581.422 540.301C582.195 539.895 583.094 539.691 584.117 539.691C585.016 539.691 585.816 539.824 586.52 540.09C587.223 540.355 587.824 540.73 588.324 541.215C588.824 541.699 589.223 542.289 589.52 542.984C589.816 543.68 590.008 544.453 590.094 545.305H587.281C587.234 544.805 587.137 544.352 586.988 543.945C586.848 543.531 586.652 543.18 586.402 542.891C586.152 542.594 585.836 542.367 585.453 542.211C585.078 542.055 584.633 541.977 584.117 541.977C583.484 541.977 582.953 542.121 582.523 542.41C582.094 542.699 581.746 543.09 581.48 543.582C581.215 544.066 581.023 544.629 580.906 545.27C580.797 545.91 580.742 546.582 580.742 547.285V549.641C580.742 550.375 580.797 551.066 580.906 551.715C581.023 552.355 581.211 552.918 581.469 553.402C581.727 553.887 582.07 554.27 582.5 554.551C582.93 554.832 583.465 554.973 584.105 554.973C585.09 554.973 585.84 554.695 586.355 554.141C586.871 553.578 587.176 552.785 587.27 551.762H590.094ZM604.086 539.938L604.109 551.363C604.102 552.238 603.961 553.039 603.688 553.766C603.414 554.484 603.031 555.102 602.539 555.617C602.047 556.133 601.449 556.531 600.746 556.812C600.051 557.094 599.27 557.234 598.402 557.234C597.559 557.234 596.793 557.094 596.105 556.812C595.418 556.531 594.828 556.137 594.336 555.629C593.844 555.113 593.461 554.496 593.188 553.777C592.914 553.051 592.773 552.246 592.766 551.363L592.789 539.938H595.555L595.578 551.363C595.586 551.887 595.652 552.367 595.777 552.805C595.902 553.242 596.082 553.621 596.316 553.941C596.551 554.254 596.84 554.5 597.184 554.68C597.535 554.852 597.941 554.938 598.402 554.938C598.871 554.938 599.285 554.852 599.645 554.68C600.004 554.5 600.305 554.254 600.547 553.941C600.789 553.621 600.973 553.242 601.098 552.805C601.223 552.367 601.289 551.887 601.297 551.363L601.32 539.938H604.086ZM613.121 550.344H610.262V557H607.449V539.938H612.84C613.715 539.945 614.52 540.059 615.254 540.277C615.996 540.488 616.637 540.809 617.176 541.238C617.715 541.66 618.133 542.191 618.43 542.832C618.727 543.473 618.875 544.223 618.875 545.082C618.875 545.66 618.797 546.188 618.641 546.664C618.492 547.133 618.281 547.559 618.008 547.941C617.734 548.324 617.406 548.66 617.023 548.949C616.641 549.238 616.219 549.484 615.758 549.688L619.367 556.859V557H616.367L613.121 550.344ZM610.262 548.07H612.852C613.32 548.07 613.75 548.004 614.141 547.871C614.531 547.738 614.867 547.551 615.148 547.309C615.438 547.059 615.66 546.758 615.816 546.406C615.973 546.047 616.051 545.637 616.051 545.176C616.051 544.699 615.977 544.277 615.828 543.91C615.68 543.543 615.465 543.234 615.184 542.984C614.91 542.734 614.574 542.547 614.176 542.422C613.777 542.289 613.332 542.219 612.84 542.211H610.262V548.07ZM622.191 539.938H632.34V542.27H628.648V554.68H632.34V557H622.191V554.68H625.801V542.27H622.191V539.938ZM648.312 542.258H643.074V557H640.273V542.258H635.07V539.938H648.312V542.258ZM656.117 548.094L659.668 539.938H662.809L657.488 550.871L657.465 557H654.734L654.711 550.801L649.426 539.938H652.566L656.117 548.094ZM687.746 553.039H682.414L681.242 557H678.336L683.879 539.938H686.352L691.789 557H688.895L687.746 553.039ZM683.129 550.637H687.043L685.109 543.945L683.129 550.637ZM696.91 550.461V557H694.098V539.938H699.805C700.656 539.945 701.441 540.074 702.16 540.324C702.887 540.566 703.512 540.918 704.035 541.379C704.559 541.832 704.965 542.387 705.254 543.043C705.551 543.691 705.699 544.426 705.699 545.246C705.699 546.043 705.551 546.762 705.254 547.402C704.965 548.043 704.559 548.59 704.035 549.043C703.512 549.496 702.887 549.844 702.16 550.086C701.441 550.328 700.656 550.453 699.805 550.461H696.91ZM696.91 548.188H699.805C700.281 548.188 700.707 548.117 701.082 547.977C701.457 547.828 701.777 547.625 702.043 547.367C702.309 547.109 702.512 546.801 702.652 546.441C702.793 546.082 702.863 545.691 702.863 545.27C702.863 544.824 702.793 544.414 702.652 544.039C702.512 543.664 702.309 543.344 702.043 543.078C701.777 542.805 701.457 542.594 701.082 542.445C700.707 542.297 700.281 542.219 699.805 542.211H696.91V548.188ZM708.676 539.938H718.824V542.27H715.133V554.68H718.824V557H708.676V554.68H712.285V542.27H708.676V539.938ZM731.574 552.605C731.574 552.199 731.488 551.844 731.316 551.539C731.152 551.227 730.914 550.953 730.602 550.719C730.297 550.484 729.93 550.281 729.5 550.109C729.078 549.93 728.617 549.766 728.117 549.617C727.445 549.422 726.781 549.18 726.125 548.891C725.477 548.602 724.895 548.25 724.379 547.836C723.871 547.414 723.457 546.926 723.137 546.371C722.824 545.809 722.668 545.16 722.668 544.426C722.668 543.691 722.824 543.035 723.137 542.457C723.457 541.871 723.883 541.375 724.414 540.969C724.945 540.562 725.562 540.25 726.266 540.031C726.969 539.812 727.703 539.703 728.469 539.703C729.289 539.703 730.055 539.832 730.766 540.09C731.484 540.34 732.109 540.695 732.641 541.156C733.18 541.609 733.605 542.156 733.918 542.797C734.23 543.43 734.391 544.133 734.398 544.906H731.586C731.547 544.477 731.453 544.086 731.305 543.734C731.164 543.375 730.961 543.066 730.695 542.809C730.438 542.551 730.121 542.352 729.746 542.211C729.371 542.07 728.938 542 728.445 542C728.023 542 727.633 542.055 727.273 542.164C726.914 542.273 726.602 542.434 726.336 542.645C726.078 542.855 725.875 543.109 725.727 543.406C725.578 543.703 725.504 544.039 725.504 544.414C725.504 544.812 725.605 545.16 725.809 545.457C726.012 545.746 726.277 546 726.605 546.219C726.934 546.438 727.309 546.629 727.73 546.793C728.16 546.949 728.605 547.094 729.066 547.227C729.777 547.438 730.457 547.699 731.105 548.012C731.754 548.316 732.324 548.688 732.816 549.125C733.309 549.555 733.699 550.055 733.988 550.625C734.277 551.195 734.422 551.848 734.422 552.582C734.422 553.34 734.262 554.008 733.941 554.586C733.621 555.164 733.191 555.648 732.652 556.039C732.113 556.43 731.488 556.727 730.777 556.93C730.066 557.125 729.324 557.223 728.551 557.223C728.027 557.223 727.508 557.172 726.992 557.07C726.477 556.969 725.98 556.816 725.504 556.613C725.035 556.41 724.598 556.16 724.191 555.863C723.785 555.559 723.43 555.211 723.125 554.82C722.828 554.422 722.594 553.98 722.422 553.496C722.25 553.004 722.16 552.465 722.152 551.879H724.977C725.016 552.395 725.129 552.844 725.316 553.227C725.504 553.609 725.754 553.93 726.066 554.188C726.379 554.438 726.742 554.629 727.156 554.762C727.578 554.887 728.043 554.949 728.551 554.949C728.973 554.949 729.367 554.898 729.734 554.797C730.102 554.695 730.422 554.547 730.695 554.352C730.969 554.148 731.184 553.902 731.34 553.613C731.496 553.316 731.574 552.98 731.574 552.605Z" fill="#00979D"/>
<path d="M553.074 445.938L555.195 453.309L557.539 445.938H561.031V463H558.383V457.141L558.547 449.664L555.922 457.844H554.445L552.066 449.945L552.23 457.141V463H549.582V445.938H553.074ZM564.148 463V445.938H569.598C570.418 445.945 571.184 446.039 571.895 446.219C572.613 446.398 573.238 446.676 573.77 447.051C574.309 447.426 574.73 447.906 575.035 448.492C575.34 449.07 575.488 449.758 575.48 450.555C575.473 451.398 575.238 452.121 574.777 452.723C574.316 453.316 573.695 453.777 572.914 454.105C573.391 454.238 573.812 454.43 574.18 454.68C574.555 454.922 574.867 455.215 575.117 455.559C575.367 455.902 575.559 456.285 575.691 456.707C575.824 457.121 575.891 457.562 575.891 458.031C575.891 458.844 575.742 459.559 575.445 460.176C575.148 460.793 574.734 461.309 574.203 461.723C573.68 462.137 573.055 462.453 572.328 462.672C571.609 462.883 570.832 462.992 569.996 463H564.148ZM566.973 455.266V460.703H570.043C570.488 460.695 570.895 460.629 571.262 460.504C571.629 460.371 571.945 460.191 572.211 459.965C572.477 459.738 572.684 459.461 572.832 459.133C572.988 458.805 573.066 458.438 573.066 458.031C573.066 457.602 573 457.219 572.867 456.883C572.734 456.539 572.543 456.25 572.293 456.016C572.043 455.781 571.738 455.602 571.379 455.477C571.02 455.344 570.617 455.273 570.172 455.266H566.973ZM566.973 453.121H569.668C570.09 453.113 570.48 453.059 570.84 452.957C571.207 452.848 571.523 452.691 571.789 452.488C572.055 452.277 572.266 452.023 572.422 451.727C572.578 451.422 572.656 451.074 572.656 450.684C572.656 450.254 572.582 449.887 572.434 449.582C572.285 449.277 572.074 449.027 571.801 448.832C571.535 448.637 571.219 448.496 570.852 448.41C570.484 448.316 570.082 448.266 569.645 448.258H566.973V453.121ZM588.57 455.348H581.551V460.703H589.766V463H578.727V445.938H589.684V448.258H581.551V453.074H588.57V455.348ZM592.848 463V445.938H597.02C598.191 445.945 599.242 446.141 600.172 446.523C601.109 446.906 601.902 447.445 602.551 448.141C603.207 448.836 603.711 449.668 604.062 450.637C604.414 451.598 604.594 452.664 604.602 453.836V455.125C604.594 456.297 604.414 457.367 604.062 458.336C603.711 459.297 603.211 460.125 602.562 460.82C601.914 461.508 601.129 462.043 600.207 462.426C599.285 462.809 598.25 463 597.102 463H592.848ZM595.707 448.211V460.738H597.102C597.875 460.73 598.551 460.594 599.129 460.328C599.707 460.055 600.188 459.676 600.57 459.191C600.961 458.699 601.25 458.109 601.438 457.422C601.633 456.734 601.734 455.969 601.742 455.125V453.812C601.734 452.992 601.633 452.242 601.438 451.562C601.25 450.883 600.961 450.297 600.57 449.805C600.18 449.305 599.688 448.918 599.094 448.645C598.508 448.363 597.816 448.219 597.02 448.211H595.707ZM633.383 455.57C633.383 456.578 633.254 457.547 632.996 458.477C632.738 459.398 632.352 460.215 631.836 460.926C631.328 461.629 630.688 462.191 629.914 462.613C629.148 463.027 628.25 463.234 627.219 463.234C626.195 463.234 625.305 463.023 624.547 462.602C623.789 462.18 623.156 461.617 622.648 460.914C622.148 460.203 621.77 459.387 621.512 458.465C621.262 457.543 621.137 456.578 621.137 455.57V453.391C621.137 452.719 621.191 452.062 621.301 451.422C621.418 450.781 621.586 450.18 621.805 449.617C622.031 449.047 622.309 448.523 622.637 448.047C622.973 447.562 623.363 447.148 623.809 446.805C624.262 446.461 624.77 446.191 625.332 445.996C625.902 445.801 626.527 445.703 627.207 445.703C628.238 445.703 629.137 445.914 629.902 446.336C630.676 446.758 631.32 447.324 631.836 448.035C632.352 448.738 632.738 449.555 632.996 450.484C633.254 451.414 633.383 452.383 633.383 453.391V455.57ZM630.559 453.367C630.551 452.727 630.492 452.09 630.383 451.457C630.273 450.824 630.09 450.262 629.832 449.77C629.574 449.27 629.23 448.867 628.801 448.562C628.379 448.25 627.848 448.094 627.207 448.094C626.574 448.094 626.047 448.25 625.625 448.562C625.211 448.867 624.879 449.27 624.629 449.77C624.387 450.27 624.215 450.836 624.113 451.469C624.02 452.094 623.969 452.727 623.961 453.367V455.57C623.969 456.211 624.023 456.848 624.125 457.48C624.227 458.105 624.398 458.672 624.641 459.18C624.891 459.68 625.223 460.086 625.637 460.398C626.059 460.711 626.586 460.867 627.219 460.867C627.859 460.867 628.391 460.711 628.812 460.398C629.242 460.086 629.586 459.68 629.844 459.18C630.102 458.68 630.281 458.113 630.383 457.48C630.492 456.848 630.551 456.211 630.559 455.57V453.367ZM645.09 458.605C645.09 458.199 645.004 457.844 644.832 457.539C644.668 457.227 644.43 456.953 644.117 456.719C643.812 456.484 643.445 456.281 643.016 456.109C642.594 455.93 642.133 455.766 641.633 455.617C640.961 455.422 640.297 455.18 639.641 454.891C638.992 454.602 638.41 454.25 637.895 453.836C637.387 453.414 636.973 452.926 636.652 452.371C636.34 451.809 636.184 451.16 636.184 450.426C636.184 449.691 636.34 449.035 636.652 448.457C636.973 447.871 637.398 447.375 637.93 446.969C638.461 446.562 639.078 446.25 639.781 446.031C640.484 445.812 641.219 445.703 641.984 445.703C642.805 445.703 643.57 445.832 644.281 446.09C645 446.34 645.625 446.695 646.156 447.156C646.695 447.609 647.121 448.156 647.434 448.797C647.746 449.43 647.906 450.133 647.914 450.906H645.102C645.062 450.477 644.969 450.086 644.82 449.734C644.68 449.375 644.477 449.066 644.211 448.809C643.953 448.551 643.637 448.352 643.262 448.211C642.887 448.07 642.453 448 641.961 448C641.539 448 641.148 448.055 640.789 448.164C640.43 448.273 640.117 448.434 639.852 448.645C639.594 448.855 639.391 449.109 639.242 449.406C639.094 449.703 639.02 450.039 639.02 450.414C639.02 450.812 639.121 451.16 639.324 451.457C639.527 451.746 639.793 452 640.121 452.219C640.449 452.438 640.824 452.629 641.246 452.793C641.676 452.949 642.121 453.094 642.582 453.227C643.293 453.438 643.973 453.699 644.621 454.012C645.27 454.316 645.84 454.688 646.332 455.125C646.824 455.555 647.215 456.055 647.504 456.625C647.793 457.195 647.938 457.848 647.938 458.582C647.938 459.34 647.777 460.008 647.457 460.586C647.137 461.164 646.707 461.648 646.168 462.039C645.629 462.43 645.004 462.727 644.293 462.93C643.582 463.125 642.84 463.223 642.066 463.223C641.543 463.223 641.023 463.172 640.508 463.07C639.992 462.969 639.496 462.816 639.02 462.613C638.551 462.41 638.113 462.16 637.707 461.863C637.301 461.559 636.945 461.211 636.641 460.82C636.344 460.422 636.109 459.98 635.938 459.496C635.766 459.004 635.676 458.465 635.668 457.879H638.492C638.531 458.395 638.645 458.844 638.832 459.227C639.02 459.609 639.27 459.93 639.582 460.188C639.895 460.438 640.258 460.629 640.672 460.762C641.094 460.887 641.559 460.949 642.066 460.949C642.488 460.949 642.883 460.898 643.25 460.797C643.617 460.695 643.938 460.547 644.211 460.352C644.484 460.148 644.699 459.902 644.855 459.613C645.012 459.316 645.09 458.98 645.09 458.605ZM673.332 459.039H668L666.828 463H663.922L669.465 445.938H671.938L677.375 463H674.48L673.332 459.039ZM668.715 456.637H672.629L670.695 449.945L668.715 456.637ZM682.496 456.461V463H679.684V445.938H685.391C686.242 445.945 687.027 446.074 687.746 446.324C688.473 446.566 689.098 446.918 689.621 447.379C690.145 447.832 690.551 448.387 690.84 449.043C691.137 449.691 691.285 450.426 691.285 451.246C691.285 452.043 691.137 452.762 690.84 453.402C690.551 454.043 690.145 454.59 689.621 455.043C689.098 455.496 688.473 455.844 687.746 456.086C687.027 456.328 686.242 456.453 685.391 456.461H682.496ZM682.496 454.188H685.391C685.867 454.188 686.293 454.117 686.668 453.977C687.043 453.828 687.363 453.625 687.629 453.367C687.895 453.109 688.098 452.801 688.238 452.441C688.379 452.082 688.449 451.691 688.449 451.27C688.449 450.824 688.379 450.414 688.238 450.039C688.098 449.664 687.895 449.344 687.629 449.078C687.363 448.805 687.043 448.594 686.668 448.445C686.293 448.297 685.867 448.219 685.391 448.211H682.496V454.188ZM694.262 445.938H704.41V448.27H700.719V460.68H704.41V463H694.262V460.68H697.871V448.27H694.262V445.938Z" fill="#00979D"/>
<path d="M553.074 325.938L555.195 333.309L557.539 325.938H561.031V343H558.383V337.141L558.547 329.664L555.922 337.844H554.445L552.066 329.945L552.23 337.141V343H549.582V325.938H553.074ZM564.148 343V325.938H569.598C570.418 325.945 571.184 326.039 571.895 326.219C572.613 326.398 573.238 326.676 573.77 327.051C574.309 327.426 574.73 327.906 575.035 328.492C575.34 329.07 575.488 329.758 575.48 330.555C575.473 331.398 575.238 332.121 574.777 332.723C574.316 333.316 573.695 333.777 572.914 334.105C573.391 334.238 573.812 334.43 574.18 334.68C574.555 334.922 574.867 335.215 575.117 335.559C575.367 335.902 575.559 336.285 575.691 336.707C575.824 337.121 575.891 337.562 575.891 338.031C575.891 338.844 575.742 339.559 575.445 340.176C575.148 340.793 574.734 341.309 574.203 341.723C573.68 342.137 573.055 342.453 572.328 342.672C571.609 342.883 570.832 342.992 569.996 343H564.148ZM566.973 335.266V340.703H570.043C570.488 340.695 570.895 340.629 571.262 340.504C571.629 340.371 571.945 340.191 572.211 339.965C572.477 339.738 572.684 339.461 572.832 339.133C572.988 338.805 573.066 338.438 573.066 338.031C573.066 337.602 573 337.219 572.867 336.883C572.734 336.539 572.543 336.25 572.293 336.016C572.043 335.781 571.738 335.602 571.379 335.477C571.02 335.344 570.617 335.273 570.172 335.266H566.973ZM566.973 333.121H569.668C570.09 333.113 570.48 333.059 570.84 332.957C571.207 332.848 571.523 332.691 571.789 332.488C572.055 332.277 572.266 332.023 572.422 331.727C572.578 331.422 572.656 331.074 572.656 330.684C572.656 330.254 572.582 329.887 572.434 329.582C572.285 329.277 572.074 329.027 571.801 328.832C571.535 328.637 571.219 328.496 570.852 328.41C570.484 328.316 570.082 328.266 569.645 328.258H566.973V333.121ZM588.57 335.348H581.551V340.703H589.766V343H578.727V325.938H589.684V328.258H581.551V333.074H588.57V335.348ZM592.848 343V325.938H597.02C598.191 325.945 599.242 326.141 600.172 326.523C601.109 326.906 601.902 327.445 602.551 328.141C603.207 328.836 603.711 329.668 604.062 330.637C604.414 331.598 604.594 332.664 604.602 333.836V335.125C604.594 336.297 604.414 337.367 604.062 338.336C603.711 339.297 603.211 340.125 602.562 340.82C601.914 341.508 601.129 342.043 600.207 342.426C599.285 342.809 598.25 343 597.102 343H592.848ZM595.707 328.211V340.738H597.102C597.875 340.73 598.551 340.594 599.129 340.328C599.707 340.055 600.188 339.676 600.57 339.191C600.961 338.699 601.25 338.109 601.438 337.422C601.633 336.734 601.734 335.969 601.742 335.125V333.812C601.734 332.992 601.633 332.242 601.438 331.562C601.25 330.883 600.961 330.297 600.57 329.805C600.18 329.305 599.688 328.918 599.094 328.645C598.508 328.363 597.816 328.219 597.02 328.211H595.707ZM630.09 339.039H624.758L623.586 343H620.68L626.223 325.938H628.695L634.133 343H631.238L630.09 339.039ZM625.473 336.637H629.387L627.453 329.945L625.473 336.637ZM639.254 336.461V343H636.441V325.938H642.148C643 325.945 643.785 326.074 644.504 326.324C645.23 326.566 645.855 326.918 646.379 327.379C646.902 327.832 647.309 328.387 647.598 329.043C647.895 329.691 648.043 330.426 648.043 331.246C648.043 332.043 647.895 332.762 647.598 333.402C647.309 334.043 646.902 334.59 646.379 335.043C645.855 335.496 645.23 335.844 644.504 336.086C643.785 336.328 643 336.453 642.148 336.461H639.254ZM639.254 334.188H642.148C642.625 334.188 643.051 334.117 643.426 333.977C643.801 333.828 644.121 333.625 644.387 333.367C644.652 333.109 644.855 332.801 644.996 332.441C645.137 332.082 645.207 331.691 645.207 331.27C645.207 330.824 645.137 330.414 644.996 330.039C644.855 329.664 644.652 329.344 644.387 329.078C644.121 328.805 643.801 328.594 643.426 328.445C643.051 328.297 642.625 328.219 642.148 328.211H639.254V334.188ZM653.668 336.461V343H650.855V325.938H656.562C657.414 325.945 658.199 326.074 658.918 326.324C659.645 326.566 660.27 326.918 660.793 327.379C661.316 327.832 661.723 328.387 662.012 329.043C662.309 329.691 662.457 330.426 662.457 331.246C662.457 332.043 662.309 332.762 662.012 333.402C661.723 334.043 661.316 334.59 660.793 335.043C660.27 335.496 659.645 335.844 658.918 336.086C658.199 336.328 657.414 336.453 656.562 336.461H653.668ZM653.668 334.188H656.562C657.039 334.188 657.465 334.117 657.84 333.977C658.215 333.828 658.535 333.625 658.801 333.367C659.066 333.109 659.27 332.801 659.41 332.441C659.551 332.082 659.621 331.691 659.621 331.27C659.621 330.824 659.551 330.414 659.41 330.039C659.27 329.664 659.066 329.344 658.801 329.078C658.535 328.805 658.215 328.594 657.84 328.445C657.465 328.297 657.039 328.219 656.562 328.211H653.668V334.188ZM668.141 340.703H676.273V343H665.328V325.938H668.141V340.703ZM679.848 325.938H689.996V328.27H686.305V340.68H689.996V343H679.848V340.68H683.457V328.27H679.848V325.938ZM705.406 337.762C705.328 338.582 705.133 339.332 704.82 340.012C704.508 340.684 704.094 341.262 703.578 341.746C703.062 342.223 702.453 342.594 701.75 342.859C701.055 343.117 700.277 343.246 699.418 343.246C698.379 343.246 697.473 343.047 696.699 342.648C695.926 342.242 695.281 341.695 694.766 341.008C694.25 340.32 693.863 339.516 693.605 338.594C693.348 337.672 693.215 336.688 693.207 335.641V333.309C693.215 332.27 693.352 331.289 693.617 330.367C693.883 329.438 694.273 328.629 694.789 327.941C695.312 327.246 695.961 326.699 696.734 326.301C697.508 325.895 698.406 325.691 699.43 325.691C700.328 325.691 701.129 325.824 701.832 326.09C702.535 326.355 703.137 326.73 703.637 327.215C704.137 327.699 704.535 328.289 704.832 328.984C705.129 329.68 705.32 330.453 705.406 331.305H702.594C702.547 330.805 702.449 330.352 702.301 329.945C702.16 329.531 701.965 329.18 701.715 328.891C701.465 328.594 701.148 328.367 700.766 328.211C700.391 328.055 699.945 327.977 699.43 327.977C698.797 327.977 698.266 328.121 697.836 328.41C697.406 328.699 697.059 329.09 696.793 329.582C696.527 330.066 696.336 330.629 696.219 331.27C696.109 331.91 696.055 332.582 696.055 333.285V335.641C696.055 336.375 696.109 337.066 696.219 337.715C696.336 338.355 696.523 338.918 696.781 339.402C697.039 339.887 697.383 340.27 697.812 340.551C698.242 340.832 698.777 340.973 699.418 340.973C700.402 340.973 701.152 340.695 701.668 340.141C702.184 339.578 702.488 338.785 702.582 337.762H705.406ZM716.574 339.039H711.242L710.07 343H707.164L712.707 325.938H715.18L720.617 343H717.723L716.574 339.039ZM711.957 336.637H715.871L713.938 329.945L711.957 336.637ZM734.797 328.258H729.559V343H726.758V328.258H721.555V325.938H734.797V328.258ZM748.695 335.57C748.695 336.578 748.566 337.547 748.309 338.477C748.051 339.398 747.664 340.215 747.148 340.926C746.641 341.629 746 342.191 745.227 342.613C744.461 343.027 743.562 343.234 742.531 343.234C741.508 343.234 740.617 343.023 739.859 342.602C739.102 342.18 738.469 341.617 737.961 340.914C737.461 340.203 737.082 339.387 736.824 338.465C736.574 337.543 736.449 336.578 736.449 335.57V333.391C736.449 332.719 736.504 332.062 736.613 331.422C736.73 330.781 736.898 330.18 737.117 329.617C737.344 329.047 737.621 328.523 737.949 328.047C738.285 327.562 738.676 327.148 739.121 326.805C739.574 326.461 740.082 326.191 740.645 325.996C741.215 325.801 741.84 325.703 742.52 325.703C743.551 325.703 744.449 325.914 745.215 326.336C745.988 326.758 746.633 327.324 747.148 328.035C747.664 328.738 748.051 329.555 748.309 330.484C748.566 331.414 748.695 332.383 748.695 333.391V335.57ZM745.871 333.367C745.863 332.727 745.805 332.09 745.695 331.457C745.586 330.824 745.402 330.262 745.145 329.77C744.887 329.27 744.543 328.867 744.113 328.562C743.691 328.25 743.16 328.094 742.52 328.094C741.887 328.094 741.359 328.25 740.938 328.562C740.523 328.867 740.191 329.27 739.941 329.77C739.699 330.27 739.527 330.836 739.426 331.469C739.332 332.094 739.281 332.727 739.273 333.367V335.57C739.281 336.211 739.336 336.848 739.438 337.48C739.539 338.105 739.711 338.672 739.953 339.18C740.203 339.68 740.535 340.086 740.949 340.398C741.371 340.711 741.898 340.867 742.531 340.867C743.172 340.867 743.703 340.711 744.125 340.398C744.555 340.086 744.898 339.68 745.156 339.18C745.414 338.68 745.594 338.113 745.695 337.48C745.805 336.848 745.863 336.211 745.871 335.57V333.367ZM762.582 343H759.746L754.191 331.258L754.18 343H751.332V325.938H754.18L759.711 337.645L759.734 325.938H762.582V343ZM791.891 337.762C791.812 338.582 791.617 339.332 791.305 340.012C790.992 340.684 790.578 341.262 790.062 341.746C789.547 342.223 788.938 342.594 788.234 342.859C787.539 343.117 786.762 343.246 785.902 343.246C784.863 343.246 783.957 343.047 783.184 342.648C782.41 342.242 781.766 341.695 781.25 341.008C780.734 340.32 780.348 339.516 780.09 338.594C779.832 337.672 779.699 336.688 779.691 335.641V333.309C779.699 332.27 779.836 331.289 780.102 330.367C780.367 329.438 780.758 328.629 781.273 327.941C781.797 327.246 782.445 326.699 783.219 326.301C783.992 325.895 784.891 325.691 785.914 325.691C786.812 325.691 787.613 325.824 788.316 326.09C789.02 326.355 789.621 326.73 790.121 327.215C790.621 327.699 791.02 328.289 791.316 328.984C791.613 329.68 791.805 330.453 791.891 331.305H789.078C789.031 330.805 788.934 330.352 788.785 329.945C788.645 329.531 788.449 329.18 788.199 328.891C787.949 328.594 787.633 328.367 787.25 328.211C786.875 328.055 786.43 327.977 785.914 327.977C785.281 327.977 784.75 328.121 784.32 328.41C783.891 328.699 783.543 329.09 783.277 329.582C783.012 330.066 782.82 330.629 782.703 331.27C782.594 331.91 782.539 332.582 782.539 333.285V335.641C782.539 336.375 782.594 337.066 782.703 337.715C782.82 338.355 783.008 338.918 783.266 339.402C783.523 339.887 783.867 340.27 784.297 340.551C784.727 340.832 785.262 340.973 785.902 340.973C786.887 340.973 787.637 340.695 788.152 340.141C788.668 339.578 788.973 338.785 789.066 337.762H791.891ZM806.352 335.57C806.352 336.578 806.223 337.547 805.965 338.477C805.707 339.398 805.32 340.215 804.805 340.926C804.297 341.629 803.656 342.191 802.883 342.613C802.117 343.027 801.219 343.234 800.188 343.234C799.164 343.234 798.273 343.023 797.516 342.602C796.758 342.18 796.125 341.617 795.617 340.914C795.117 340.203 794.738 339.387 794.48 338.465C794.23 337.543 794.105 336.578 794.105 335.57V333.391C794.105 332.719 794.16 332.062 794.27 331.422C794.387 330.781 794.555 330.18 794.773 329.617C795 329.047 795.277 328.523 795.605 328.047C795.941 327.562 796.332 327.148 796.777 326.805C797.23 326.461 797.738 326.191 798.301 325.996C798.871 325.801 799.496 325.703 800.176 325.703C801.207 325.703 802.105 325.914 802.871 326.336C803.645 326.758 804.289 327.324 804.805 328.035C805.32 328.738 805.707 329.555 805.965 330.484C806.223 331.414 806.352 332.383 806.352 333.391V335.57ZM803.527 333.367C803.52 332.727 803.461 332.09 803.352 331.457C803.242 330.824 803.059 330.262 802.801 329.77C802.543 329.27 802.199 328.867 801.77 328.562C801.348 328.25 800.816 328.094 800.176 328.094C799.543 328.094 799.016 328.25 798.594 328.562C798.18 328.867 797.848 329.27 797.598 329.77C797.355 330.27 797.184 330.836 797.082 331.469C796.988 332.094 796.938 332.727 796.93 333.367V335.57C796.938 336.211 796.992 336.848 797.094 337.48C797.195 338.105 797.367 338.672 797.609 339.18C797.859 339.68 798.191 340.086 798.605 340.398C799.027 340.711 799.555 340.867 800.188 340.867C800.828 340.867 801.359 340.711 801.781 340.398C802.211 340.086 802.555 339.68 802.812 339.18C803.07 338.68 803.25 338.113 803.352 337.48C803.461 336.848 803.52 336.211 803.527 335.57V333.367ZM809.059 343V325.938H813.23C814.402 325.945 815.453 326.141 816.383 326.523C817.32 326.906 818.113 327.445 818.762 328.141C819.418 328.836 819.922 329.668 820.273 330.637C820.625 331.598 820.805 332.664 820.812 333.836V335.125C820.805 336.297 820.625 337.367 820.273 338.336C819.922 339.297 819.422 340.125 818.773 340.82C818.125 341.508 817.34 342.043 816.418 342.426C815.496 342.809 814.461 343 813.312 343H809.059ZM811.918 328.211V340.738H813.312C814.086 340.73 814.762 340.594 815.34 340.328C815.918 340.055 816.398 339.676 816.781 339.191C817.172 338.699 817.461 338.109 817.648 337.422C817.844 336.734 817.945 335.969 817.953 335.125V333.812C817.945 332.992 817.844 332.242 817.648 331.562C817.461 330.883 817.172 330.297 816.781 329.805C816.391 329.305 815.898 328.918 815.305 328.645C814.719 328.363 814.027 328.219 813.23 328.211H811.918ZM833.609 335.348H826.59V340.703H834.805V343H823.766V325.938H834.723V328.258H826.59V333.074H833.609V335.348Z" fill="#00979D"/>
<defs>
<clipPath id="clip0">
<rect x="192" y="155" width="337.2" height="545" fill="white"/>
</clipPath>
</defs>
</svg>
