<svg width="756" height="634" viewBox="0 0 756 634" fill="none" xmlns="http://www.w3.org/2000/svg">
<g clip-path="url(#clip0)">
<g clip-path="url(#clip1)">
<path d="M380.5 516.4L237.4 585.3C227.2 590.2 210.6 590.2 200.4 585.3L58.7 517.1C48.5 512.2 48.5 504.2 58.7 499.3L201.8 430.4C212 425.5 228.6 425.5 238.8 430.4L380.6 498.7C390.7 503.5 390.7 511.5 380.5 516.4Z" fill="#CEFAFC"/>
<path d="M357.2 513.1L234.8 572C226.1 576.2 211.9 576.2 203.1 572L81.9 513.7C73.2 509.5 73.2 502.7 81.9 498.5L204.3 439.6C213 435.4 227.2 435.4 236 439.6L357.2 498C365.9 502.1 365.9 508.9 357.2 513.1Z" stroke="#00979D" stroke-width="1.0001" stroke-miterlimit="10" stroke-dasharray="4.26 4.26"/>
<path d="M357.2 447.4L234.8 506.3C226.1 510.5 211.9 510.5 203.1 506.3L81.9 447.9C73.2 443.7 73.2 436.9 81.9 432.7L204.3 373.8C213 369.6 227.2 369.6 236 373.8L357.2 432.2C365.9 436.3 365.9 443.2 357.2 447.4Z" fill="#8DE6EA"/>
<path d="M357.2 354.1L234.8 413C226.1 417.2 211.9 417.2 203.1 413L81.9 354.7C73.2 350.5 73.2 343.7 81.9 339.5L204.3 280.6C213 276.4 227.2 276.4 236 280.6L357.2 339C365.9 343.1 365.9 349.9 357.2 354.1Z" fill="#4ECCD1"/>
<path d="M357.2 234.5L234.8 293.4C226.1 297.6 211.9 297.6 203.1 293.4L81.9 235.1C73.2 230.9 73.2 224.1 81.9 219.9L204.3 161C213 156.8 227.2 156.8 236 161L357.2 219.4C365.9 223.5 365.9 230.3 357.2 234.5Z" fill="#24AFB5"/>
<path d="M357.2 120.8L234.8 179.7C226.1 183.9 211.9 183.9 203.1 179.7L81.9 121.3C73.2 117.1 73.2 110.3 81.9 106.1L204.3 47.2C213 43 227.2 43 236 47.2L357.2 105.6C365.9 109.8 365.9 116.6 357.2 120.8Z" fill="#00979D"/>
<path d="M75 119.6V499.6" stroke="#00979D" stroke-width="1.0001" stroke-miterlimit="10" stroke-dasharray="4.25 4.25"/>
<path d="M220 183L220 575" stroke="#00979D" stroke-width="1.0001" stroke-miterlimit="10" stroke-dasharray="4.25 4.25"/>
<path d="M364.1 119.6V499.6" stroke="#00979D" stroke-width="1.0001" stroke-miterlimit="10" stroke-dasharray="4.25 4.25"/>
</g>
<path d="M417.02 114.039H411.688L410.516 118H407.609L413.152 100.938H415.625L421.062 118H418.168L417.02 114.039ZM412.402 111.637H416.316L414.383 104.945L412.402 111.637ZM428.879 111.344H426.02V118H423.207V100.938H428.598C429.473 100.945 430.277 101.059 431.012 101.277C431.754 101.488 432.395 101.809 432.934 102.238C433.473 102.66 433.891 103.191 434.188 103.832C434.484 104.473 434.633 105.223 434.633 106.082C434.633 106.66 434.555 107.188 434.398 107.664C434.25 108.133 434.039 108.559 433.766 108.941C433.492 109.324 433.164 109.66 432.781 109.949C432.398 110.238 431.977 110.484 431.516 110.688L435.125 117.859V118H432.125L428.879 111.344ZM426.02 109.07H428.609C429.078 109.07 429.508 109.004 429.898 108.871C430.289 108.738 430.625 108.551 430.906 108.309C431.195 108.059 431.418 107.758 431.574 107.406C431.73 107.047 431.809 106.637 431.809 106.176C431.809 105.699 431.734 105.277 431.586 104.91C431.438 104.543 431.223 104.234 430.941 103.984C430.668 103.734 430.332 103.547 429.934 103.422C429.535 103.289 429.09 103.219 428.598 103.211H426.02V109.07ZM437.434 118V100.938H441.605C442.777 100.945 443.828 101.141 444.758 101.523C445.695 101.906 446.488 102.445 447.137 103.141C447.793 103.836 448.297 104.668 448.648 105.637C449 106.598 449.18 107.664 449.188 108.836V110.125C449.18 111.297 449 112.367 448.648 113.336C448.297 114.297 447.797 115.125 447.148 115.82C446.5 116.508 445.715 117.043 444.793 117.426C443.871 117.809 442.836 118 441.688 118H437.434ZM440.293 103.211V115.738H441.688C442.461 115.73 443.137 115.594 443.715 115.328C444.293 115.055 444.773 114.676 445.156 114.191C445.547 113.699 445.836 113.109 446.023 112.422C446.219 111.734 446.32 110.969 446.328 110.125V108.812C446.32 107.992 446.219 107.242 446.023 106.562C445.836 105.883 445.547 105.297 445.156 104.805C444.766 104.305 444.273 103.918 443.68 103.645C443.094 103.363 442.402 103.219 441.605 103.211H440.293ZM463.086 100.938L463.109 112.363C463.102 113.238 462.961 114.039 462.688 114.766C462.414 115.484 462.031 116.102 461.539 116.617C461.047 117.133 460.449 117.531 459.746 117.812C459.051 118.094 458.27 118.234 457.402 118.234C456.559 118.234 455.793 118.094 455.105 117.812C454.418 117.531 453.828 117.137 453.336 116.629C452.844 116.113 452.461 115.496 452.188 114.777C451.914 114.051 451.773 113.246 451.766 112.363L451.789 100.938H454.555L454.578 112.363C454.586 112.887 454.652 113.367 454.777 113.805C454.902 114.242 455.082 114.621 455.316 114.941C455.551 115.254 455.84 115.5 456.184 115.68C456.535 115.852 456.941 115.938 457.402 115.938C457.871 115.938 458.285 115.852 458.645 115.68C459.004 115.5 459.305 115.254 459.547 114.941C459.789 114.621 459.973 114.242 460.098 113.805C460.223 113.367 460.289 112.887 460.297 112.363L460.32 100.938H463.086ZM466.777 100.938H476.926V103.27H473.234V115.68H476.926V118H466.777V115.68H470.387V103.27H466.777V100.938ZM491.855 118H489.02L483.465 106.258L483.453 118H480.605V100.938H483.453L488.984 112.645L489.008 100.938H491.855V118ZM506.797 110.57C506.797 111.578 506.668 112.547 506.41 113.477C506.152 114.398 505.766 115.215 505.25 115.926C504.742 116.629 504.102 117.191 503.328 117.613C502.562 118.027 501.664 118.234 500.633 118.234C499.609 118.234 498.719 118.023 497.961 117.602C497.203 117.18 496.57 116.617 496.062 115.914C495.562 115.203 495.184 114.387 494.926 113.465C494.676 112.543 494.551 111.578 494.551 110.57V108.391C494.551 107.719 494.605 107.062 494.715 106.422C494.832 105.781 495 105.18 495.219 104.617C495.445 104.047 495.723 103.523 496.051 103.047C496.387 102.562 496.777 102.148 497.223 101.805C497.676 101.461 498.184 101.191 498.746 100.996C499.316 100.801 499.941 100.703 500.621 100.703C501.652 100.703 502.551 100.914 503.316 101.336C504.09 101.758 504.734 102.324 505.25 103.035C505.766 103.738 506.152 104.555 506.41 105.484C506.668 106.414 506.797 107.383 506.797 108.391V110.57ZM503.973 108.367C503.965 107.727 503.906 107.09 503.797 106.457C503.688 105.824 503.504 105.262 503.246 104.77C502.988 104.27 502.645 103.867 502.215 103.562C501.793 103.25 501.262 103.094 500.621 103.094C499.988 103.094 499.461 103.25 499.039 103.562C498.625 103.867 498.293 104.27 498.043 104.77C497.801 105.27 497.629 105.836 497.527 106.469C497.434 107.094 497.383 107.727 497.375 108.367V110.57C497.383 111.211 497.438 111.848 497.539 112.48C497.641 113.105 497.812 113.672 498.055 114.18C498.305 114.68 498.637 115.086 499.051 115.398C499.473 115.711 500 115.867 500.633 115.867C501.273 115.867 501.805 115.711 502.227 115.398C502.656 115.086 503 114.68 503.258 114.18C503.516 113.68 503.695 113.113 503.797 112.48C503.906 111.848 503.965 111.211 503.973 110.57V108.367ZM535.578 112.762C535.5 113.582 535.305 114.332 534.992 115.012C534.68 115.684 534.266 116.262 533.75 116.746C533.234 117.223 532.625 117.594 531.922 117.859C531.227 118.117 530.449 118.246 529.59 118.246C528.551 118.246 527.645 118.047 526.871 117.648C526.098 117.242 525.453 116.695 524.938 116.008C524.422 115.32 524.035 114.516 523.777 113.594C523.52 112.672 523.387 111.688 523.379 110.641V108.309C523.387 107.27 523.523 106.289 523.789 105.367C524.055 104.438 524.445 103.629 524.961 102.941C525.484 102.246 526.133 101.699 526.906 101.301C527.68 100.895 528.578 100.691 529.602 100.691C530.5 100.691 531.301 100.824 532.004 101.09C532.707 101.355 533.309 101.73 533.809 102.215C534.309 102.699 534.707 103.289 535.004 103.984C535.301 104.68 535.492 105.453 535.578 106.305H532.766C532.719 105.805 532.621 105.352 532.473 104.945C532.332 104.531 532.137 104.18 531.887 103.891C531.637 103.594 531.32 103.367 530.938 103.211C530.562 103.055 530.117 102.977 529.602 102.977C528.969 102.977 528.438 103.121 528.008 103.41C527.578 103.699 527.23 104.09 526.965 104.582C526.699 105.066 526.508 105.629 526.391 106.27C526.281 106.91 526.227 107.582 526.227 108.285V110.641C526.227 111.375 526.281 112.066 526.391 112.715C526.508 113.355 526.695 113.918 526.953 114.402C527.211 114.887 527.555 115.27 527.984 115.551C528.414 115.832 528.949 115.973 529.59 115.973C530.574 115.973 531.324 115.695 531.84 115.141C532.355 114.578 532.66 113.785 532.754 112.762H535.578ZM550.039 110.57C550.039 111.578 549.91 112.547 549.652 113.477C549.395 114.398 549.008 115.215 548.492 115.926C547.984 116.629 547.344 117.191 546.57 117.613C545.805 118.027 544.906 118.234 543.875 118.234C542.852 118.234 541.961 118.023 541.203 117.602C540.445 117.18 539.812 116.617 539.305 115.914C538.805 115.203 538.426 114.387 538.168 113.465C537.918 112.543 537.793 111.578 537.793 110.57V108.391C537.793 107.719 537.848 107.062 537.957 106.422C538.074 105.781 538.242 105.18 538.461 104.617C538.688 104.047 538.965 103.523 539.293 103.047C539.629 102.562 540.02 102.148 540.465 101.805C540.918 101.461 541.426 101.191 541.988 100.996C542.559 100.801 543.184 100.703 543.863 100.703C544.895 100.703 545.793 100.914 546.559 101.336C547.332 101.758 547.977 102.324 548.492 103.035C549.008 103.738 549.395 104.555 549.652 105.484C549.91 106.414 550.039 107.383 550.039 108.391V110.57ZM547.215 108.367C547.207 107.727 547.148 107.09 547.039 106.457C546.93 105.824 546.746 105.262 546.488 104.77C546.23 104.27 545.887 103.867 545.457 103.562C545.035 103.25 544.504 103.094 543.863 103.094C543.23 103.094 542.703 103.25 542.281 103.562C541.867 103.867 541.535 104.27 541.285 104.77C541.043 105.27 540.871 105.836 540.77 106.469C540.676 107.094 540.625 107.727 540.617 108.367V110.57C540.625 111.211 540.68 111.848 540.781 112.48C540.883 113.105 541.055 113.672 541.297 114.18C541.547 114.68 541.879 115.086 542.293 115.398C542.715 115.711 543.242 115.867 543.875 115.867C544.516 115.867 545.047 115.711 545.469 115.398C545.898 115.086 546.242 114.68 546.5 114.18C546.758 113.68 546.938 113.113 547.039 112.48C547.148 111.848 547.207 111.211 547.215 110.57V108.367ZM552.746 118V100.938H556.918C558.09 100.945 559.141 101.141 560.07 101.523C561.008 101.906 561.801 102.445 562.449 103.141C563.105 103.836 563.609 104.668 563.961 105.637C564.312 106.598 564.492 107.664 564.5 108.836V110.125C564.492 111.297 564.312 112.367 563.961 113.336C563.609 114.297 563.109 115.125 562.461 115.82C561.812 116.508 561.027 117.043 560.105 117.426C559.184 117.809 558.148 118 557 118H552.746ZM555.605 103.211V115.738H557C557.773 115.73 558.449 115.594 559.027 115.328C559.605 115.055 560.086 114.676 560.469 114.191C560.859 113.699 561.148 113.109 561.336 112.422C561.531 111.734 561.633 110.969 561.641 110.125V108.812C561.633 107.992 561.531 107.242 561.336 106.562C561.148 105.883 560.859 105.297 560.469 104.805C560.078 104.305 559.586 103.918 558.992 103.645C558.406 103.363 557.715 103.219 556.918 103.211H555.605ZM577.297 110.348H570.277V115.703H578.492V118H567.453V100.938H578.41V103.258H570.277V108.074H577.297V110.348Z" fill="#00979D"/>
<path d="M419.797 513H417.055V505.383H411.254V513H408.523V495.938H411.254V503.074H417.055V495.938H419.797V513ZM431.434 509.039H426.102L424.93 513H422.023L427.566 495.938H430.039L435.477 513H432.582L431.434 509.039ZM426.816 506.637H430.73L428.797 499.945L426.816 506.637ZM443.293 506.344H440.434V513H437.621V495.938H443.012C443.887 495.945 444.691 496.059 445.426 496.277C446.168 496.488 446.809 496.809 447.348 497.238C447.887 497.66 448.305 498.191 448.602 498.832C448.898 499.473 449.047 500.223 449.047 501.082C449.047 501.66 448.969 502.188 448.812 502.664C448.664 503.133 448.453 503.559 448.18 503.941C447.906 504.324 447.578 504.66 447.195 504.949C446.812 505.238 446.391 505.484 445.93 505.688L449.539 512.859V513H446.539L443.293 506.344ZM440.434 504.07H443.023C443.492 504.07 443.922 504.004 444.312 503.871C444.703 503.738 445.039 503.551 445.32 503.309C445.609 503.059 445.832 502.758 445.988 502.406C446.145 502.047 446.223 501.637 446.223 501.176C446.223 500.699 446.148 500.277 446 499.91C445.852 499.543 445.637 499.234 445.355 498.984C445.082 498.734 444.746 498.547 444.348 498.422C443.949 498.289 443.504 498.219 443.012 498.211H440.434V504.07ZM451.848 513V495.938H456.02C457.191 495.945 458.242 496.141 459.172 496.523C460.109 496.906 460.902 497.445 461.551 498.141C462.207 498.836 462.711 499.668 463.062 500.637C463.414 501.598 463.594 502.664 463.602 503.836V505.125C463.594 506.297 463.414 507.367 463.062 508.336C462.711 509.297 462.211 510.125 461.562 510.82C460.914 511.508 460.129 512.043 459.207 512.426C458.285 512.809 457.25 513 456.102 513H451.848ZM454.707 498.211V510.738H456.102C456.875 510.73 457.551 510.594 458.129 510.328C458.707 510.055 459.188 509.676 459.57 509.191C459.961 508.699 460.25 508.109 460.438 507.422C460.633 506.734 460.734 505.969 460.742 505.125V503.812C460.734 502.992 460.633 502.242 460.438 501.562C460.25 500.883 459.961 500.297 459.57 499.805C459.18 499.305 458.688 498.918 458.094 498.645C457.508 498.363 456.816 498.219 456.02 498.211H454.707ZM474.816 507.129L476.035 495.938H478.66L476.48 513H473.785L471.922 501.656L470.082 513H467.398L465.219 495.938H467.844L469.062 507.07L470.809 495.938H473.012L474.816 507.129ZM489.09 509.039H483.758L482.586 513H479.68L485.223 495.938H487.695L493.133 513H490.238L489.09 509.039ZM484.473 506.637H488.387L486.453 499.945L484.473 506.637ZM500.949 506.344H498.09V513H495.277V495.938H500.668C501.543 495.945 502.348 496.059 503.082 496.277C503.824 496.488 504.465 496.809 505.004 497.238C505.543 497.66 505.961 498.191 506.258 498.832C506.555 499.473 506.703 500.223 506.703 501.082C506.703 501.66 506.625 502.188 506.469 502.664C506.32 503.133 506.109 503.559 505.836 503.941C505.562 504.324 505.234 504.66 504.852 504.949C504.469 505.238 504.047 505.484 503.586 505.688L507.195 512.859V513H504.195L500.949 506.344ZM498.09 504.07H500.68C501.148 504.07 501.578 504.004 501.969 503.871C502.359 503.738 502.695 503.551 502.977 503.309C503.266 503.059 503.488 502.758 503.645 502.406C503.801 502.047 503.879 501.637 503.879 501.176C503.879 500.699 503.805 500.277 503.656 499.91C503.508 499.543 503.293 499.234 503.012 498.984C502.738 498.734 502.402 498.547 502.004 498.422C501.605 498.289 501.16 498.219 500.668 498.211H498.09V504.07ZM519.641 505.348H512.621V510.703H520.836V513H509.797V495.938H520.754V498.258H512.621V503.074H519.641V505.348ZM538.848 495.938H548.996V498.27H545.305V510.68H548.996V513H538.848V510.68H542.457V498.27H538.848V495.938ZM563.926 513H561.09L555.535 501.258L555.523 513H552.676V495.938H555.523L561.055 507.645L561.078 495.938H563.926V513ZM579.383 498.258H574.145V513H571.344V498.258H566.141V495.938H579.383V498.258ZM591.711 505.348H584.691V510.703H592.906V513H581.867V495.938H592.824V498.258H584.691V503.074H591.711V505.348ZM601.848 506.344H598.988V513H596.176V495.938H601.566C602.441 495.945 603.246 496.059 603.98 496.277C604.723 496.488 605.363 496.809 605.902 497.238C606.441 497.66 606.859 498.191 607.156 498.832C607.453 499.473 607.602 500.223 607.602 501.082C607.602 501.66 607.523 502.188 607.367 502.664C607.219 503.133 607.008 503.559 606.734 503.941C606.461 504.324 606.133 504.66 605.75 504.949C605.367 505.238 604.945 505.484 604.484 505.688L608.094 512.859V513H605.094L601.848 506.344ZM598.988 504.07H601.578C602.047 504.07 602.477 504.004 602.867 503.871C603.258 503.738 603.594 503.551 603.875 503.309C604.164 503.059 604.387 502.758 604.543 502.406C604.699 502.047 604.777 501.637 604.777 501.176C604.777 500.699 604.703 500.277 604.555 499.91C604.406 499.543 604.191 499.234 603.91 498.984C603.637 498.734 603.301 498.547 602.902 498.422C602.504 498.289 602.059 498.219 601.566 498.211H598.988V504.07ZM620.762 505.734H613.602V513H610.766V495.938H621.816V498.258H613.602V503.426H620.762V505.734ZM633.23 509.039H627.898L626.727 513H623.82L629.363 495.938H631.836L637.273 513H634.379L633.23 509.039ZM628.613 506.637H632.527L630.594 499.945L628.613 506.637ZM650.891 507.762C650.812 508.582 650.617 509.332 650.305 510.012C649.992 510.684 649.578 511.262 649.062 511.746C648.547 512.223 647.938 512.594 647.234 512.859C646.539 513.117 645.762 513.246 644.902 513.246C643.863 513.246 642.957 513.047 642.184 512.648C641.41 512.242 640.766 511.695 640.25 511.008C639.734 510.32 639.348 509.516 639.09 508.594C638.832 507.672 638.699 506.688 638.691 505.641V503.309C638.699 502.27 638.836 501.289 639.102 500.367C639.367 499.438 639.758 498.629 640.273 497.941C640.797 497.246 641.445 496.699 642.219 496.301C642.992 495.895 643.891 495.691 644.914 495.691C645.812 495.691 646.613 495.824 647.316 496.09C648.02 496.355 648.621 496.73 649.121 497.215C649.621 497.699 650.02 498.289 650.316 498.984C650.613 499.68 650.805 500.453 650.891 501.305H648.078C648.031 500.805 647.934 500.352 647.785 499.945C647.645 499.531 647.449 499.18 647.199 498.891C646.949 498.594 646.633 498.367 646.25 498.211C645.875 498.055 645.43 497.977 644.914 497.977C644.281 497.977 643.75 498.121 643.32 498.41C642.891 498.699 642.543 499.09 642.277 499.582C642.012 500.066 641.82 500.629 641.703 501.27C641.594 501.91 641.539 502.582 641.539 503.285V505.641C641.539 506.375 641.594 507.066 641.703 507.715C641.82 508.355 642.008 508.918 642.266 509.402C642.523 509.887 642.867 510.27 643.297 510.551C643.727 510.832 644.262 510.973 644.902 510.973C645.887 510.973 646.637 510.695 647.152 510.141C647.668 509.578 647.973 508.785 648.066 507.762H650.891ZM663.781 505.348H656.762V510.703H664.977V513H653.938V495.938H664.895V498.258H656.762V503.074H663.781V505.348ZM677.059 508.605C677.059 508.199 676.973 507.844 676.801 507.539C676.637 507.227 676.398 506.953 676.086 506.719C675.781 506.484 675.414 506.281 674.984 506.109C674.562 505.93 674.102 505.766 673.602 505.617C672.93 505.422 672.266 505.18 671.609 504.891C670.961 504.602 670.379 504.25 669.863 503.836C669.355 503.414 668.941 502.926 668.621 502.371C668.309 501.809 668.152 501.16 668.152 500.426C668.152 499.691 668.309 499.035 668.621 498.457C668.941 497.871 669.367 497.375 669.898 496.969C670.43 496.562 671.047 496.25 671.75 496.031C672.453 495.812 673.188 495.703 673.953 495.703C674.773 495.703 675.539 495.832 676.25 496.09C676.969 496.34 677.594 496.695 678.125 497.156C678.664 497.609 679.09 498.156 679.402 498.797C679.715 499.43 679.875 500.133 679.883 500.906H677.07C677.031 500.477 676.938 500.086 676.789 499.734C676.648 499.375 676.445 499.066 676.18 498.809C675.922 498.551 675.605 498.352 675.23 498.211C674.855 498.07 674.422 498 673.93 498C673.508 498 673.117 498.055 672.758 498.164C672.398 498.273 672.086 498.434 671.82 498.645C671.562 498.855 671.359 499.109 671.211 499.406C671.062 499.703 670.988 500.039 670.988 500.414C670.988 500.812 671.09 501.16 671.293 501.457C671.496 501.746 671.762 502 672.09 502.219C672.418 502.438 672.793 502.629 673.215 502.793C673.645 502.949 674.09 503.094 674.551 503.227C675.262 503.438 675.941 503.699 676.59 504.012C677.238 504.316 677.809 504.688 678.301 505.125C678.793 505.555 679.184 506.055 679.473 506.625C679.762 507.195 679.906 507.848 679.906 508.582C679.906 509.34 679.746 510.008 679.426 510.586C679.105 511.164 678.676 511.648 678.137 512.039C677.598 512.43 676.973 512.727 676.262 512.93C675.551 513.125 674.809 513.223 674.035 513.223C673.512 513.223 672.992 513.172 672.477 513.07C671.961 512.969 671.465 512.816 670.988 512.613C670.52 512.41 670.082 512.16 669.676 511.863C669.27 511.559 668.914 511.211 668.609 510.82C668.312 510.422 668.078 509.98 667.906 509.496C667.734 509.004 667.645 508.465 667.637 507.879H670.461C670.5 508.395 670.613 508.844 670.801 509.227C670.988 509.609 671.238 509.93 671.551 510.188C671.863 510.438 672.227 510.629 672.641 510.762C673.062 510.887 673.527 510.949 674.035 510.949C674.457 510.949 674.852 510.898 675.219 510.797C675.586 510.695 675.906 510.547 676.18 510.352C676.453 510.148 676.668 509.902 676.824 509.613C676.98 509.316 677.059 508.98 677.059 508.605Z" fill="#00979D"/>
<path d="M417.605 441.605C417.605 441.199 417.52 440.844 417.348 440.539C417.184 440.227 416.945 439.953 416.633 439.719C416.328 439.484 415.961 439.281 415.531 439.109C415.109 438.93 414.648 438.766 414.148 438.617C413.477 438.422 412.812 438.18 412.156 437.891C411.508 437.602 410.926 437.25 410.41 436.836C409.902 436.414 409.488 435.926 409.168 435.371C408.855 434.809 408.699 434.16 408.699 433.426C408.699 432.691 408.855 432.035 409.168 431.457C409.488 430.871 409.914 430.375 410.445 429.969C410.977 429.562 411.594 429.25 412.297 429.031C413 428.812 413.734 428.703 414.5 428.703C415.32 428.703 416.086 428.832 416.797 429.09C417.516 429.34 418.141 429.695 418.672 430.156C419.211 430.609 419.637 431.156 419.949 431.797C420.262 432.43 420.422 433.133 420.43 433.906H417.617C417.578 433.477 417.484 433.086 417.336 432.734C417.195 432.375 416.992 432.066 416.727 431.809C416.469 431.551 416.152 431.352 415.777 431.211C415.402 431.07 414.969 431 414.477 431C414.055 431 413.664 431.055 413.305 431.164C412.945 431.273 412.633 431.434 412.367 431.645C412.109 431.855 411.906 432.109 411.758 432.406C411.609 432.703 411.535 433.039 411.535 433.414C411.535 433.812 411.637 434.16 411.84 434.457C412.043 434.746 412.309 435 412.637 435.219C412.965 435.438 413.34 435.629 413.762 435.793C414.191 435.949 414.637 436.094 415.098 436.227C415.809 436.438 416.488 436.699 417.137 437.012C417.785 437.316 418.355 437.688 418.848 438.125C419.34 438.555 419.73 439.055 420.02 439.625C420.309 440.195 420.453 440.848 420.453 441.582C420.453 442.34 420.293 443.008 419.973 443.586C419.652 444.164 419.223 444.648 418.684 445.039C418.145 445.43 417.52 445.727 416.809 445.93C416.098 446.125 415.355 446.223 414.582 446.223C414.059 446.223 413.539 446.172 413.023 446.07C412.508 445.969 412.012 445.816 411.535 445.613C411.066 445.41 410.629 445.16 410.223 444.863C409.816 444.559 409.461 444.211 409.156 443.82C408.859 443.422 408.625 442.98 408.453 442.496C408.281 442.004 408.191 441.465 408.184 440.879H411.008C411.047 441.395 411.16 441.844 411.348 442.227C411.535 442.609 411.785 442.93 412.098 443.188C412.41 443.438 412.773 443.629 413.188 443.762C413.609 443.887 414.074 443.949 414.582 443.949C415.004 443.949 415.398 443.898 415.766 443.797C416.133 443.695 416.453 443.547 416.727 443.352C417 443.148 417.215 442.902 417.371 442.613C417.527 442.316 417.605 441.98 417.605 441.605ZM433.156 438.348H426.137V443.703H434.352V446H423.312V428.938H434.27V431.258H426.137V436.074H433.156V438.348ZM449.094 440.762C449.016 441.582 448.82 442.332 448.508 443.012C448.195 443.684 447.781 444.262 447.266 444.746C446.75 445.223 446.141 445.594 445.438 445.859C444.742 446.117 443.965 446.246 443.105 446.246C442.066 446.246 441.16 446.047 440.387 445.648C439.613 445.242 438.969 444.695 438.453 444.008C437.938 443.32 437.551 442.516 437.293 441.594C437.035 440.672 436.902 439.688 436.895 438.641V436.309C436.902 435.27 437.039 434.289 437.305 433.367C437.57 432.438 437.961 431.629 438.477 430.941C439 430.246 439.648 429.699 440.422 429.301C441.195 428.895 442.094 428.691 443.117 428.691C444.016 428.691 444.816 428.824 445.52 429.09C446.223 429.355 446.824 429.73 447.324 430.215C447.824 430.699 448.223 431.289 448.52 431.984C448.816 432.68 449.008 433.453 449.094 434.305H446.281C446.234 433.805 446.137 433.352 445.988 432.945C445.848 432.531 445.652 432.18 445.402 431.891C445.152 431.594 444.836 431.367 444.453 431.211C444.078 431.055 443.633 430.977 443.117 430.977C442.484 430.977 441.953 431.121 441.523 431.41C441.094 431.699 440.746 432.09 440.48 432.582C440.215 433.066 440.023 433.629 439.906 434.27C439.797 434.91 439.742 435.582 439.742 436.285V438.641C439.742 439.375 439.797 440.066 439.906 440.715C440.023 441.355 440.211 441.918 440.469 442.402C440.727 442.887 441.07 443.27 441.5 443.551C441.93 443.832 442.465 443.973 443.105 443.973C444.09 443.973 444.84 443.695 445.355 443.141C445.871 442.578 446.176 441.785 446.27 440.762H449.094ZM463.086 428.938L463.109 440.363C463.102 441.238 462.961 442.039 462.688 442.766C462.414 443.484 462.031 444.102 461.539 444.617C461.047 445.133 460.449 445.531 459.746 445.812C459.051 446.094 458.27 446.234 457.402 446.234C456.559 446.234 455.793 446.094 455.105 445.812C454.418 445.531 453.828 445.137 453.336 444.629C452.844 444.113 452.461 443.496 452.188 442.777C451.914 442.051 451.773 441.246 451.766 440.363L451.789 428.938H454.555L454.578 440.363C454.586 440.887 454.652 441.367 454.777 441.805C454.902 442.242 455.082 442.621 455.316 442.941C455.551 443.254 455.84 443.5 456.184 443.68C456.535 443.852 456.941 443.938 457.402 443.938C457.871 443.938 458.285 443.852 458.645 443.68C459.004 443.5 459.305 443.254 459.547 442.941C459.789 442.621 459.973 442.242 460.098 441.805C460.223 441.367 460.289 440.887 460.297 440.363L460.32 428.938H463.086ZM472.121 439.344H469.262V446H466.449V428.938H471.84C472.715 428.945 473.52 429.059 474.254 429.277C474.996 429.488 475.637 429.809 476.176 430.238C476.715 430.66 477.133 431.191 477.43 431.832C477.727 432.473 477.875 433.223 477.875 434.082C477.875 434.66 477.797 435.188 477.641 435.664C477.492 436.133 477.281 436.559 477.008 436.941C476.734 437.324 476.406 437.66 476.023 437.949C475.641 438.238 475.219 438.484 474.758 438.688L478.367 445.859V446H475.367L472.121 439.344ZM469.262 437.07H471.852C472.32 437.07 472.75 437.004 473.141 436.871C473.531 436.738 473.867 436.551 474.148 436.309C474.438 436.059 474.66 435.758 474.816 435.406C474.973 435.047 475.051 434.637 475.051 434.176C475.051 433.699 474.977 433.277 474.828 432.91C474.68 432.543 474.465 432.234 474.184 431.984C473.91 431.734 473.574 431.547 473.176 431.422C472.777 431.289 472.332 431.219 471.84 431.211H469.262V437.07ZM481.191 428.938H491.34V431.27H487.648V443.68H491.34V446H481.191V443.68H484.801V431.27H481.191V428.938ZM507.312 431.258H502.074V446H499.273V431.258H494.07V428.938H507.312V431.258ZM515.117 437.094L518.668 428.938H521.809L516.488 439.871L516.465 446H513.734L513.711 439.801L508.426 428.938H511.566L515.117 437.094ZM546.746 442.039H541.414L540.242 446H537.336L542.879 428.938H545.352L550.789 446H547.895L546.746 442.039ZM542.129 439.637H546.043L544.109 432.945L542.129 439.637ZM555.91 439.461V446H553.098V428.938H558.805C559.656 428.945 560.441 429.074 561.16 429.324C561.887 429.566 562.512 429.918 563.035 430.379C563.559 430.832 563.965 431.387 564.254 432.043C564.551 432.691 564.699 433.426 564.699 434.246C564.699 435.043 564.551 435.762 564.254 436.402C563.965 437.043 563.559 437.59 563.035 438.043C562.512 438.496 561.887 438.844 561.16 439.086C560.441 439.328 559.656 439.453 558.805 439.461H555.91ZM555.91 437.188H558.805C559.281 437.188 559.707 437.117 560.082 436.977C560.457 436.828 560.777 436.625 561.043 436.367C561.309 436.109 561.512 435.801 561.652 435.441C561.793 435.082 561.863 434.691 561.863 434.27C561.863 433.824 561.793 433.414 561.652 433.039C561.512 432.664 561.309 432.344 561.043 432.078C560.777 431.805 560.457 431.594 560.082 431.445C559.707 431.297 559.281 431.219 558.805 431.211H555.91V437.188ZM567.676 428.938H577.824V431.27H574.133V443.68H577.824V446H567.676V443.68H571.285V431.27H567.676V428.938ZM590.574 441.605C590.574 441.199 590.488 440.844 590.316 440.539C590.152 440.227 589.914 439.953 589.602 439.719C589.297 439.484 588.93 439.281 588.5 439.109C588.078 438.93 587.617 438.766 587.117 438.617C586.445 438.422 585.781 438.18 585.125 437.891C584.477 437.602 583.895 437.25 583.379 436.836C582.871 436.414 582.457 435.926 582.137 435.371C581.824 434.809 581.668 434.16 581.668 433.426C581.668 432.691 581.824 432.035 582.137 431.457C582.457 430.871 582.883 430.375 583.414 429.969C583.945 429.562 584.562 429.25 585.266 429.031C585.969 428.812 586.703 428.703 587.469 428.703C588.289 428.703 589.055 428.832 589.766 429.09C590.484 429.34 591.109 429.695 591.641 430.156C592.18 430.609 592.605 431.156 592.918 431.797C593.23 432.43 593.391 433.133 593.398 433.906H590.586C590.547 433.477 590.453 433.086 590.305 432.734C590.164 432.375 589.961 432.066 589.695 431.809C589.438 431.551 589.121 431.352 588.746 431.211C588.371 431.07 587.938 431 587.445 431C587.023 431 586.633 431.055 586.273 431.164C585.914 431.273 585.602 431.434 585.336 431.645C585.078 431.855 584.875 432.109 584.727 432.406C584.578 432.703 584.504 433.039 584.504 433.414C584.504 433.812 584.605 434.16 584.809 434.457C585.012 434.746 585.277 435 585.605 435.219C585.934 435.438 586.309 435.629 586.73 435.793C587.16 435.949 587.605 436.094 588.066 436.227C588.777 436.438 589.457 436.699 590.105 437.012C590.754 437.316 591.324 437.688 591.816 438.125C592.309 438.555 592.699 439.055 592.988 439.625C593.277 440.195 593.422 440.848 593.422 441.582C593.422 442.34 593.262 443.008 592.941 443.586C592.621 444.164 592.191 444.648 591.652 445.039C591.113 445.43 590.488 445.727 589.777 445.93C589.066 446.125 588.324 446.223 587.551 446.223C587.027 446.223 586.508 446.172 585.992 446.07C585.477 445.969 584.98 445.816 584.504 445.613C584.035 445.41 583.598 445.16 583.191 444.863C582.785 444.559 582.43 444.211 582.125 443.82C581.828 443.422 581.594 442.98 581.422 442.496C581.25 442.004 581.16 441.465 581.152 440.879H583.977C584.016 441.395 584.129 441.844 584.316 442.227C584.504 442.609 584.754 442.93 585.066 443.188C585.379 443.438 585.742 443.629 586.156 443.762C586.578 443.887 587.043 443.949 587.551 443.949C587.973 443.949 588.367 443.898 588.734 443.797C589.102 443.695 589.422 443.547 589.695 443.352C589.969 443.148 590.184 442.902 590.34 442.613C590.496 442.316 590.574 441.98 590.574 441.605Z" fill="#00979D"/>
<path d="M412.074 334.938L414.195 342.309L416.539 334.938H420.031V352H417.383V346.141L417.547 338.664L414.922 346.844H413.445L411.066 338.945L411.23 346.141V352H408.582V334.938H412.074ZM423.148 352V334.938H428.598C429.418 334.945 430.184 335.039 430.895 335.219C431.613 335.398 432.238 335.676 432.77 336.051C433.309 336.426 433.73 336.906 434.035 337.492C434.34 338.07 434.488 338.758 434.48 339.555C434.473 340.398 434.238 341.121 433.777 341.723C433.316 342.316 432.695 342.777 431.914 343.105C432.391 343.238 432.812 343.43 433.18 343.68C433.555 343.922 433.867 344.215 434.117 344.559C434.367 344.902 434.559 345.285 434.691 345.707C434.824 346.121 434.891 346.562 434.891 347.031C434.891 347.844 434.742 348.559 434.445 349.176C434.148 349.793 433.734 350.309 433.203 350.723C432.68 351.137 432.055 351.453 431.328 351.672C430.609 351.883 429.832 351.992 428.996 352H423.148ZM425.973 344.266V349.703H429.043C429.488 349.695 429.895 349.629 430.262 349.504C430.629 349.371 430.945 349.191 431.211 348.965C431.477 348.738 431.684 348.461 431.832 348.133C431.988 347.805 432.066 347.438 432.066 347.031C432.066 346.602 432 346.219 431.867 345.883C431.734 345.539 431.543 345.25 431.293 345.016C431.043 344.781 430.738 344.602 430.379 344.477C430.02 344.344 429.617 344.273 429.172 344.266H425.973ZM425.973 342.121H428.668C429.09 342.113 429.48 342.059 429.84 341.957C430.207 341.848 430.523 341.691 430.789 341.488C431.055 341.277 431.266 341.023 431.422 340.727C431.578 340.422 431.656 340.074 431.656 339.684C431.656 339.254 431.582 338.887 431.434 338.582C431.285 338.277 431.074 338.027 430.801 337.832C430.535 337.637 430.219 337.496 429.852 337.41C429.484 337.316 429.082 337.266 428.645 337.258H425.973V342.121ZM447.57 344.348H440.551V349.703H448.766V352H437.727V334.938H448.684V337.258H440.551V342.074H447.57V344.348ZM451.848 352V334.938H456.02C457.191 334.945 458.242 335.141 459.172 335.523C460.109 335.906 460.902 336.445 461.551 337.141C462.207 337.836 462.711 338.668 463.062 339.637C463.414 340.598 463.594 341.664 463.602 342.836V344.125C463.594 345.297 463.414 346.367 463.062 347.336C462.711 348.297 462.211 349.125 461.562 349.82C460.914 350.508 460.129 351.043 459.207 351.426C458.285 351.809 457.25 352 456.102 352H451.848ZM454.707 337.211V349.738H456.102C456.875 349.73 457.551 349.594 458.129 349.328C458.707 349.055 459.188 348.676 459.57 348.191C459.961 347.699 460.25 347.109 460.438 346.422C460.633 345.734 460.734 344.969 460.742 344.125V342.812C460.734 341.992 460.633 341.242 460.438 340.562C460.25 339.883 459.961 339.297 459.57 338.805C459.18 338.305 458.688 337.918 458.094 337.645C457.508 337.363 456.816 337.219 456.02 337.211H454.707ZM492.383 344.57C492.383 345.578 492.254 346.547 491.996 347.477C491.738 348.398 491.352 349.215 490.836 349.926C490.328 350.629 489.688 351.191 488.914 351.613C488.148 352.027 487.25 352.234 486.219 352.234C485.195 352.234 484.305 352.023 483.547 351.602C482.789 351.18 482.156 350.617 481.648 349.914C481.148 349.203 480.77 348.387 480.512 347.465C480.262 346.543 480.137 345.578 480.137 344.57V342.391C480.137 341.719 480.191 341.062 480.301 340.422C480.418 339.781 480.586 339.18 480.805 338.617C481.031 338.047 481.309 337.523 481.637 337.047C481.973 336.562 482.363 336.148 482.809 335.805C483.262 335.461 483.77 335.191 484.332 334.996C484.902 334.801 485.527 334.703 486.207 334.703C487.238 334.703 488.137 334.914 488.902 335.336C489.676 335.758 490.32 336.324 490.836 337.035C491.352 337.738 491.738 338.555 491.996 339.484C492.254 340.414 492.383 341.383 492.383 342.391V344.57ZM489.559 342.367C489.551 341.727 489.492 341.09 489.383 340.457C489.273 339.824 489.09 339.262 488.832 338.77C488.574 338.27 488.23 337.867 487.801 337.562C487.379 337.25 486.848 337.094 486.207 337.094C485.574 337.094 485.047 337.25 484.625 337.562C484.211 337.867 483.879 338.27 483.629 338.77C483.387 339.27 483.215 339.836 483.113 340.469C483.02 341.094 482.969 341.727 482.961 342.367V344.57C482.969 345.211 483.023 345.848 483.125 346.48C483.227 347.105 483.398 347.672 483.641 348.18C483.891 348.68 484.223 349.086 484.637 349.398C485.059 349.711 485.586 349.867 486.219 349.867C486.859 349.867 487.391 349.711 487.812 349.398C488.242 349.086 488.586 348.68 488.844 348.18C489.102 347.68 489.281 347.113 489.383 346.48C489.492 345.848 489.551 345.211 489.559 344.57V342.367ZM504.09 347.605C504.09 347.199 504.004 346.844 503.832 346.539C503.668 346.227 503.43 345.953 503.117 345.719C502.812 345.484 502.445 345.281 502.016 345.109C501.594 344.93 501.133 344.766 500.633 344.617C499.961 344.422 499.297 344.18 498.641 343.891C497.992 343.602 497.41 343.25 496.895 342.836C496.387 342.414 495.973 341.926 495.652 341.371C495.34 340.809 495.184 340.16 495.184 339.426C495.184 338.691 495.34 338.035 495.652 337.457C495.973 336.871 496.398 336.375 496.93 335.969C497.461 335.562 498.078 335.25 498.781 335.031C499.484 334.812 500.219 334.703 500.984 334.703C501.805 334.703 502.57 334.832 503.281 335.09C504 335.34 504.625 335.695 505.156 336.156C505.695 336.609 506.121 337.156 506.434 337.797C506.746 338.43 506.906 339.133 506.914 339.906H504.102C504.062 339.477 503.969 339.086 503.82 338.734C503.68 338.375 503.477 338.066 503.211 337.809C502.953 337.551 502.637 337.352 502.262 337.211C501.887 337.07 501.453 337 500.961 337C500.539 337 500.148 337.055 499.789 337.164C499.43 337.273 499.117 337.434 498.852 337.645C498.594 337.855 498.391 338.109 498.242 338.406C498.094 338.703 498.02 339.039 498.02 339.414C498.02 339.812 498.121 340.16 498.324 340.457C498.527 340.746 498.793 341 499.121 341.219C499.449 341.438 499.824 341.629 500.246 341.793C500.676 341.949 501.121 342.094 501.582 342.227C502.293 342.438 502.973 342.699 503.621 343.012C504.27 343.316 504.84 343.688 505.332 344.125C505.824 344.555 506.215 345.055 506.504 345.625C506.793 346.195 506.938 346.848 506.938 347.582C506.938 348.34 506.777 349.008 506.457 349.586C506.137 350.164 505.707 350.648 505.168 351.039C504.629 351.43 504.004 351.727 503.293 351.93C502.582 352.125 501.84 352.223 501.066 352.223C500.543 352.223 500.023 352.172 499.508 352.07C498.992 351.969 498.496 351.816 498.02 351.613C497.551 351.41 497.113 351.16 496.707 350.863C496.301 350.559 495.945 350.211 495.641 349.82C495.344 349.422 495.109 348.98 494.938 348.496C494.766 348.004 494.676 347.465 494.668 346.879H497.492C497.531 347.395 497.645 347.844 497.832 348.227C498.02 348.609 498.27 348.93 498.582 349.188C498.895 349.438 499.258 349.629 499.672 349.762C500.094 349.887 500.559 349.949 501.066 349.949C501.488 349.949 501.883 349.898 502.25 349.797C502.617 349.695 502.938 349.547 503.211 349.352C503.484 349.148 503.699 348.902 503.855 348.613C504.012 348.316 504.09 347.98 504.09 347.605ZM532.332 348.039H527L525.828 352H522.922L528.465 334.938H530.938L536.375 352H533.48L532.332 348.039ZM527.715 345.637H531.629L529.695 338.945L527.715 345.637ZM541.496 345.461V352H538.684V334.938H544.391C545.242 334.945 546.027 335.074 546.746 335.324C547.473 335.566 548.098 335.918 548.621 336.379C549.145 336.832 549.551 337.387 549.84 338.043C550.137 338.691 550.285 339.426 550.285 340.246C550.285 341.043 550.137 341.762 549.84 342.402C549.551 343.043 549.145 343.59 548.621 344.043C548.098 344.496 547.473 344.844 546.746 345.086C546.027 345.328 545.242 345.453 544.391 345.461H541.496ZM541.496 343.188H544.391C544.867 343.188 545.293 343.117 545.668 342.977C546.043 342.828 546.363 342.625 546.629 342.367C546.895 342.109 547.098 341.801 547.238 341.441C547.379 341.082 547.449 340.691 547.449 340.27C547.449 339.824 547.379 339.414 547.238 339.039C547.098 338.664 546.895 338.344 546.629 338.078C546.363 337.805 546.043 337.594 545.668 337.445C545.293 337.297 544.867 337.219 544.391 337.211H541.496V343.188ZM553.262 334.938H563.41V337.27H559.719V349.68H563.41V352H553.262V349.68H556.871V337.27H553.262V334.938Z" fill="#00979D"/>
<path d="M412.074 214.938L414.195 222.309L416.539 214.938H420.031V232H417.383V226.141L417.547 218.664L414.922 226.844H413.445L411.066 218.945L411.23 226.141V232H408.582V214.938H412.074ZM423.148 232V214.938H428.598C429.418 214.945 430.184 215.039 430.895 215.219C431.613 215.398 432.238 215.676 432.77 216.051C433.309 216.426 433.73 216.906 434.035 217.492C434.34 218.07 434.488 218.758 434.48 219.555C434.473 220.398 434.238 221.121 433.777 221.723C433.316 222.316 432.695 222.777 431.914 223.105C432.391 223.238 432.812 223.43 433.18 223.68C433.555 223.922 433.867 224.215 434.117 224.559C434.367 224.902 434.559 225.285 434.691 225.707C434.824 226.121 434.891 226.562 434.891 227.031C434.891 227.844 434.742 228.559 434.445 229.176C434.148 229.793 433.734 230.309 433.203 230.723C432.68 231.137 432.055 231.453 431.328 231.672C430.609 231.883 429.832 231.992 428.996 232H423.148ZM425.973 224.266V229.703H429.043C429.488 229.695 429.895 229.629 430.262 229.504C430.629 229.371 430.945 229.191 431.211 228.965C431.477 228.738 431.684 228.461 431.832 228.133C431.988 227.805 432.066 227.438 432.066 227.031C432.066 226.602 432 226.219 431.867 225.883C431.734 225.539 431.543 225.25 431.293 225.016C431.043 224.781 430.738 224.602 430.379 224.477C430.02 224.344 429.617 224.273 429.172 224.266H425.973ZM425.973 222.121H428.668C429.09 222.113 429.48 222.059 429.84 221.957C430.207 221.848 430.523 221.691 430.789 221.488C431.055 221.277 431.266 221.023 431.422 220.727C431.578 220.422 431.656 220.074 431.656 219.684C431.656 219.254 431.582 218.887 431.434 218.582C431.285 218.277 431.074 218.027 430.801 217.832C430.535 217.637 430.219 217.496 429.852 217.41C429.484 217.316 429.082 217.266 428.645 217.258H425.973V222.121ZM447.57 224.348H440.551V229.703H448.766V232H437.727V214.938H448.684V217.258H440.551V222.074H447.57V224.348ZM451.848 232V214.938H456.02C457.191 214.945 458.242 215.141 459.172 215.523C460.109 215.906 460.902 216.445 461.551 217.141C462.207 217.836 462.711 218.668 463.062 219.637C463.414 220.598 463.594 221.664 463.602 222.836V224.125C463.594 225.297 463.414 226.367 463.062 227.336C462.711 228.297 462.211 229.125 461.562 229.82C460.914 230.508 460.129 231.043 459.207 231.426C458.285 231.809 457.25 232 456.102 232H451.848ZM454.707 217.211V229.738H456.102C456.875 229.73 457.551 229.594 458.129 229.328C458.707 229.055 459.188 228.676 459.57 228.191C459.961 227.699 460.25 227.109 460.438 226.422C460.633 225.734 460.734 224.969 460.742 224.125V222.812C460.734 221.992 460.633 221.242 460.438 220.562C460.25 219.883 459.961 219.297 459.57 218.805C459.18 218.305 458.688 217.918 458.094 217.645C457.508 217.363 456.816 217.219 456.02 217.211H454.707ZM489.09 228.039H483.758L482.586 232H479.68L485.223 214.938H487.695L493.133 232H490.238L489.09 228.039ZM484.473 225.637H488.387L486.453 218.945L484.473 225.637ZM498.254 225.461V232H495.441V214.938H501.148C502 214.945 502.785 215.074 503.504 215.324C504.23 215.566 504.855 215.918 505.379 216.379C505.902 216.832 506.309 217.387 506.598 218.043C506.895 218.691 507.043 219.426 507.043 220.246C507.043 221.043 506.895 221.762 506.598 222.402C506.309 223.043 505.902 223.59 505.379 224.043C504.855 224.496 504.23 224.844 503.504 225.086C502.785 225.328 502 225.453 501.148 225.461H498.254ZM498.254 223.188H501.148C501.625 223.188 502.051 223.117 502.426 222.977C502.801 222.828 503.121 222.625 503.387 222.367C503.652 222.109 503.855 221.801 503.996 221.441C504.137 221.082 504.207 220.691 504.207 220.27C504.207 219.824 504.137 219.414 503.996 219.039C503.855 218.664 503.652 218.344 503.387 218.078C503.121 217.805 502.801 217.594 502.426 217.445C502.051 217.297 501.625 217.219 501.148 217.211H498.254V223.188ZM512.668 225.461V232H509.855V214.938H515.562C516.414 214.945 517.199 215.074 517.918 215.324C518.645 215.566 519.27 215.918 519.793 216.379C520.316 216.832 520.723 217.387 521.012 218.043C521.309 218.691 521.457 219.426 521.457 220.246C521.457 221.043 521.309 221.762 521.012 222.402C520.723 223.043 520.316 223.59 519.793 224.043C519.27 224.496 518.645 224.844 517.918 225.086C517.199 225.328 516.414 225.453 515.562 225.461H512.668ZM512.668 223.188H515.562C516.039 223.188 516.465 223.117 516.84 222.977C517.215 222.828 517.535 222.625 517.801 222.367C518.066 222.109 518.27 221.801 518.41 221.441C518.551 221.082 518.621 220.691 518.621 220.27C518.621 219.824 518.551 219.414 518.41 219.039C518.27 218.664 518.066 218.344 517.801 218.078C517.535 217.805 517.215 217.594 516.84 217.445C516.465 217.297 516.039 217.219 515.562 217.211H512.668V223.188ZM527.141 229.703H535.273V232H524.328V214.938H527.141V229.703ZM538.848 214.938H548.996V217.27H545.305V229.68H548.996V232H538.848V229.68H542.457V217.27H538.848V214.938ZM564.406 226.762C564.328 227.582 564.133 228.332 563.82 229.012C563.508 229.684 563.094 230.262 562.578 230.746C562.062 231.223 561.453 231.594 560.75 231.859C560.055 232.117 559.277 232.246 558.418 232.246C557.379 232.246 556.473 232.047 555.699 231.648C554.926 231.242 554.281 230.695 553.766 230.008C553.25 229.32 552.863 228.516 552.605 227.594C552.348 226.672 552.215 225.688 552.207 224.641V222.309C552.215 221.27 552.352 220.289 552.617 219.367C552.883 218.438 553.273 217.629 553.789 216.941C554.312 216.246 554.961 215.699 555.734 215.301C556.508 214.895 557.406 214.691 558.43 214.691C559.328 214.691 560.129 214.824 560.832 215.09C561.535 215.355 562.137 215.73 562.637 216.215C563.137 216.699 563.535 217.289 563.832 217.984C564.129 218.68 564.32 219.453 564.406 220.305H561.594C561.547 219.805 561.449 219.352 561.301 218.945C561.16 218.531 560.965 218.18 560.715 217.891C560.465 217.594 560.148 217.367 559.766 217.211C559.391 217.055 558.945 216.977 558.43 216.977C557.797 216.977 557.266 217.121 556.836 217.41C556.406 217.699 556.059 218.09 555.793 218.582C555.527 219.066 555.336 219.629 555.219 220.27C555.109 220.91 555.055 221.582 555.055 222.285V224.641C555.055 225.375 555.109 226.066 555.219 226.715C555.336 227.355 555.523 227.918 555.781 228.402C556.039 228.887 556.383 229.27 556.812 229.551C557.242 229.832 557.777 229.973 558.418 229.973C559.402 229.973 560.152 229.695 560.668 229.141C561.184 228.578 561.488 227.785 561.582 226.762H564.406ZM575.574 228.039H570.242L569.07 232H566.164L571.707 214.938H574.18L579.617 232H576.723L575.574 228.039ZM570.957 225.637H574.871L572.938 218.945L570.957 225.637ZM593.797 217.258H588.559V232H585.758V217.258H580.555V214.938H593.797V217.258ZM607.695 224.57C607.695 225.578 607.566 226.547 607.309 227.477C607.051 228.398 606.664 229.215 606.148 229.926C605.641 230.629 605 231.191 604.227 231.613C603.461 232.027 602.562 232.234 601.531 232.234C600.508 232.234 599.617 232.023 598.859 231.602C598.102 231.18 597.469 230.617 596.961 229.914C596.461 229.203 596.082 228.387 595.824 227.465C595.574 226.543 595.449 225.578 595.449 224.57V222.391C595.449 221.719 595.504 221.062 595.613 220.422C595.73 219.781 595.898 219.18 596.117 218.617C596.344 218.047 596.621 217.523 596.949 217.047C597.285 216.562 597.676 216.148 598.121 215.805C598.574 215.461 599.082 215.191 599.645 214.996C600.215 214.801 600.84 214.703 601.52 214.703C602.551 214.703 603.449 214.914 604.215 215.336C604.988 215.758 605.633 216.324 606.148 217.035C606.664 217.738 607.051 218.555 607.309 219.484C607.566 220.414 607.695 221.383 607.695 222.391V224.57ZM604.871 222.367C604.863 221.727 604.805 221.09 604.695 220.457C604.586 219.824 604.402 219.262 604.145 218.77C603.887 218.27 603.543 217.867 603.113 217.562C602.691 217.25 602.16 217.094 601.52 217.094C600.887 217.094 600.359 217.25 599.938 217.562C599.523 217.867 599.191 218.27 598.941 218.77C598.699 219.27 598.527 219.836 598.426 220.469C598.332 221.094 598.281 221.727 598.273 222.367V224.57C598.281 225.211 598.336 225.848 598.438 226.48C598.539 227.105 598.711 227.672 598.953 228.18C599.203 228.68 599.535 229.086 599.949 229.398C600.371 229.711 600.898 229.867 601.531 229.867C602.172 229.867 602.703 229.711 603.125 229.398C603.555 229.086 603.898 228.68 604.156 228.18C604.414 227.68 604.594 227.113 604.695 226.48C604.805 225.848 604.863 225.211 604.871 224.57V222.367ZM621.582 232H618.746L613.191 220.258L613.18 232H610.332V214.938H613.18L618.711 226.645L618.734 214.938H621.582V232ZM650.891 226.762C650.812 227.582 650.617 228.332 650.305 229.012C649.992 229.684 649.578 230.262 649.062 230.746C648.547 231.223 647.938 231.594 647.234 231.859C646.539 232.117 645.762 232.246 644.902 232.246C643.863 232.246 642.957 232.047 642.184 231.648C641.41 231.242 640.766 230.695 640.25 230.008C639.734 229.32 639.348 228.516 639.09 227.594C638.832 226.672 638.699 225.688 638.691 224.641V222.309C638.699 221.27 638.836 220.289 639.102 219.367C639.367 218.438 639.758 217.629 640.273 216.941C640.797 216.246 641.445 215.699 642.219 215.301C642.992 214.895 643.891 214.691 644.914 214.691C645.812 214.691 646.613 214.824 647.316 215.09C648.02 215.355 648.621 215.73 649.121 216.215C649.621 216.699 650.02 217.289 650.316 217.984C650.613 218.68 650.805 219.453 650.891 220.305H648.078C648.031 219.805 647.934 219.352 647.785 218.945C647.645 218.531 647.449 218.18 647.199 217.891C646.949 217.594 646.633 217.367 646.25 217.211C645.875 217.055 645.43 216.977 644.914 216.977C644.281 216.977 643.75 217.121 643.32 217.41C642.891 217.699 642.543 218.09 642.277 218.582C642.012 219.066 641.82 219.629 641.703 220.27C641.594 220.91 641.539 221.582 641.539 222.285V224.641C641.539 225.375 641.594 226.066 641.703 226.715C641.82 227.355 642.008 227.918 642.266 228.402C642.523 228.887 642.867 229.27 643.297 229.551C643.727 229.832 644.262 229.973 644.902 229.973C645.887 229.973 646.637 229.695 647.152 229.141C647.668 228.578 647.973 227.785 648.066 226.762H650.891ZM665.352 224.57C665.352 225.578 665.223 226.547 664.965 227.477C664.707 228.398 664.32 229.215 663.805 229.926C663.297 230.629 662.656 231.191 661.883 231.613C661.117 232.027 660.219 232.234 659.188 232.234C658.164 232.234 657.273 232.023 656.516 231.602C655.758 231.18 655.125 230.617 654.617 229.914C654.117 229.203 653.738 228.387 653.48 227.465C653.23 226.543 653.105 225.578 653.105 224.57V222.391C653.105 221.719 653.16 221.062 653.27 220.422C653.387 219.781 653.555 219.18 653.773 218.617C654 218.047 654.277 217.523 654.605 217.047C654.941 216.562 655.332 216.148 655.777 215.805C656.23 215.461 656.738 215.191 657.301 214.996C657.871 214.801 658.496 214.703 659.176 214.703C660.207 214.703 661.105 214.914 661.871 215.336C662.645 215.758 663.289 216.324 663.805 217.035C664.32 217.738 664.707 218.555 664.965 219.484C665.223 220.414 665.352 221.383 665.352 222.391V224.57ZM662.527 222.367C662.52 221.727 662.461 221.09 662.352 220.457C662.242 219.824 662.059 219.262 661.801 218.77C661.543 218.27 661.199 217.867 660.77 217.562C660.348 217.25 659.816 217.094 659.176 217.094C658.543 217.094 658.016 217.25 657.594 217.562C657.18 217.867 656.848 218.27 656.598 218.77C656.355 219.27 656.184 219.836 656.082 220.469C655.988 221.094 655.938 221.727 655.93 222.367V224.57C655.938 225.211 655.992 225.848 656.094 226.48C656.195 227.105 656.367 227.672 656.609 228.18C656.859 228.68 657.191 229.086 657.605 229.398C658.027 229.711 658.555 229.867 659.188 229.867C659.828 229.867 660.359 229.711 660.781 229.398C661.211 229.086 661.555 228.68 661.812 228.18C662.07 227.68 662.25 227.113 662.352 226.48C662.461 225.848 662.52 225.211 662.527 224.57V222.367ZM668.059 232V214.938H672.23C673.402 214.945 674.453 215.141 675.383 215.523C676.32 215.906 677.113 216.445 677.762 217.141C678.418 217.836 678.922 218.668 679.273 219.637C679.625 220.598 679.805 221.664 679.812 222.836V224.125C679.805 225.297 679.625 226.367 679.273 227.336C678.922 228.297 678.422 229.125 677.773 229.82C677.125 230.508 676.34 231.043 675.418 231.426C674.496 231.809 673.461 232 672.312 232H668.059ZM670.918 217.211V229.738H672.312C673.086 229.73 673.762 229.594 674.34 229.328C674.918 229.055 675.398 228.676 675.781 228.191C676.172 227.699 676.461 227.109 676.648 226.422C676.844 225.734 676.945 224.969 676.953 224.125V222.812C676.945 221.992 676.844 221.242 676.648 220.562C676.461 219.883 676.172 219.297 675.781 218.805C675.391 218.305 674.898 217.918 674.305 217.645C673.719 217.363 673.027 217.219 672.23 217.211H670.918ZM692.609 224.348H685.59V229.703H693.805V232H682.766V214.938H693.723V217.258H685.59V222.074H692.609V224.348Z" fill="#00979D"/>
</g>
<defs>
<clipPath id="clip0">
<rect width="756" height="634" fill="white"/>
</clipPath>
<clipPath id="clip1">
<rect x="51" y="44" width="337.2" height="545" fill="white"/>
</clipPath>
</defs>
</svg>
