<svg width="1920" height="1072" viewBox="0 0 1920 1072" fill="none" xmlns="http://www.w3.org/2000/svg">
<rect width="1920" height="1072" fill="#363636"/>
<rect x="652.505" y="309.657" width="289.699" height="289.699" transform="rotate(45 652.505 309.657)" stroke="#DEF154" stroke-width="8"/>
<path d="M1076.83 148.828C1078.39 147.266 1078.39 144.734 1076.83 143.172L1051.37 117.716C1049.81 116.154 1047.28 116.154 1045.72 117.716C1044.15 119.278 1044.15 121.81 1045.72 123.373L1068.34 146L1045.72 168.627C1044.15 170.19 1044.15 172.722 1045.72 174.284C1047.28 175.846 1049.81 175.846 1051.37 174.284L1076.83 148.828ZM1013 150H1074V142H1013V150Z" fill="#EEE824"/>
<path d="M1371 153H1375V149H1371V153ZM1368.17 458.828C1369.73 460.391 1372.27 460.391 1373.83 458.828L1399.28 433.373C1400.85 431.81 1400.85 429.278 1399.28 427.716C1397.72 426.154 1395.19 426.154 1393.63 427.716L1371 450.343L1348.37 427.716C1346.81 426.154 1344.28 426.154 1342.72 427.716C1341.15 429.278 1341.15 431.81 1342.72 433.373L1368.17 458.828ZM1339 157H1371V149H1339V157ZM1367 153V456H1375V153H1367Z" fill="#EEE824"/>
<path d="M1371.5 925V929H1375.5V925H1371.5ZM1374.33 620.172C1372.77 618.609 1370.23 618.609 1368.67 620.172L1343.22 645.627C1341.65 647.19 1341.65 649.722 1343.22 651.284C1344.78 652.846 1347.31 652.846 1348.87 651.284L1371.5 628.657L1394.13 651.284C1395.69 652.846 1398.22 652.846 1399.78 651.284C1401.35 649.722 1401.35 647.19 1399.78 645.627L1374.33 620.172ZM1044 929H1371.5V921H1044V929ZM1375.5 925V777.5H1367.5V925H1375.5ZM1375.5 777.5V623H1367.5V777.5H1375.5Z" fill="#EEE824"/>
<path d="M1286.62 537.684V537.314C1286.62 536.166 1286.51 535.088 1286.3 534.08C1286.1 533.072 1285.79 532.164 1285.37 531.355C1285.1 530.852 1284.79 530.389 1284.44 529.967C1284.09 529.533 1283.69 529.164 1283.26 528.859C1282.72 528.461 1282.11 528.156 1281.41 527.945C1280.73 527.734 1279.98 527.629 1279.16 527.629C1278.57 527.629 1278.01 527.693 1277.49 527.822C1276.99 527.939 1276.52 528.121 1276.09 528.367C1275.78 528.531 1275.5 528.73 1275.23 528.965C1274.96 529.188 1274.71 529.434 1274.47 529.703V520H1269.58V547H1273.98L1274.21 544.979C1274.41 545.236 1274.62 545.477 1274.84 545.699C1275.06 545.91 1275.3 546.104 1275.56 546.279C1276.04 546.631 1276.58 546.895 1277.18 547.07C1277.79 547.258 1278.46 547.352 1279.2 547.352C1280.01 547.352 1280.75 547.246 1281.41 547.035C1282.09 546.836 1282.7 546.543 1283.24 546.156C1283.84 545.746 1284.36 545.23 1284.79 544.609C1285.23 543.988 1285.59 543.297 1285.86 542.535C1286.11 541.844 1286.29 541.094 1286.42 540.285C1286.55 539.465 1286.62 538.598 1286.62 537.684ZM1281.73 537.314V537.684C1281.73 538.176 1281.71 538.65 1281.66 539.107C1281.62 539.564 1281.56 539.986 1281.47 540.373C1281.35 540.9 1281.17 541.375 1280.94 541.797C1280.72 542.207 1280.42 542.541 1280.06 542.799C1279.8 542.986 1279.5 543.133 1279.15 543.238C1278.79 543.344 1278.4 543.396 1277.97 543.396C1277.46 543.396 1277.01 543.338 1276.62 543.221C1276.23 543.104 1275.89 542.934 1275.6 542.711C1275.35 542.535 1275.13 542.33 1274.95 542.096C1274.77 541.85 1274.61 541.58 1274.47 541.287V533.711C1274.58 533.488 1274.69 533.283 1274.82 533.096C1274.95 532.896 1275.09 532.721 1275.24 532.568C1275.56 532.252 1275.94 532.012 1276.39 531.848C1276.83 531.684 1277.35 531.602 1277.93 531.602C1278.37 531.602 1278.75 531.654 1279.09 531.76C1279.43 531.854 1279.74 532 1280.01 532.199C1280.42 532.516 1280.72 532.867 1280.92 533.254C1281.13 533.629 1281.3 534.057 1281.43 534.537C1281.54 534.947 1281.61 535.387 1281.66 535.855C1281.71 536.324 1281.73 536.811 1281.73 537.314ZM1290.79 537.314V537.684C1290.79 539.078 1290.99 540.367 1291.39 541.551C1291.79 542.723 1292.37 543.742 1293.15 544.609C1293.91 545.477 1294.85 546.156 1295.96 546.648C1297.08 547.129 1298.36 547.369 1299.79 547.369C1301.21 547.369 1302.48 547.129 1303.59 546.648C1304.7 546.156 1305.64 545.477 1306.4 544.609C1307.16 543.742 1307.74 542.723 1308.14 541.551C1308.54 540.367 1308.74 539.078 1308.74 537.684V537.314C1308.74 535.932 1308.54 534.654 1308.14 533.482C1307.74 532.299 1307.16 531.273 1306.4 530.406C1305.63 529.539 1304.68 528.859 1303.57 528.367C1302.46 527.875 1301.19 527.629 1299.76 527.629C1298.33 527.629 1297.06 527.875 1295.94 528.367C1294.84 528.859 1293.91 529.539 1293.15 530.406C1292.37 531.273 1291.79 532.299 1291.39 533.482C1290.99 534.654 1290.79 535.932 1290.79 537.314ZM1295.68 537.684V537.314C1295.68 536.541 1295.75 535.809 1295.91 535.117C1296.06 534.426 1296.3 533.816 1296.63 533.289C1296.96 532.762 1297.38 532.346 1297.89 532.041C1298.41 531.736 1299.03 531.584 1299.76 531.584C1300.49 531.584 1301.12 531.736 1301.64 532.041C1302.15 532.346 1302.57 532.762 1302.9 533.289C1303.22 533.816 1303.45 534.426 1303.61 535.117C1303.76 535.809 1303.83 536.541 1303.83 537.314V537.684C1303.83 538.48 1303.76 539.23 1303.61 539.934C1303.45 540.625 1303.22 541.229 1302.9 541.744C1302.57 542.271 1302.15 542.688 1301.64 542.992C1301.12 543.297 1300.51 543.449 1299.79 543.449C1299.05 543.449 1298.42 543.297 1297.89 542.992C1297.38 542.688 1296.96 542.271 1296.63 541.744C1296.3 541.229 1296.06 540.625 1295.91 539.934C1295.75 539.23 1295.68 538.48 1295.68 537.684ZM1312.77 537.314V537.684C1312.77 539.078 1312.97 540.367 1313.37 541.551C1313.77 542.723 1314.35 543.742 1315.13 544.609C1315.89 545.477 1316.83 546.156 1317.94 546.648C1319.07 547.129 1320.34 547.369 1321.77 547.369C1323.19 547.369 1324.46 547.129 1325.57 546.648C1326.68 546.156 1327.62 545.477 1328.38 544.609C1329.14 543.742 1329.72 542.723 1330.12 541.551C1330.52 540.367 1330.72 539.078 1330.72 537.684V537.314C1330.72 535.932 1330.52 534.654 1330.12 533.482C1329.72 532.299 1329.14 531.273 1328.38 530.406C1327.61 529.539 1326.67 528.859 1325.55 528.367C1324.44 527.875 1323.17 527.629 1321.74 527.629C1320.31 527.629 1319.04 527.875 1317.92 528.367C1316.82 528.859 1315.89 529.539 1315.13 530.406C1314.35 531.273 1313.77 532.299 1313.37 533.482C1312.97 534.654 1312.77 535.932 1312.77 537.314ZM1317.66 537.684V537.314C1317.66 536.541 1317.74 535.809 1317.89 535.117C1318.04 534.426 1318.28 533.816 1318.61 533.289C1318.94 532.762 1319.36 532.346 1319.87 532.041C1320.39 531.736 1321.01 531.584 1321.74 531.584C1322.48 531.584 1323.1 531.736 1323.62 532.041C1324.13 532.346 1324.56 532.762 1324.88 533.289C1325.2 533.816 1325.43 534.426 1325.59 535.117C1325.74 535.809 1325.82 536.541 1325.82 537.314V537.684C1325.82 538.48 1325.74 539.23 1325.59 539.934C1325.43 540.625 1325.2 541.229 1324.88 541.744C1324.56 542.271 1324.13 542.688 1323.62 542.992C1323.1 543.297 1322.49 543.449 1321.77 543.449C1321.03 543.449 1320.4 543.297 1319.87 542.992C1319.36 542.688 1318.94 542.271 1318.61 541.744C1318.28 541.229 1318.04 540.625 1317.89 539.934C1317.74 539.23 1317.66 538.48 1317.66 537.684ZM1344.39 523.322H1339.5V527.98H1335.16V531.584H1339.5V540.232C1339.5 541.486 1339.66 542.564 1339.99 543.467C1340.32 544.357 1340.79 545.09 1341.4 545.664C1342 546.25 1342.72 546.684 1343.56 546.965C1344.42 547.234 1345.37 547.369 1346.41 547.369C1346.95 547.369 1347.49 547.34 1348.04 547.281C1348.61 547.234 1349.14 547.164 1349.66 547.07C1350.18 546.977 1350.66 546.859 1351.12 546.719C1351.58 546.566 1351.97 546.391 1352.31 546.191L1351.84 542.834C1351.62 542.893 1351.35 542.951 1351.03 543.01C1350.73 543.068 1350.4 543.121 1350.05 543.168C1349.68 543.227 1349.3 543.273 1348.9 543.309C1348.52 543.344 1348.14 543.361 1347.76 543.361C1347.25 543.361 1346.78 543.303 1346.36 543.186C1345.95 543.068 1345.59 542.869 1345.3 542.588C1345.01 542.318 1344.78 541.955 1344.62 541.498C1344.46 541.029 1344.39 540.449 1344.39 539.758V531.584H1351.49V527.98H1344.39V523.322ZM1385.27 521.406H1379.14V547H1383.67V539.424L1383.46 527.928L1386.47 538.562H1388.91L1392.27 527.453L1392.06 539.424V547H1396.59V521.406H1390.46L1387.7 531.021L1385.27 521.406ZM1418.08 524.131V521.406H1400.1V525.396H1412.95L1402.96 547H1408.12L1418.08 524.131Z" fill="white"/>
<path d="M1561.62 537.684V537.314C1561.62 536.166 1561.51 535.088 1561.3 534.08C1561.1 533.072 1560.79 532.164 1560.37 531.355C1560.1 530.852 1559.79 530.389 1559.44 529.967C1559.09 529.533 1558.69 529.164 1558.26 528.859C1557.72 528.461 1557.11 528.156 1556.41 527.945C1555.73 527.734 1554.98 527.629 1554.16 527.629C1553.57 527.629 1553.01 527.693 1552.49 527.822C1551.99 527.939 1551.52 528.121 1551.09 528.367C1550.78 528.531 1550.5 528.73 1550.23 528.965C1549.96 529.188 1549.71 529.434 1549.47 529.703V520H1544.58V547H1548.98L1549.21 544.979C1549.41 545.236 1549.62 545.477 1549.84 545.699C1550.06 545.91 1550.3 546.104 1550.56 546.279C1551.04 546.631 1551.58 546.895 1552.18 547.07C1552.79 547.258 1553.46 547.352 1554.2 547.352C1555.01 547.352 1555.75 547.246 1556.41 547.035C1557.09 546.836 1557.7 546.543 1558.24 546.156C1558.84 545.746 1559.36 545.23 1559.79 544.609C1560.23 543.988 1560.59 543.297 1560.86 542.535C1561.11 541.844 1561.29 541.094 1561.42 540.285C1561.55 539.465 1561.62 538.598 1561.62 537.684ZM1556.73 537.314V537.684C1556.73 538.176 1556.71 538.65 1556.66 539.107C1556.62 539.564 1556.56 539.986 1556.47 540.373C1556.35 540.9 1556.17 541.375 1555.94 541.797C1555.72 542.207 1555.42 542.541 1555.06 542.799C1554.8 542.986 1554.5 543.133 1554.15 543.238C1553.79 543.344 1553.4 543.396 1552.97 543.396C1552.46 543.396 1552.01 543.338 1551.62 543.221C1551.23 543.104 1550.89 542.934 1550.6 542.711C1550.35 542.535 1550.13 542.33 1549.95 542.096C1549.77 541.85 1549.61 541.58 1549.47 541.287V533.711C1549.58 533.488 1549.69 533.283 1549.82 533.096C1549.95 532.896 1550.09 532.721 1550.24 532.568C1550.56 532.252 1550.94 532.012 1551.39 531.848C1551.83 531.684 1552.35 531.602 1552.93 531.602C1553.37 531.602 1553.75 531.654 1554.09 531.76C1554.43 531.854 1554.74 532 1555.01 532.199C1555.42 532.516 1555.72 532.867 1555.92 533.254C1556.13 533.629 1556.3 534.057 1556.43 534.537C1556.54 534.947 1556.61 535.387 1556.66 535.855C1556.71 536.324 1556.73 536.811 1556.73 537.314ZM1565.79 537.314V537.684C1565.79 539.078 1565.99 540.367 1566.39 541.551C1566.79 542.723 1567.37 543.742 1568.15 544.609C1568.91 545.477 1569.85 546.156 1570.96 546.648C1572.08 547.129 1573.36 547.369 1574.79 547.369C1576.21 547.369 1577.48 547.129 1578.59 546.648C1579.7 546.156 1580.64 545.477 1581.4 544.609C1582.16 543.742 1582.74 542.723 1583.14 541.551C1583.54 540.367 1583.74 539.078 1583.74 537.684V537.314C1583.74 535.932 1583.54 534.654 1583.14 533.482C1582.74 532.299 1582.16 531.273 1581.4 530.406C1580.63 529.539 1579.68 528.859 1578.57 528.367C1577.46 527.875 1576.19 527.629 1574.76 527.629C1573.33 527.629 1572.06 527.875 1570.94 528.367C1569.84 528.859 1568.91 529.539 1568.15 530.406C1567.37 531.273 1566.79 532.299 1566.39 533.482C1565.99 534.654 1565.79 535.932 1565.79 537.314ZM1570.68 537.684V537.314C1570.68 536.541 1570.75 535.809 1570.91 535.117C1571.06 534.426 1571.3 533.816 1571.63 533.289C1571.96 532.762 1572.38 532.346 1572.89 532.041C1573.41 531.736 1574.03 531.584 1574.76 531.584C1575.49 531.584 1576.12 531.736 1576.64 532.041C1577.15 532.346 1577.57 532.762 1577.9 533.289C1578.22 533.816 1578.45 534.426 1578.61 535.117C1578.76 535.809 1578.83 536.541 1578.83 537.314V537.684C1578.83 538.48 1578.76 539.23 1578.61 539.934C1578.45 540.625 1578.22 541.229 1577.9 541.744C1577.57 542.271 1577.15 542.688 1576.64 542.992C1576.12 543.297 1575.51 543.449 1574.79 543.449C1574.05 543.449 1573.42 543.297 1572.89 542.992C1572.38 542.688 1571.96 542.271 1571.63 541.744C1571.3 541.229 1571.06 540.625 1570.91 539.934C1570.75 539.23 1570.68 538.48 1570.68 537.684ZM1587.77 537.314V537.684C1587.77 539.078 1587.97 540.367 1588.37 541.551C1588.77 542.723 1589.35 543.742 1590.13 544.609C1590.89 545.477 1591.83 546.156 1592.94 546.648C1594.07 547.129 1595.34 547.369 1596.77 547.369C1598.19 547.369 1599.46 547.129 1600.57 546.648C1601.68 546.156 1602.62 545.477 1603.38 544.609C1604.14 543.742 1604.72 542.723 1605.12 541.551C1605.52 540.367 1605.72 539.078 1605.72 537.684V537.314C1605.72 535.932 1605.52 534.654 1605.12 533.482C1604.72 532.299 1604.14 531.273 1603.38 530.406C1602.61 529.539 1601.67 528.859 1600.55 528.367C1599.44 527.875 1598.17 527.629 1596.74 527.629C1595.31 527.629 1594.04 527.875 1592.92 528.367C1591.82 528.859 1590.89 529.539 1590.13 530.406C1589.35 531.273 1588.77 532.299 1588.37 533.482C1587.97 534.654 1587.77 535.932 1587.77 537.314ZM1592.66 537.684V537.314C1592.66 536.541 1592.74 535.809 1592.89 535.117C1593.04 534.426 1593.28 533.816 1593.61 533.289C1593.94 532.762 1594.36 532.346 1594.87 532.041C1595.39 531.736 1596.01 531.584 1596.74 531.584C1597.48 531.584 1598.1 531.736 1598.62 532.041C1599.13 532.346 1599.56 532.762 1599.88 533.289C1600.2 533.816 1600.43 534.426 1600.59 535.117C1600.74 535.809 1600.82 536.541 1600.82 537.314V537.684C1600.82 538.48 1600.74 539.23 1600.59 539.934C1600.43 540.625 1600.2 541.229 1599.88 541.744C1599.56 542.271 1599.13 542.688 1598.62 542.992C1598.1 543.297 1597.49 543.449 1596.77 543.449C1596.03 543.449 1595.4 543.297 1594.87 542.992C1594.36 542.688 1593.94 542.271 1593.61 541.744C1593.28 541.229 1593.04 540.625 1592.89 539.934C1592.74 539.23 1592.66 538.48 1592.66 537.684ZM1619.39 523.322H1614.5V527.98H1610.16V531.584H1614.5V540.232C1614.5 541.486 1614.66 542.564 1614.99 543.467C1615.32 544.357 1615.79 545.09 1616.4 545.664C1617 546.25 1617.72 546.684 1618.56 546.965C1619.42 547.234 1620.37 547.369 1621.41 547.369C1621.95 547.369 1622.49 547.34 1623.04 547.281C1623.61 547.234 1624.14 547.164 1624.66 547.07C1625.18 546.977 1625.66 546.859 1626.12 546.719C1626.58 546.566 1626.97 546.391 1627.31 546.191L1626.84 542.834C1626.62 542.893 1626.35 542.951 1626.03 543.01C1625.73 543.068 1625.4 543.121 1625.05 543.168C1624.68 543.227 1624.3 543.273 1623.9 543.309C1623.52 543.344 1623.14 543.361 1622.76 543.361C1622.25 543.361 1621.78 543.303 1621.36 543.186C1620.95 543.068 1620.59 542.869 1620.3 542.588C1620.01 542.318 1619.78 541.955 1619.62 541.498C1619.46 541.029 1619.39 540.449 1619.39 539.758V531.584H1626.49V527.98H1619.39V523.322ZM1660.27 521.406H1654.14V547H1658.67V539.424L1658.46 527.928L1661.47 538.562H1663.91L1667.27 527.453L1667.06 539.424V547H1671.59V521.406H1665.46L1662.7 531.021L1660.27 521.406ZM1690.64 537.49V521.406H1685.68L1674.92 538.387L1675.12 541.445H1685.75V547H1690.64V541.445H1693.61V537.49H1690.64ZM1679.72 537.49L1685.28 528.824L1685.75 527.98V537.49H1679.72Z" fill="white"/>
<path d="M655 146L655 142L651 142L651 146L655 146ZM756.328 148.828C757.89 147.266 757.89 144.734 756.328 143.172L730.873 117.716C729.31 116.154 726.778 116.154 725.216 117.716C723.654 119.278 723.654 121.811 725.216 123.373L747.843 146L725.216 168.627C723.654 170.19 723.654 172.722 725.216 174.284C726.778 175.846 729.31 175.846 730.873 174.284L756.328 148.828ZM655 150L753.5 150L753.5 142L655 142L655 150ZM659 279L659 212.5L651 212.5L651 279L659 279ZM659 212.5L659 146L651 146L651 212.5L659 212.5Z" fill="#EEE824"/>
<path d="M655 925L655 929L651 929L651 925L655 925ZM755.828 922.172C757.391 923.734 757.391 926.266 755.828 927.828L730.373 953.284C728.81 954.846 726.278 954.846 724.716 953.284C723.154 951.722 723.154 949.19 724.716 947.627L747.343 925L724.716 902.373C723.154 900.81 723.154 898.278 724.716 896.716C726.278 895.154 728.81 895.154 730.373 896.716L755.828 922.172ZM655 921L753 921L753 929L655 929L655 921ZM659 764L659 844.5L651 844.5L651 764L659 764ZM659 844.5L659 925L651 925L651 844.5L659 844.5Z" fill="#EEE824"/>
<path d="M404.828 517.828C406.391 516.266 406.391 513.734 404.828 512.172L379.373 486.716C377.81 485.154 375.278 485.154 373.716 486.716C372.154 488.278 372.154 490.81 373.716 492.373L396.343 515L373.716 537.627C372.154 539.19 372.154 541.722 373.716 543.284C375.278 544.846 377.81 544.846 379.373 543.284L404.828 517.828ZM313 519L402 519L402 511L313 511L313 519Z" fill="#EEE824"/>
<path d="M1510.83 541.828C1512.39 540.266 1512.39 537.734 1510.83 536.172L1485.37 510.716C1483.81 509.154 1481.28 509.154 1479.72 510.716C1478.15 512.278 1478.15 514.81 1479.72 516.373L1502.34 539L1479.72 561.627C1478.15 563.19 1478.15 565.722 1479.72 567.284C1481.28 568.846 1483.81 568.846 1485.37 567.284L1510.83 541.828ZM1452 543H1508V535H1452V543Z" fill="#EEE824"/>
<path d="M818.594 860.01V838.406H813.637V864H830.582V860.01H818.594ZM853.143 853.084V849.357C853.143 848.197 853.032 847.102 852.809 846.07C852.598 845.039 852.288 844.09 851.878 843.223C851.503 842.461 851.051 841.764 850.524 841.131C850.008 840.498 849.405 839.959 848.714 839.514C848.022 839.045 847.243 838.688 846.376 838.441C845.52 838.184 844.6 838.055 843.616 838.055C842.643 838.055 841.741 838.178 840.909 838.424C840.077 838.67 839.327 839.021 838.659 839.479C837.979 839.947 837.376 840.51 836.848 841.166C836.333 841.822 835.893 842.555 835.53 843.363C835.155 844.219 834.868 845.15 834.669 846.158C834.481 847.166 834.387 848.232 834.387 849.357V853.084C834.387 854.139 834.469 855.141 834.633 856.09C834.809 857.039 835.061 857.918 835.389 858.727C835.753 859.605 836.204 860.396 836.743 861.1C837.282 861.791 837.891 862.383 838.571 862.875C839.262 863.344 840.03 863.707 840.874 863.965C841.717 864.223 842.637 864.352 843.633 864.352C844.571 864.352 845.444 864.234 846.253 864C847.073 863.777 847.823 863.461 848.503 863.051C849.253 862.582 849.921 861.996 850.506 861.293C851.092 860.59 851.585 859.816 851.983 858.973C852.358 858.129 852.645 857.215 852.844 856.23C853.044 855.234 853.143 854.186 853.143 853.084ZM848.133 849.322V853.084C848.133 853.717 848.098 854.326 848.028 854.912C847.969 855.498 847.876 856.037 847.747 856.529C847.583 857.162 847.36 857.73 847.079 858.234C846.809 858.727 846.475 859.137 846.077 859.465C845.76 859.734 845.397 859.939 844.987 860.08C844.577 860.221 844.126 860.291 843.633 860.291C843.118 860.291 842.655 860.215 842.245 860.062C841.846 859.91 841.489 859.693 841.173 859.412C840.833 859.096 840.534 858.686 840.276 858.182C840.03 857.666 839.842 857.098 839.714 856.477C839.596 855.984 839.514 855.451 839.467 854.877C839.421 854.303 839.397 853.705 839.397 853.084V849.322C839.397 848.666 839.421 848.039 839.467 847.441C839.526 846.844 839.614 846.293 839.731 845.789C839.883 845.133 840.094 844.559 840.364 844.066C840.645 843.574 840.985 843.164 841.383 842.836C841.676 842.613 842.005 842.443 842.368 842.326C842.743 842.209 843.159 842.15 843.616 842.15C844.096 842.15 844.53 842.215 844.917 842.344C845.315 842.473 845.673 842.654 845.989 842.889C846.387 843.205 846.733 843.615 847.026 844.119C847.319 844.611 847.553 845.174 847.729 845.807C847.87 846.311 847.969 846.861 848.028 847.459C848.098 848.045 848.133 848.666 848.133 849.322ZM869.851 858.656L871.345 864H876.548L868.322 838.406H863.839L855.454 864H860.658L862.169 858.656H869.851ZM863.382 854.455L866.072 845.033L868.691 854.455H863.382ZM879.141 864H886.014C887.15 864 888.217 863.859 889.213 863.578C890.221 863.297 891.141 862.893 891.973 862.365C892.687 861.92 893.344 861.369 893.941 860.713C894.539 860.045 895.06 859.318 895.506 858.533C895.975 857.654 896.338 856.688 896.596 855.633C896.853 854.578 896.982 853.459 896.982 852.275V850.166C896.982 848.936 896.842 847.775 896.56 846.686C896.291 845.596 895.904 844.6 895.4 843.697C894.967 842.959 894.457 842.279 893.871 841.658C893.297 841.025 892.641 840.492 891.902 840.059C891.059 839.531 890.121 839.127 889.09 838.846C888.059 838.553 886.951 838.406 885.768 838.406H879.141V864ZM884.115 842.414H885.768C886.365 842.414 886.916 842.484 887.42 842.625C887.935 842.754 888.404 842.941 888.826 843.188C889.377 843.516 889.857 843.938 890.268 844.453C890.689 844.969 891.029 845.555 891.287 846.211C891.498 846.762 891.656 847.371 891.762 848.039C891.879 848.695 891.937 849.393 891.937 850.131V852.275C891.937 853.061 891.879 853.793 891.762 854.473C891.656 855.141 891.498 855.75 891.287 856.301C891.029 856.934 890.719 857.49 890.355 857.971C890.004 858.439 889.605 858.826 889.16 859.131C888.726 859.424 888.246 859.646 887.719 859.799C887.191 859.951 886.623 860.027 886.014 860.027H884.115V842.414ZM829.053 906.785V902.883H818.541V896.432H830.775V892.406H813.584V918H830.828V914.01H818.541V906.785H829.053ZM843.95 901.582L839.467 892.406H833.702L840.891 905.098L833.508 918H839.344L844.02 908.684L848.714 918H854.479L847.096 905.098L854.303 892.406H848.503L843.95 901.582ZM858.355 892.406V896.396H863.224V914.027H858.355V918H873.156V914.027H868.163V896.396H873.156V892.406H858.355ZM892.535 911.32C892.535 911.777 892.441 912.199 892.254 912.586C892.066 912.961 891.797 913.283 891.445 913.553C891.094 913.822 890.66 914.033 890.144 914.186C889.641 914.338 889.06 914.414 888.404 914.414C887.666 914.414 886.986 914.332 886.365 914.168C885.756 914.004 885.234 913.746 884.801 913.395C884.355 913.043 884.01 912.592 883.764 912.041C883.518 911.49 883.383 910.828 883.359 910.055H878.508C878.508 911.379 878.76 912.533 879.264 913.518C879.779 914.502 880.476 915.357 881.355 916.084C882.281 916.822 883.365 917.385 884.607 917.771C885.861 918.146 887.127 918.334 888.404 918.334C889.705 918.334 890.906 918.182 892.008 917.877C893.109 917.561 894.059 917.098 894.855 916.488C895.652 915.891 896.273 915.158 896.719 914.291C897.176 913.412 897.404 912.41 897.404 911.285C897.404 909.984 897.105 908.836 896.508 907.84C895.91 906.844 895.107 905.971 894.1 905.221C893.432 904.764 892.699 904.359 891.902 904.008C891.105 903.656 890.268 903.357 889.389 903.111C888.568 902.889 887.83 902.648 887.174 902.391C886.529 902.133 885.978 901.846 885.521 901.529C885.064 901.225 884.713 900.879 884.467 900.492C884.232 900.105 884.115 899.672 884.115 899.191C884.115 898.734 884.203 898.312 884.379 897.926C884.566 897.527 884.836 897.182 885.187 896.889C885.539 896.607 885.967 896.391 886.471 896.238C886.986 896.074 887.572 895.992 888.228 895.992C888.943 895.992 889.564 896.092 890.092 896.291C890.631 896.479 891.082 896.742 891.445 897.082C891.797 897.434 892.06 897.85 892.236 898.33C892.424 898.811 892.529 899.338 892.553 899.912H897.369C897.369 898.764 897.146 897.709 896.701 896.748C896.256 895.787 895.635 894.955 894.838 894.252C894.041 893.561 893.086 893.021 891.973 892.635C890.871 892.248 889.652 892.055 888.316 892.055C887.027 892.055 885.832 892.225 884.73 892.564C883.629 892.893 882.674 893.367 881.865 893.988C881.057 894.609 880.424 895.359 879.967 896.238C879.51 897.117 879.281 898.096 879.281 899.174C879.281 900.111 879.451 900.979 879.791 901.775C880.143 902.572 880.658 903.299 881.338 903.955C882.018 904.611 882.891 905.215 883.957 905.766C885.035 906.316 886.283 906.785 887.701 907.172C888.615 907.418 889.377 907.688 889.986 907.98C890.607 908.262 891.111 908.572 891.498 908.912C891.873 909.264 892.137 909.639 892.289 910.037C892.453 910.436 892.535 910.863 892.535 911.32ZM920.036 896.432V892.406H899.399V896.432H907.186V918H912.143V896.432H920.036ZM924.298 892.406V896.396H929.167V914.027H924.298V918H939.099V914.027H934.107V896.396H939.099V892.406H924.298ZM962.064 918V892.406H957.107L957.09 908.842L950.023 892.406H945.049V918H950.023V901.494L957.142 918H962.064ZM984.766 915.012L984.749 904.922H975.59V908.613H979.827L979.809 913.254C979.68 913.406 979.487 913.553 979.229 913.693C978.983 913.822 978.696 913.939 978.368 914.045C978.04 914.15 977.688 914.232 977.313 914.291C976.938 914.35 976.557 914.379 976.17 914.379C975.538 914.367 974.969 914.268 974.465 914.08C973.973 913.881 973.54 913.594 973.165 913.219C972.942 912.996 972.737 912.744 972.549 912.463C972.374 912.17 972.215 911.854 972.075 911.514C971.852 910.928 971.676 910.254 971.547 909.492C971.43 908.73 971.372 907.887 971.372 906.961V903.445C971.372 902.707 971.413 902.021 971.495 901.389C971.588 900.756 971.717 900.182 971.881 899.666C972.092 898.998 972.356 898.418 972.672 897.926C973 897.434 973.364 897.035 973.762 896.73C974.067 896.508 974.395 896.338 974.747 896.221C975.098 896.104 975.461 896.045 975.836 896.045C976.528 896.045 977.12 896.139 977.612 896.326C978.116 896.502 978.532 896.771 978.86 897.135C979.153 897.463 979.381 897.867 979.545 898.348C979.721 898.828 979.85 899.379 979.932 900H984.749C984.62 898.77 984.344 897.662 983.922 896.678C983.512 895.693 982.938 894.855 982.2 894.164C981.461 893.484 980.553 892.963 979.475 892.6C978.409 892.236 977.155 892.055 975.713 892.055C974.776 892.055 973.885 892.184 973.041 892.441C972.198 892.699 971.418 893.08 970.704 893.584C970.094 894.029 969.532 894.557 969.016 895.166C968.512 895.775 968.067 896.461 967.68 897.223C967.27 898.078 966.954 899.033 966.731 900.088C966.508 901.131 966.397 902.262 966.397 903.48V906.961C966.397 908.238 966.508 909.422 966.731 910.512C966.965 911.602 967.305 912.58 967.75 913.447C968.137 914.232 968.606 914.93 969.157 915.539C969.719 916.148 970.34 916.664 971.02 917.086C971.711 917.496 972.467 917.807 973.288 918.018C974.12 918.24 975.004 918.352 975.942 918.352C977.02 918.352 978.028 918.252 978.965 918.053C979.903 917.854 980.752 917.59 981.514 917.262C982.264 916.945 982.915 916.588 983.465 916.189C984.016 915.791 984.45 915.398 984.766 915.012ZM829.545 961.4V957.393H818.576V950.432H830.916V946.406H813.619V972H818.576V961.4H829.545ZM836.374 946.406V950.396H841.243V968.027H836.374V972H851.174V968.027H846.182V950.396H851.174V946.406H836.374ZM865.949 962.438L870.765 972H876.056V971.771L870.554 961.207C871.257 960.891 871.89 960.516 872.452 960.082C873.027 959.648 873.519 959.139 873.929 958.553C874.327 957.979 874.632 957.328 874.843 956.602C875.066 955.863 875.177 955.037 875.177 954.123C875.177 952.857 874.954 951.744 874.509 950.783C874.075 949.822 873.454 949.02 872.646 948.375C871.825 947.73 870.841 947.244 869.693 946.916C868.544 946.576 867.261 946.406 865.843 946.406H857.265V972H862.204V962.438H865.949ZM862.204 958.43V950.414H865.843C866.523 950.414 867.126 950.496 867.654 950.66C868.181 950.824 868.626 951.059 868.99 951.363C869.4 951.703 869.704 952.137 869.904 952.664C870.115 953.18 870.22 953.777 870.22 954.457C870.22 955.02 870.138 955.529 869.974 955.986C869.822 956.443 869.593 956.836 869.288 957.164C868.925 957.574 868.45 957.891 867.865 958.113C867.29 958.324 866.622 958.43 865.861 958.43H862.204ZM885.31 946.406H879.176V972H883.711V964.424L883.5 952.928L886.506 963.562H888.949L892.307 952.453L892.096 964.424V972H896.631V946.406H890.496L887.736 956.021L885.31 946.406ZM902.897 972H907.362L909.506 958.184L909.7 956.883L909.893 958.184L912.126 972H916.59L920.141 946.406H915.606L913.866 960.75L913.743 961.822L913.585 960.768L911.44 946.406H907.907L905.885 960.662L905.727 961.717L905.604 960.715L903.899 946.406H899.381L902.897 972ZM935.794 966.656L937.288 972H942.491L934.265 946.406H929.782L921.398 972H926.601L928.113 966.656H935.794ZM929.325 962.455L932.015 953.033L934.634 962.455H929.325ZM953.873 962.438L958.689 972H963.98V971.771L958.478 961.207C959.181 960.891 959.814 960.516 960.377 960.082C960.951 959.648 961.443 959.139 961.853 958.553C962.252 957.979 962.556 957.328 962.767 956.602C962.99 955.863 963.101 955.037 963.101 954.123C963.101 952.857 962.879 951.744 962.433 950.783C962 949.822 961.379 949.02 960.57 948.375C959.75 947.73 958.765 947.244 957.617 946.916C956.469 946.576 955.185 946.406 953.767 946.406H945.189V972H950.129V962.438H953.873ZM950.129 958.43V950.414H953.767C954.447 950.414 955.051 950.496 955.578 950.66C956.105 950.824 956.551 951.059 956.914 951.363C957.324 951.703 957.629 952.137 957.828 952.664C958.039 953.18 958.144 953.777 958.144 954.457C958.144 955.02 958.062 955.529 957.898 955.986C957.746 956.443 957.517 956.836 957.213 957.164C956.849 957.574 956.375 957.891 955.789 958.113C955.215 958.324 954.547 958.43 953.785 958.43H950.129ZM982.92 960.785V956.883H972.409V950.432H984.643V946.406H967.452V972H984.696V968.01H972.409V960.785H982.92Z" fill="white"/>
<path d="M606.178 858V832.406H601.221L601.203 848.842L594.137 832.406H589.162V858H594.137V841.494L601.256 858H606.178ZM629.143 847.084V843.357C629.143 842.197 629.032 841.102 628.809 840.07C628.598 839.039 628.288 838.09 627.878 837.223C627.503 836.461 627.051 835.764 626.524 835.131C626.008 834.498 625.405 833.959 624.714 833.514C624.022 833.045 623.243 832.688 622.376 832.441C621.52 832.184 620.6 832.055 619.616 832.055C618.643 832.055 617.741 832.178 616.909 832.424C616.077 832.67 615.327 833.021 614.659 833.479C613.979 833.947 613.376 834.51 612.848 835.166C612.333 835.822 611.893 836.555 611.53 837.363C611.155 838.219 610.868 839.15 610.669 840.158C610.481 841.166 610.387 842.232 610.387 843.357V847.084C610.387 848.139 610.469 849.141 610.633 850.09C610.809 851.039 611.061 851.918 611.389 852.727C611.753 853.605 612.204 854.396 612.743 855.1C613.282 855.791 613.891 856.383 614.571 856.875C615.262 857.344 616.03 857.707 616.874 857.965C617.717 858.223 618.637 858.352 619.633 858.352C620.571 858.352 621.444 858.234 622.253 858C623.073 857.777 623.823 857.461 624.503 857.051C625.253 856.582 625.921 855.996 626.506 855.293C627.092 854.59 627.585 853.816 627.983 852.973C628.358 852.129 628.645 851.215 628.844 850.23C629.044 849.234 629.143 848.186 629.143 847.084ZM624.133 843.322V847.084C624.133 847.717 624.098 848.326 624.028 848.912C623.969 849.498 623.876 850.037 623.747 850.529C623.583 851.162 623.36 851.73 623.079 852.234C622.809 852.727 622.475 853.137 622.077 853.465C621.76 853.734 621.397 853.939 620.987 854.08C620.577 854.221 620.126 854.291 619.633 854.291C619.118 854.291 618.655 854.215 618.245 854.062C617.846 853.91 617.489 853.693 617.173 853.412C616.833 853.096 616.534 852.686 616.276 852.182C616.03 851.666 615.842 851.098 615.714 850.477C615.596 849.984 615.514 849.451 615.467 848.877C615.421 848.303 615.397 847.705 615.397 847.084V843.322C615.397 842.666 615.421 842.039 615.467 841.441C615.526 840.844 615.614 840.293 615.731 839.789C615.883 839.133 616.094 838.559 616.364 838.066C616.645 837.574 616.985 837.164 617.383 836.836C617.676 836.613 618.005 836.443 618.368 836.326C618.743 836.209 619.159 836.15 619.616 836.15C620.096 836.15 620.53 836.215 620.917 836.344C621.315 836.473 621.673 836.654 621.989 836.889C622.387 837.205 622.733 837.615 623.026 838.119C623.319 838.611 623.553 839.174 623.729 839.807C623.87 840.311 623.969 840.861 624.028 841.459C624.098 842.045 624.133 842.666 624.133 843.322Z" fill="white"/>
<path d="M573.039 218.201L567.994 206.406H562.58L570.508 222.93L570.525 232H575.447L575.465 223.141L583.516 206.406H578.084L573.039 218.201ZM602.034 220.785V216.883H591.522V210.432H603.756V206.406H586.565V232H603.809V228.01H591.522V220.785H602.034ZM621.554 225.32C621.554 225.777 621.46 226.199 621.273 226.586C621.085 226.961 620.816 227.283 620.464 227.553C620.113 227.822 619.679 228.033 619.163 228.186C618.659 228.338 618.079 228.414 617.423 228.414C616.685 228.414 616.005 228.332 615.384 228.168C614.775 228.004 614.253 227.746 613.82 227.395C613.374 227.043 613.029 226.592 612.783 226.041C612.536 225.49 612.402 224.828 612.378 224.055H607.527C607.527 225.379 607.779 226.533 608.283 227.518C608.798 228.502 609.495 229.357 610.374 230.084C611.3 230.822 612.384 231.385 613.626 231.771C614.88 232.146 616.146 232.334 617.423 232.334C618.724 232.334 619.925 232.182 621.027 231.877C622.128 231.561 623.077 231.098 623.874 230.488C624.671 229.891 625.292 229.158 625.738 228.291C626.195 227.412 626.423 226.41 626.423 225.285C626.423 223.984 626.124 222.836 625.527 221.84C624.929 220.844 624.126 219.971 623.118 219.221C622.45 218.764 621.718 218.359 620.921 218.008C620.124 217.656 619.286 217.357 618.408 217.111C617.587 216.889 616.849 216.648 616.193 216.391C615.548 216.133 614.997 215.846 614.54 215.529C614.083 215.225 613.732 214.879 613.486 214.492C613.251 214.105 613.134 213.672 613.134 213.191C613.134 212.734 613.222 212.312 613.398 211.926C613.585 211.527 613.855 211.182 614.206 210.889C614.558 210.607 614.986 210.391 615.49 210.238C616.005 210.074 616.591 209.992 617.247 209.992C617.962 209.992 618.583 210.092 619.111 210.291C619.65 210.479 620.101 210.742 620.464 211.082C620.816 211.434 621.079 211.85 621.255 212.33C621.443 212.811 621.548 213.338 621.572 213.912H626.388C626.388 212.764 626.165 211.709 625.72 210.748C625.275 209.787 624.654 208.955 623.857 208.252C623.06 207.561 622.105 207.021 620.991 206.635C619.89 206.248 618.671 206.055 617.335 206.055C616.046 206.055 614.851 206.225 613.749 206.564C612.648 206.893 611.693 207.367 610.884 207.988C610.075 208.609 609.443 209.359 608.986 210.238C608.529 211.117 608.3 212.096 608.3 213.174C608.3 214.111 608.47 214.979 608.81 215.775C609.161 216.572 609.677 217.299 610.357 217.955C611.036 218.611 611.909 219.215 612.976 219.766C614.054 220.316 615.302 220.785 616.72 221.172C617.634 221.418 618.396 221.688 619.005 221.98C619.626 222.262 620.13 222.572 620.517 222.912C620.892 223.264 621.156 223.639 621.308 224.037C621.472 224.436 621.554 224.863 621.554 225.32Z" fill="white"/>
<path d="M1141.35 84.4062H1136.45L1136.43 101.369C1136.42 102.201 1136.33 102.934 1136.17 103.566C1136 104.199 1135.76 104.727 1135.43 105.148C1135.12 105.559 1134.74 105.869 1134.27 106.08C1133.81 106.279 1133.29 106.379 1132.69 106.379C1132.14 106.379 1131.65 106.285 1131.23 106.098C1130.81 105.898 1130.45 105.605 1130.16 105.219C1129.84 104.797 1129.6 104.264 1129.44 103.619C1129.28 102.975 1129.2 102.225 1129.19 101.369L1129.17 84.4062H1124.23L1124.21 101.369C1124.21 102.799 1124.41 104.076 1124.81 105.201C1125.22 106.314 1125.8 107.252 1126.54 108.014C1127.27 108.775 1128.16 109.355 1129.19 109.754C1130.23 110.152 1131.4 110.352 1132.69 110.352C1134.06 110.352 1135.28 110.152 1136.34 109.754C1137.42 109.355 1138.34 108.77 1139.09 107.996C1139.82 107.234 1140.39 106.297 1140.77 105.184C1141.17 104.07 1141.37 102.799 1141.37 101.369L1141.35 84.4062ZM1151.54 100.613H1155.35C1156.75 100.613 1158.01 100.414 1159.13 100.016C1160.26 99.6172 1161.22 99.0605 1162.02 98.3457C1162.8 97.6426 1163.4 96.8047 1163.83 95.832C1164.26 94.8594 1164.48 93.7988 1164.48 92.6504C1164.48 91.4199 1164.26 90.3008 1163.83 89.293C1163.4 88.2852 1162.8 87.418 1162.02 86.6914C1161.22 85.9766 1160.26 85.4199 1159.13 85.0215C1158.01 84.6113 1156.75 84.4062 1155.35 84.4062H1146.6V110H1151.54V100.613ZM1151.54 96.6055V88.4141H1155.35C1156.06 88.4141 1156.67 88.5254 1157.18 88.748C1157.7 88.9707 1158.13 89.2754 1158.48 89.6621C1158.82 90.0488 1159.07 90.5 1159.24 91.0156C1159.41 91.5312 1159.5 92.0879 1159.5 92.6855C1159.5 93.2012 1159.41 93.6992 1159.24 94.1797C1159.07 94.6484 1158.82 95.0645 1158.48 95.4277C1158.13 95.791 1157.7 96.0781 1157.18 96.2891C1156.67 96.5 1156.06 96.6055 1155.35 96.6055H1151.54ZM1173.56 106.01V84.4062H1168.6V110H1185.54V106.01H1173.56ZM1208.11 99.084V95.3574C1208.11 94.1973 1207.99 93.1016 1207.77 92.0703C1207.56 91.0391 1207.25 90.0898 1206.84 89.2227C1206.46 88.4609 1206.01 87.7637 1205.49 87.1309C1204.97 86.498 1204.37 85.959 1203.68 85.5137C1202.98 85.0449 1202.21 84.6875 1201.34 84.4414C1200.48 84.1836 1199.56 84.0547 1198.58 84.0547C1197.61 84.0547 1196.7 84.1777 1195.87 84.4238C1195.04 84.6699 1194.29 85.0215 1193.62 85.4785C1192.94 85.9473 1192.34 86.5098 1191.81 87.166C1191.29 87.8223 1190.86 88.5547 1190.49 89.3633C1190.12 90.2188 1189.83 91.1504 1189.63 92.1582C1189.44 93.166 1189.35 94.2324 1189.35 95.3574V99.084C1189.35 100.139 1189.43 101.141 1189.6 102.09C1189.77 103.039 1190.02 103.918 1190.35 104.727C1190.71 105.605 1191.17 106.396 1191.71 107.1C1192.24 107.791 1192.85 108.383 1193.53 108.875C1194.22 109.344 1194.99 109.707 1195.84 109.965C1196.68 110.223 1197.6 110.352 1198.6 110.352C1199.53 110.352 1200.41 110.234 1201.21 110C1202.04 109.777 1202.79 109.461 1203.46 109.051C1204.21 108.582 1204.88 107.996 1205.47 107.293C1206.05 106.59 1206.55 105.816 1206.95 104.973C1207.32 104.129 1207.61 103.215 1207.81 102.23C1208.01 101.234 1208.11 100.186 1208.11 99.084ZM1203.1 95.3223V99.084C1203.1 99.7168 1203.06 100.326 1202.99 100.912C1202.93 101.498 1202.84 102.037 1202.71 102.529C1202.54 103.162 1202.32 103.73 1202.04 104.234C1201.77 104.727 1201.44 105.137 1201.04 105.465C1200.72 105.734 1200.36 105.939 1199.95 106.08C1199.54 106.221 1199.09 106.291 1198.6 106.291C1198.08 106.291 1197.62 106.215 1197.21 106.062C1196.81 105.91 1196.45 105.693 1196.13 105.412C1195.79 105.096 1195.5 104.686 1195.24 104.182C1194.99 103.666 1194.8 103.098 1194.68 102.477C1194.56 101.984 1194.48 101.451 1194.43 100.877C1194.38 100.303 1194.36 99.7051 1194.36 99.084V95.3223C1194.36 94.666 1194.38 94.0391 1194.43 93.4414C1194.49 92.8438 1194.58 92.293 1194.69 91.7891C1194.85 91.1328 1195.06 90.5586 1195.33 90.0664C1195.61 89.5742 1195.95 89.1641 1196.35 88.8359C1196.64 88.6133 1196.97 88.4434 1197.33 88.3262C1197.71 88.209 1198.12 88.1504 1198.58 88.1504C1199.06 88.1504 1199.49 88.2148 1199.88 88.3438C1200.28 88.4727 1200.63 88.6543 1200.95 88.8887C1201.35 89.2051 1201.7 89.6152 1201.99 90.1191C1202.28 90.6113 1202.52 91.1738 1202.69 91.8066C1202.83 92.3105 1202.93 92.8613 1202.99 93.459C1203.06 94.0449 1203.1 94.666 1203.1 95.3223ZM1224.81 104.656L1226.31 110H1231.51L1223.28 84.4062H1218.8L1210.42 110H1215.62L1217.13 104.656H1224.81ZM1218.34 100.455L1221.03 91.0332L1223.65 100.455H1218.34ZM1234.1 110H1240.98C1242.11 110 1243.18 109.859 1244.18 109.578C1245.18 109.297 1246.1 108.893 1246.93 108.365C1247.65 107.92 1248.31 107.369 1248.9 106.713C1249.5 106.045 1250.02 105.318 1250.47 104.533C1250.94 103.654 1251.3 102.688 1251.56 101.633C1251.82 100.578 1251.94 99.459 1251.94 98.2754V96.166C1251.94 94.9355 1251.8 93.7754 1251.52 92.6855C1251.25 91.5957 1250.87 90.5996 1250.36 89.6973C1249.93 88.959 1249.42 88.2793 1248.83 87.6582C1248.26 87.0254 1247.6 86.4922 1246.86 86.0586C1246.02 85.5312 1245.08 85.127 1244.05 84.8457C1243.02 84.5527 1241.91 84.4062 1240.73 84.4062H1234.1V110ZM1239.08 88.4141H1240.73C1241.33 88.4141 1241.88 88.4844 1242.38 88.625C1242.9 88.7539 1243.37 88.9414 1243.79 89.1875C1244.34 89.5156 1244.82 89.9375 1245.23 90.4531C1245.65 90.9688 1245.99 91.5547 1246.25 92.2109C1246.46 92.7617 1246.62 93.3711 1246.72 94.0391C1246.84 94.6953 1246.9 95.3926 1246.9 96.1309V98.2754C1246.9 99.0605 1246.84 99.793 1246.72 100.473C1246.62 101.141 1246.46 101.75 1246.25 102.301C1245.99 102.934 1245.68 103.49 1245.32 103.971C1244.97 104.439 1244.57 104.826 1244.12 105.131C1243.69 105.424 1243.21 105.646 1242.68 105.799C1242.15 105.951 1241.59 106.027 1240.98 106.027H1239.08V88.4141ZM1141.18 164V138.406H1136.22L1136.2 154.842L1129.14 138.406H1124.16V164H1129.14V147.494L1136.26 164H1141.18ZM1162.03 152.785V148.883H1151.52V142.432H1163.76V138.406H1146.57V164H1163.81V160.01H1151.52V152.785H1162.03ZM1169.93 164H1174.4L1176.54 150.184L1176.74 148.883L1176.93 150.184L1179.16 164H1183.63L1187.18 138.406H1182.64L1180.9 152.75L1180.78 153.822L1180.62 152.768L1178.48 138.406H1174.94L1172.92 152.662L1172.76 153.717L1172.64 152.715L1170.94 138.406H1166.42L1169.93 164ZM1140.54 207.4V203.393H1129.58V196.432H1141.92V192.406H1124.62V218H1129.58V207.4H1140.54ZM1147.37 192.406V196.396H1152.24V214.027H1147.37V218H1162.17V214.027H1157.18V196.396H1162.17V192.406H1147.37ZM1176.95 208.438L1181.76 218H1187.06V217.771L1181.55 207.207C1182.26 206.891 1182.89 206.516 1183.45 206.082C1184.03 205.648 1184.52 205.139 1184.93 204.553C1185.33 203.979 1185.63 203.328 1185.84 202.602C1186.07 201.863 1186.18 201.037 1186.18 200.123C1186.18 198.857 1185.95 197.744 1185.51 196.783C1185.08 195.822 1184.45 195.02 1183.65 194.375C1182.83 193.73 1181.84 193.244 1180.69 192.916C1179.54 192.576 1178.26 192.406 1176.84 192.406H1168.26V218H1173.2V208.438H1176.95ZM1173.2 204.43V196.414H1176.84C1177.52 196.414 1178.13 196.496 1178.65 196.66C1179.18 196.824 1179.63 197.059 1179.99 197.363C1180.4 197.703 1180.7 198.137 1180.9 198.664C1181.11 199.18 1181.22 199.777 1181.22 200.457C1181.22 201.02 1181.14 201.529 1180.97 201.986C1180.82 202.443 1180.59 202.836 1180.29 203.164C1179.93 203.574 1179.45 203.891 1178.86 204.113C1178.29 204.324 1177.62 204.43 1176.86 204.43H1173.2ZM1196.31 192.406H1190.18V218H1194.71V210.424L1194.5 198.928L1197.51 209.562H1199.95L1203.31 198.453L1203.1 210.424V218H1207.63V192.406H1201.5L1198.74 202.021L1196.31 192.406ZM1213.9 218H1218.36L1220.51 204.184L1220.7 202.883L1220.89 204.184L1223.13 218H1227.59L1231.14 192.406H1226.61L1224.87 206.75L1224.74 207.822L1224.58 206.768L1222.44 192.406H1218.91L1216.89 206.662L1216.73 207.717L1216.6 206.715L1214.9 192.406H1210.38L1213.9 218ZM1246.79 212.656L1248.29 218H1253.49L1245.26 192.406H1240.78L1232.4 218H1237.6L1239.11 212.656H1246.79ZM1240.33 208.455L1243.01 199.033L1245.63 208.455H1240.33ZM1264.87 208.438L1269.69 218H1274.98V217.771L1269.48 207.207C1270.18 206.891 1270.81 206.516 1271.38 206.082C1271.95 205.648 1272.44 205.139 1272.85 204.553C1273.25 203.979 1273.56 203.328 1273.77 202.602C1273.99 201.863 1274.1 201.037 1274.1 200.123C1274.1 198.857 1273.88 197.744 1273.43 196.783C1273 195.822 1272.38 195.02 1271.57 194.375C1270.75 193.73 1269.77 193.244 1268.62 192.916C1267.47 192.576 1266.19 192.406 1264.77 192.406H1256.19V218H1261.13V208.438H1264.87ZM1261.13 204.43V196.414H1264.77C1265.45 196.414 1266.05 196.496 1266.58 196.66C1267.11 196.824 1267.55 197.059 1267.91 197.363C1268.32 197.703 1268.63 198.137 1268.83 198.664C1269.04 199.18 1269.14 199.777 1269.14 200.457C1269.14 201.02 1269.06 201.529 1268.9 201.986C1268.75 202.443 1268.52 202.836 1268.21 203.164C1267.85 203.574 1267.37 203.891 1266.79 204.113C1266.21 204.324 1265.55 204.43 1264.79 204.43H1261.13ZM1293.92 206.785V202.883H1283.41V196.432H1295.64V192.406H1278.45V218H1295.7V214.01H1283.41V206.785H1293.92Z" fill="white"/>
<path d="M813.973 113H818.438L820.582 99.1836L820.775 97.8828L820.969 99.1836L823.201 113H827.666L831.217 87.4062H826.682L824.941 101.75L824.818 102.822L824.66 101.768L822.516 87.4062H818.982L816.961 101.662L816.803 102.717L816.68 101.715L814.975 87.4062H810.457L813.973 113ZM846.87 107.656L848.364 113H853.567L845.34 87.4062H840.858L832.473 113H837.676L839.188 107.656H846.87ZM840.401 103.455L843.09 94.0332L845.71 103.455H840.401ZM857.355 87.4062V91.3965H862.224V109.027H857.355V113H872.156V109.027H867.163V91.3965H872.156V87.4062H857.355ZM897.055 91.4316V87.4062H876.418V91.4316H884.205V113H889.162V91.4316H897.055ZM828.545 156.4V152.393H817.576V145.432H829.916V141.406H812.619V167H817.576V156.4H828.545ZM852.143 156.084V152.357C852.143 151.197 852.032 150.102 851.809 149.07C851.598 148.039 851.288 147.09 850.878 146.223C850.503 145.461 850.051 144.764 849.524 144.131C849.008 143.498 848.405 142.959 847.714 142.514C847.022 142.045 846.243 141.688 845.376 141.441C844.52 141.184 843.6 141.055 842.616 141.055C841.643 141.055 840.741 141.178 839.909 141.424C839.077 141.67 838.327 142.021 837.659 142.479C836.979 142.947 836.376 143.51 835.848 144.166C835.333 144.822 834.893 145.555 834.53 146.363C834.155 147.219 833.868 148.15 833.669 149.158C833.481 150.166 833.387 151.232 833.387 152.357V156.084C833.387 157.139 833.469 158.141 833.633 159.09C833.809 160.039 834.061 160.918 834.389 161.727C834.753 162.605 835.204 163.396 835.743 164.1C836.282 164.791 836.891 165.383 837.571 165.875C838.262 166.344 839.03 166.707 839.874 166.965C840.717 167.223 841.637 167.352 842.633 167.352C843.571 167.352 844.444 167.234 845.253 167C846.073 166.777 846.823 166.461 847.503 166.051C848.253 165.582 848.921 164.996 849.506 164.293C850.092 163.59 850.585 162.816 850.983 161.973C851.358 161.129 851.645 160.215 851.844 159.23C852.044 158.234 852.143 157.186 852.143 156.084ZM847.133 152.322V156.084C847.133 156.717 847.098 157.326 847.028 157.912C846.969 158.498 846.876 159.037 846.747 159.529C846.583 160.162 846.36 160.73 846.079 161.234C845.809 161.727 845.475 162.137 845.077 162.465C844.76 162.734 844.397 162.939 843.987 163.08C843.577 163.221 843.126 163.291 842.633 163.291C842.118 163.291 841.655 163.215 841.245 163.062C840.846 162.91 840.489 162.693 840.173 162.412C839.833 162.096 839.534 161.686 839.276 161.182C839.03 160.666 838.842 160.098 838.714 159.477C838.596 158.984 838.514 158.451 838.467 157.877C838.421 157.303 838.397 156.705 838.397 156.084V152.322C838.397 151.666 838.421 151.039 838.467 150.441C838.526 149.844 838.614 149.293 838.731 148.789C838.883 148.133 839.094 147.559 839.364 147.066C839.645 146.574 839.985 146.164 840.383 145.836C840.676 145.613 841.005 145.443 841.368 145.326C841.743 145.209 842.159 145.15 842.616 145.15C843.096 145.15 843.53 145.215 843.917 145.344C844.315 145.473 844.673 145.654 844.989 145.889C845.387 146.205 845.733 146.615 846.026 147.119C846.319 147.611 846.553 148.174 846.729 148.807C846.87 149.311 846.969 149.861 847.028 150.459C847.098 151.045 847.133 151.666 847.133 152.322ZM864.949 157.438L869.765 167H875.056V166.771L869.554 156.207C870.257 155.891 870.89 155.516 871.452 155.082C872.027 154.648 872.519 154.139 872.929 153.553C873.327 152.979 873.632 152.328 873.843 151.602C874.066 150.863 874.177 150.037 874.177 149.123C874.177 147.857 873.954 146.744 873.509 145.783C873.075 144.822 872.454 144.02 871.646 143.375C870.825 142.73 869.841 142.244 868.693 141.916C867.544 141.576 866.261 141.406 864.843 141.406H856.265V167H861.204V157.438H864.949ZM861.204 153.43V145.414H864.843C865.523 145.414 866.126 145.496 866.654 145.66C867.181 145.824 867.626 146.059 867.99 146.363C868.4 146.703 868.704 147.137 868.904 147.664C869.115 148.18 869.22 148.777 869.22 149.457C869.22 150.02 869.138 150.529 868.974 150.986C868.822 151.443 868.593 151.836 868.288 152.164C867.925 152.574 867.45 152.891 866.865 153.113C866.29 153.324 865.622 153.43 864.861 153.43H861.204ZM917.102 167V141.406H912.145L912.128 157.842L905.061 141.406H900.086V167H905.061V150.494L912.18 167H917.102ZM937.958 155.785V151.883H927.446V145.432H939.681V141.406H922.489V167H939.734V163.01H927.446V155.785H937.958ZM945.859 167H950.324L952.469 153.184L952.662 151.883L952.855 153.184L955.088 167H959.553L963.103 141.406H958.568L956.828 155.75L956.705 156.822L956.547 155.768L954.402 141.406H950.869L948.848 155.662L948.689 156.717L948.566 155.715L946.861 141.406H942.344L945.859 167ZM828.545 210.4V206.393H817.576V199.432H829.916V195.406H812.619V221H817.576V210.4H828.545ZM835.374 195.406V199.396H840.243V217.027H835.374V221H850.174V217.027H845.182V199.396H850.174V195.406H835.374ZM864.949 211.438L869.765 221H875.056V220.771L869.554 210.207C870.257 209.891 870.89 209.516 871.452 209.082C872.027 208.648 872.519 208.139 872.929 207.553C873.327 206.979 873.632 206.328 873.843 205.602C874.066 204.863 874.177 204.037 874.177 203.123C874.177 201.857 873.954 200.744 873.509 199.783C873.075 198.822 872.454 198.02 871.646 197.375C870.825 196.73 869.841 196.244 868.693 195.916C867.544 195.576 866.261 195.406 864.843 195.406H856.265V221H861.204V211.438H864.949ZM861.204 207.43V199.414H864.843C865.523 199.414 866.126 199.496 866.654 199.66C867.181 199.824 867.626 200.059 867.99 200.363C868.4 200.703 868.704 201.137 868.904 201.664C869.115 202.18 869.22 202.777 869.22 203.457C869.22 204.02 869.138 204.529 868.974 204.986C868.822 205.443 868.593 205.836 868.288 206.164C867.925 206.574 867.45 206.891 866.865 207.113C866.29 207.324 865.622 207.43 864.861 207.43H861.204ZM884.31 195.406H878.176V221H882.711V213.424L882.5 201.928L885.506 212.562H887.949L891.307 201.453L891.096 213.424V221H895.631V195.406H889.496L886.736 205.021L884.31 195.406ZM901.897 221H906.362L908.506 207.184L908.7 205.883L908.893 207.184L911.126 221H915.59L919.141 195.406H914.606L912.866 209.75L912.743 210.822L912.585 209.768L910.44 195.406H906.907L904.885 209.662L904.727 210.717L904.604 209.715L902.899 195.406H898.381L901.897 221ZM934.794 215.656L936.288 221H941.491L933.265 195.406H928.782L920.398 221H925.601L927.113 215.656H934.794ZM928.325 211.455L931.015 202.033L933.634 211.455H928.325ZM952.873 211.438L957.689 221H962.98V220.771L957.478 210.207C958.181 209.891 958.814 209.516 959.377 209.082C959.951 208.648 960.443 208.139 960.853 207.553C961.252 206.979 961.556 206.328 961.767 205.602C961.99 204.863 962.101 204.037 962.101 203.123C962.101 201.857 961.879 200.744 961.433 199.783C961 198.822 960.379 198.02 959.57 197.375C958.75 196.73 957.765 196.244 956.617 195.916C955.469 195.576 954.185 195.406 952.767 195.406H944.189V221H949.129V211.438H952.873ZM949.129 207.43V199.414H952.767C953.447 199.414 954.051 199.496 954.578 199.66C955.105 199.824 955.551 200.059 955.914 200.363C956.324 200.703 956.629 201.137 956.828 201.664C957.039 202.18 957.144 202.777 957.144 203.457C957.144 204.02 957.062 204.529 956.898 204.986C956.746 205.443 956.517 205.836 956.213 206.164C955.849 206.574 955.375 206.891 954.789 207.113C954.215 207.324 953.547 207.43 952.785 207.43H949.129ZM981.92 209.785V205.883H971.409V199.432H983.643V195.406H966.452V221H983.696V217.01H971.409V209.785H981.92Z" fill="white"/>
<path d="M118.559 495.613H122.373C123.768 495.613 125.027 495.414 126.152 495.016C127.277 494.617 128.238 494.061 129.035 493.346C129.82 492.643 130.424 491.805 130.846 490.832C131.279 489.859 131.496 488.799 131.496 487.65C131.496 486.42 131.279 485.301 130.846 484.293C130.424 483.285 129.82 482.418 129.035 481.691C128.238 480.977 127.277 480.42 126.152 480.021C125.027 479.611 123.768 479.406 122.373 479.406H113.619V505H118.559V495.613ZM118.559 491.605V483.414H122.373C123.076 483.414 123.686 483.525 124.201 483.748C124.717 483.971 125.15 484.275 125.502 484.662C125.842 485.049 126.094 485.5 126.258 486.016C126.434 486.531 126.521 487.088 126.521 487.686C126.521 488.201 126.434 488.699 126.258 489.18C126.094 489.648 125.842 490.064 125.502 490.428C125.15 490.791 124.717 491.078 124.201 491.289C123.686 491.5 123.076 491.605 122.373 491.605H118.559ZM153.143 494.084V490.357C153.143 489.197 153.032 488.102 152.809 487.07C152.598 486.039 152.288 485.09 151.878 484.223C151.503 483.461 151.051 482.764 150.524 482.131C150.008 481.498 149.405 480.959 148.714 480.514C148.022 480.045 147.243 479.688 146.376 479.441C145.52 479.184 144.6 479.055 143.616 479.055C142.643 479.055 141.741 479.178 140.909 479.424C140.077 479.67 139.327 480.021 138.659 480.479C137.979 480.947 137.376 481.51 136.848 482.166C136.333 482.822 135.893 483.555 135.53 484.363C135.155 485.219 134.868 486.15 134.669 487.158C134.481 488.166 134.387 489.232 134.387 490.357V494.084C134.387 495.139 134.469 496.141 134.633 497.09C134.809 498.039 135.061 498.918 135.389 499.727C135.753 500.605 136.204 501.396 136.743 502.1C137.282 502.791 137.891 503.383 138.571 503.875C139.262 504.344 140.03 504.707 140.874 504.965C141.717 505.223 142.637 505.352 143.633 505.352C144.571 505.352 145.444 505.234 146.253 505C147.073 504.777 147.823 504.461 148.503 504.051C149.253 503.582 149.921 502.996 150.506 502.293C151.092 501.59 151.585 500.816 151.983 499.973C152.358 499.129 152.645 498.215 152.844 497.23C153.044 496.234 153.143 495.186 153.143 494.084ZM148.133 490.322V494.084C148.133 494.717 148.098 495.326 148.028 495.912C147.969 496.498 147.876 497.037 147.747 497.529C147.583 498.162 147.36 498.73 147.079 499.234C146.809 499.727 146.475 500.137 146.077 500.465C145.76 500.734 145.397 500.939 144.987 501.08C144.577 501.221 144.126 501.291 143.633 501.291C143.118 501.291 142.655 501.215 142.245 501.062C141.846 500.91 141.489 500.693 141.173 500.412C140.833 500.096 140.534 499.686 140.276 499.182C140.03 498.666 139.842 498.098 139.714 497.477C139.596 496.984 139.514 496.451 139.467 495.877C139.421 495.303 139.397 494.705 139.397 494.084V490.322C139.397 489.666 139.421 489.039 139.467 488.441C139.526 487.844 139.614 487.293 139.731 486.789C139.883 486.133 140.094 485.559 140.364 485.066C140.645 484.574 140.985 484.164 141.383 483.836C141.676 483.613 142.005 483.443 142.368 483.326C142.743 483.209 143.159 483.15 143.616 483.15C144.096 483.15 144.53 483.215 144.917 483.344C145.315 483.473 145.673 483.654 145.989 483.889C146.387 484.205 146.733 484.615 147.026 485.119C147.319 485.611 147.553 486.174 147.729 486.807C147.87 487.311 147.969 487.861 148.028 488.459C148.098 489.045 148.133 489.666 148.133 490.322ZM158.935 505H163.4L165.544 491.184L165.738 489.883L165.931 491.184L168.163 505H172.628L176.179 479.406H171.644L169.904 493.75L169.781 494.822L169.622 493.768L167.478 479.406H163.945L161.923 493.662L161.765 494.717L161.642 493.715L159.937 479.406H155.419L158.935 505ZM194.996 493.785V489.883H184.484V483.432H196.719V479.406H179.527V505H196.771V501.01H184.484V493.785H194.996ZM209.911 495.438L214.727 505H220.018V504.771L214.516 494.207C215.219 493.891 215.852 493.516 216.415 493.082C216.989 492.648 217.481 492.139 217.891 491.553C218.29 490.979 218.594 490.328 218.805 489.602C219.028 488.863 219.139 488.037 219.139 487.123C219.139 485.857 218.917 484.744 218.471 483.783C218.038 482.822 217.417 482.02 216.608 481.375C215.788 480.73 214.803 480.244 213.655 479.916C212.506 479.576 211.223 479.406 209.805 479.406H201.227V505H206.167V495.438H209.911ZM206.167 491.43V483.414H209.805C210.485 483.414 211.088 483.496 211.616 483.66C212.143 483.824 212.588 484.059 212.952 484.363C213.362 484.703 213.667 485.137 213.866 485.664C214.077 486.18 214.182 486.777 214.182 487.457C214.182 488.02 214.1 488.529 213.936 488.986C213.784 489.443 213.555 489.836 213.251 490.164C212.887 490.574 212.413 490.891 211.827 491.113C211.253 491.324 210.585 491.43 209.823 491.43H206.167ZM262.24 479.406H257.336L257.318 496.369C257.306 497.201 257.219 497.934 257.055 498.566C256.89 499.199 256.644 499.727 256.316 500.148C256.012 500.559 255.625 500.869 255.156 501.08C254.699 501.279 254.172 501.379 253.574 501.379C253.023 501.379 252.537 501.285 252.115 501.098C251.693 500.898 251.336 500.605 251.043 500.219C250.726 499.797 250.486 499.264 250.322 498.619C250.17 497.975 250.088 497.225 250.076 496.369L250.058 479.406H245.119L245.101 496.369C245.101 497.799 245.301 499.076 245.699 500.201C246.109 501.314 246.683 502.252 247.422 503.014C248.16 503.775 249.045 504.355 250.076 504.754C251.119 505.152 252.285 505.352 253.574 505.352C254.945 505.352 256.164 505.152 257.23 504.754C258.308 504.355 259.223 503.77 259.973 502.996C260.711 502.234 261.273 501.297 261.66 500.184C262.058 499.07 262.258 497.799 262.258 496.369L262.24 479.406ZM272.426 495.613H276.241C277.635 495.613 278.895 495.414 280.02 495.016C281.145 494.617 282.106 494.061 282.903 493.346C283.688 492.643 284.291 491.805 284.713 490.832C285.147 489.859 285.364 488.799 285.364 487.65C285.364 486.42 285.147 485.301 284.713 484.293C284.291 483.285 283.688 482.418 282.903 481.691C282.106 480.977 281.145 480.42 280.02 480.021C278.895 479.611 277.635 479.406 276.241 479.406H267.487V505H272.426V495.613ZM272.426 491.605V483.414H276.241C276.944 483.414 277.553 483.525 278.069 483.748C278.584 483.971 279.018 484.275 279.37 484.662C279.709 485.049 279.961 485.5 280.125 486.016C280.301 486.531 280.389 487.088 280.389 487.686C280.389 488.201 280.301 488.699 280.125 489.18C279.961 489.648 279.709 490.064 279.37 490.428C279.018 490.791 278.584 491.078 278.069 491.289C277.553 491.5 276.944 491.605 276.241 491.605H272.426ZM132.111 537.432V533.406H111.475V537.432H119.262V559H124.219V537.432H132.111ZM152.176 559V533.406H147.29V543.9H140.048V533.406H135.143V559H140.048V547.908H147.29V559H152.176ZM173.015 547.785V543.883H162.503V537.432H174.738V533.406H157.546V559H174.79V555.01H162.503V547.785H173.015ZM201.192 559H210.526C211.932 559 213.198 558.842 214.323 558.525C215.448 558.209 216.403 557.734 217.188 557.102C217.973 556.469 218.577 555.684 218.999 554.746C219.42 553.809 219.631 552.725 219.631 551.494C219.631 550.85 219.544 550.229 219.368 549.631C219.204 549.021 218.946 548.459 218.594 547.943C218.254 547.463 217.833 547.041 217.329 546.678C216.836 546.314 216.169 546.016 215.325 545.781V545.764C215.758 545.6 216.151 545.4 216.503 545.166C216.866 544.932 217.188 544.674 217.469 544.393C217.985 543.877 218.372 543.279 218.629 542.6C218.899 541.908 219.04 541.176 219.051 540.402C219.051 539.207 218.829 538.17 218.383 537.291C217.95 536.412 217.329 535.686 216.52 535.111C215.711 534.537 214.733 534.109 213.585 533.828C212.448 533.547 211.182 533.406 209.788 533.406H201.192V559ZM206.149 547.715H210.754C211.446 547.727 212.044 547.82 212.547 547.996C213.051 548.172 213.461 548.424 213.778 548.752C214.094 549.068 214.323 549.455 214.463 549.912C214.616 550.369 214.692 550.885 214.692 551.459C214.692 552.01 214.592 552.508 214.393 552.953C214.206 553.398 213.924 553.779 213.549 554.096C213.21 554.377 212.782 554.6 212.266 554.764C211.762 554.928 211.188 555.01 210.544 555.01H206.149V547.715ZM206.149 544.146V537.432H209.805C210.602 537.443 211.294 537.531 211.879 537.695C212.477 537.859 212.952 538.123 213.303 538.486C213.573 538.744 213.772 539.066 213.901 539.453C214.042 539.84 214.112 540.291 214.112 540.807C214.112 541.299 214.03 541.738 213.866 542.125C213.713 542.512 213.491 542.84 213.198 543.109C212.846 543.449 212.383 543.707 211.809 543.883C211.235 544.047 210.573 544.135 209.823 544.146H206.149ZM241.068 548.084V544.357C241.068 543.197 240.956 542.102 240.734 541.07C240.523 540.039 240.212 539.09 239.802 538.223C239.427 537.461 238.976 536.764 238.448 536.131C237.933 535.498 237.329 534.959 236.638 534.514C235.946 534.045 235.167 533.688 234.3 533.441C233.445 533.184 232.525 533.055 231.54 533.055C230.568 533.055 229.665 533.178 228.833 533.424C228.001 533.67 227.251 534.021 226.583 534.479C225.904 534.947 225.3 535.51 224.773 536.166C224.257 536.822 223.818 537.555 223.454 538.363C223.079 539.219 222.792 540.15 222.593 541.158C222.405 542.166 222.312 543.232 222.312 544.357V548.084C222.312 549.139 222.394 550.141 222.558 551.09C222.734 552.039 222.986 552.918 223.314 553.727C223.677 554.605 224.128 555.396 224.667 556.1C225.206 556.791 225.816 557.383 226.495 557.875C227.187 558.344 227.954 558.707 228.798 558.965C229.642 559.223 230.562 559.352 231.558 559.352C232.495 559.352 233.368 559.234 234.177 559C234.997 558.777 235.747 558.461 236.427 558.051C237.177 557.582 237.845 556.996 238.431 556.293C239.017 555.59 239.509 554.816 239.907 553.973C240.282 553.129 240.57 552.215 240.769 551.23C240.968 550.234 241.068 549.186 241.068 548.084ZM236.058 544.322V548.084C236.058 548.717 236.023 549.326 235.952 549.912C235.894 550.498 235.8 551.037 235.671 551.529C235.507 552.162 235.284 552.73 235.003 553.234C234.734 553.727 234.4 554.137 234.001 554.465C233.685 554.734 233.321 554.939 232.911 555.08C232.501 555.221 232.05 555.291 231.558 555.291C231.042 555.291 230.579 555.215 230.169 555.062C229.771 554.91 229.413 554.693 229.097 554.412C228.757 554.096 228.458 553.686 228.2 553.182C227.954 552.666 227.767 552.098 227.638 551.477C227.521 550.984 227.439 550.451 227.392 549.877C227.345 549.303 227.321 548.705 227.321 548.084V544.322C227.321 543.666 227.345 543.039 227.392 542.441C227.45 541.844 227.538 541.293 227.655 540.789C227.808 540.133 228.019 539.559 228.288 539.066C228.57 538.574 228.909 538.164 229.308 537.836C229.601 537.613 229.929 537.443 230.292 537.326C230.667 537.209 231.083 537.15 231.54 537.15C232.021 537.15 232.454 537.215 232.841 537.344C233.239 537.473 233.597 537.654 233.913 537.889C234.312 538.205 234.657 538.615 234.95 539.119C235.243 539.611 235.478 540.174 235.654 540.807C235.794 541.311 235.894 541.861 235.952 542.459C236.023 543.045 236.058 543.666 236.058 544.322ZM257.775 553.656L259.269 559H264.473L256.246 533.406H251.764L243.379 559H248.582L250.094 553.656H257.775ZM251.306 549.455L253.996 540.033L256.615 549.455H251.306ZM275.854 549.438L280.67 559H285.961V558.771L280.459 548.207C281.163 547.891 281.795 547.516 282.358 547.082C282.932 546.648 283.424 546.139 283.834 545.553C284.233 544.979 284.538 544.328 284.749 543.602C284.971 542.863 285.083 542.037 285.083 541.123C285.083 539.857 284.86 538.744 284.415 537.783C283.981 536.822 283.36 536.02 282.551 535.375C281.731 534.73 280.747 534.244 279.598 533.916C278.45 533.576 277.166 533.406 275.749 533.406H267.17V559H272.11V549.438H275.854ZM272.11 545.43V537.414H275.749C276.428 537.414 277.032 537.496 277.559 537.66C278.086 537.824 278.532 538.059 278.895 538.363C279.305 538.703 279.61 539.137 279.809 539.664C280.02 540.18 280.125 540.777 280.125 541.457C280.125 542.02 280.043 542.529 279.879 542.986C279.727 543.443 279.499 543.836 279.194 544.164C278.831 544.574 278.356 544.891 277.77 545.113C277.196 545.324 276.528 545.43 275.766 545.43H272.11ZM289.046 559H295.919C297.056 559 298.122 558.859 299.118 558.578C300.126 558.297 301.046 557.893 301.878 557.365C302.593 556.92 303.249 556.369 303.847 555.713C304.444 555.045 304.966 554.318 305.411 553.533C305.88 552.654 306.243 551.688 306.501 550.633C306.759 549.578 306.888 548.459 306.888 547.275V545.166C306.888 543.936 306.747 542.775 306.466 541.686C306.196 540.596 305.81 539.6 305.306 538.697C304.872 537.959 304.362 537.279 303.776 536.658C303.202 536.025 302.546 535.492 301.808 535.059C300.964 534.531 300.026 534.127 298.995 533.846C297.964 533.553 296.857 533.406 295.673 533.406H289.046V559ZM294.021 537.414H295.673C296.271 537.414 296.821 537.484 297.325 537.625C297.841 537.754 298.31 537.941 298.732 538.188C299.282 538.516 299.763 538.938 300.173 539.453C300.595 539.969 300.935 540.555 301.193 541.211C301.403 541.762 301.562 542.371 301.667 543.039C301.784 543.695 301.843 544.393 301.843 545.131V547.275C301.843 548.061 301.784 548.793 301.667 549.473C301.562 550.141 301.403 550.75 301.193 551.301C300.935 551.934 300.624 552.49 300.261 552.971C299.909 553.439 299.511 553.826 299.066 554.131C298.632 554.424 298.151 554.646 297.624 554.799C297.097 554.951 296.528 555.027 295.919 555.027H294.021V537.414Z" fill="white"/>
<path d="M579.986 436.438L584.803 446H590.094V445.771L584.592 435.207C585.295 434.891 585.928 434.516 586.49 434.082C587.064 433.648 587.557 433.139 587.967 432.553C588.365 431.979 588.67 431.328 588.881 430.602C589.104 429.863 589.215 429.037 589.215 428.123C589.215 426.857 588.992 425.744 588.547 424.783C588.113 423.822 587.492 423.02 586.684 422.375C585.863 421.73 584.879 421.244 583.73 420.916C582.582 420.576 581.299 420.406 579.881 420.406H571.303V446H576.242V436.438H579.986ZM576.242 432.43V424.414H579.881C580.561 424.414 581.164 424.496 581.691 424.66C582.219 424.824 582.664 425.059 583.027 425.363C583.438 425.703 583.742 426.137 583.941 426.664C584.152 427.18 584.258 427.777 584.258 428.457C584.258 429.02 584.176 429.529 584.012 429.986C583.859 430.443 583.631 430.836 583.326 431.164C582.963 431.574 582.488 431.891 581.902 432.113C581.328 432.324 580.66 432.43 579.898 432.43H576.242ZM609.034 434.785V430.883H598.522V424.432H610.756V420.406H593.565V446H610.809V442.01H598.522V434.785H609.034ZM628.554 439.32C628.554 439.777 628.46 440.199 628.273 440.586C628.085 440.961 627.816 441.283 627.464 441.553C627.113 441.822 626.679 442.033 626.163 442.186C625.659 442.338 625.079 442.414 624.423 442.414C623.685 442.414 623.005 442.332 622.384 442.168C621.775 442.004 621.253 441.746 620.82 441.395C620.374 441.043 620.029 440.592 619.783 440.041C619.536 439.49 619.402 438.828 619.378 438.055H614.527C614.527 439.379 614.779 440.533 615.283 441.518C615.798 442.502 616.495 443.357 617.374 444.084C618.3 444.822 619.384 445.385 620.626 445.771C621.88 446.146 623.146 446.334 624.423 446.334C625.724 446.334 626.925 446.182 628.027 445.877C629.128 445.561 630.077 445.098 630.874 444.488C631.671 443.891 632.292 443.158 632.738 442.291C633.195 441.412 633.423 440.41 633.423 439.285C633.423 437.984 633.124 436.836 632.527 435.84C631.929 434.844 631.126 433.971 630.118 433.221C629.45 432.764 628.718 432.359 627.921 432.008C627.124 431.656 626.286 431.357 625.408 431.111C624.587 430.889 623.849 430.648 623.193 430.391C622.548 430.133 621.997 429.846 621.54 429.529C621.083 429.225 620.732 428.879 620.486 428.492C620.251 428.105 620.134 427.672 620.134 427.191C620.134 426.734 620.222 426.312 620.398 425.926C620.585 425.527 620.855 425.182 621.206 424.889C621.558 424.607 621.986 424.391 622.49 424.238C623.005 424.074 623.591 423.992 624.247 423.992C624.962 423.992 625.583 424.092 626.111 424.291C626.65 424.479 627.101 424.742 627.464 425.082C627.816 425.434 628.079 425.85 628.255 426.33C628.443 426.811 628.548 427.338 628.572 427.912H633.388C633.388 426.764 633.165 425.709 632.72 424.748C632.275 423.787 631.654 422.955 630.857 422.252C630.06 421.561 629.105 421.021 627.991 420.635C626.89 420.248 625.671 420.055 624.335 420.055C623.046 420.055 621.851 420.225 620.749 420.564C619.648 420.893 618.693 421.367 617.884 421.988C617.075 422.609 616.443 423.359 615.986 424.238C615.529 425.117 615.3 426.096 615.3 427.174C615.3 428.111 615.47 428.979 615.81 429.775C616.161 430.572 616.677 431.299 617.357 431.955C618.036 432.611 618.909 433.215 619.976 433.766C621.054 434.316 622.302 434.785 623.72 435.172C624.634 435.418 625.396 435.688 626.005 435.98C626.626 436.262 627.13 436.572 627.517 436.912C627.892 437.264 628.156 437.639 628.308 438.037C628.472 438.436 628.554 438.863 628.554 439.32ZM652.996 434.785V430.883H642.484V424.432H654.719V420.406H637.527V446H654.771V442.01H642.484V434.785H652.996ZM678.036 424.432V420.406H657.399V424.432H665.186V446H670.143V424.432H678.036ZM571.268 500H580.602C582.008 500 583.273 499.842 584.398 499.525C585.523 499.209 586.479 498.734 587.264 498.102C588.049 497.469 588.652 496.684 589.074 495.746C589.496 494.809 589.707 493.725 589.707 492.494C589.707 491.85 589.619 491.229 589.443 490.631C589.279 490.021 589.021 489.459 588.67 488.943C588.33 488.463 587.908 488.041 587.404 487.678C586.912 487.314 586.244 487.016 585.4 486.781V486.764C585.834 486.6 586.227 486.4 586.578 486.166C586.941 485.932 587.264 485.674 587.545 485.393C588.061 484.877 588.447 484.279 588.705 483.6C588.975 482.908 589.115 482.176 589.127 481.402C589.127 480.207 588.904 479.17 588.459 478.291C588.025 477.412 587.404 476.686 586.596 476.111C585.787 475.537 584.809 475.109 583.66 474.828C582.523 474.547 581.258 474.406 579.863 474.406H571.268V500ZM576.225 488.715H580.83C581.521 488.727 582.119 488.82 582.623 488.996C583.127 489.172 583.537 489.424 583.854 489.752C584.17 490.068 584.398 490.455 584.539 490.912C584.691 491.369 584.768 491.885 584.768 492.459C584.768 493.01 584.668 493.508 584.469 493.953C584.281 494.398 584 494.779 583.625 495.096C583.285 495.377 582.857 495.6 582.342 495.764C581.838 495.928 581.264 496.01 580.619 496.01H576.225V488.715ZM576.225 485.146V478.432H579.881C580.678 478.443 581.369 478.531 581.955 478.695C582.553 478.859 583.027 479.123 583.379 479.486C583.648 479.744 583.848 480.066 583.977 480.453C584.117 480.84 584.188 481.291 584.188 481.807C584.188 482.299 584.105 482.738 583.941 483.125C583.789 483.512 583.566 483.84 583.273 484.109C582.922 484.449 582.459 484.707 581.885 484.883C581.311 485.047 580.648 485.135 579.898 485.146H576.225ZM610.335 474.406H605.43L605.413 491.369C605.401 492.201 605.313 492.934 605.149 493.566C604.985 494.199 604.739 494.727 604.411 495.148C604.106 495.559 603.719 495.869 603.251 496.08C602.794 496.279 602.266 496.379 601.669 496.379C601.118 496.379 600.631 496.285 600.21 496.098C599.788 495.898 599.43 495.605 599.137 495.219C598.821 494.797 598.581 494.264 598.417 493.619C598.264 492.975 598.182 492.225 598.171 491.369L598.153 474.406H593.214L593.196 491.369C593.196 492.799 593.395 494.076 593.794 495.201C594.204 496.314 594.778 497.252 595.516 498.014C596.255 498.775 597.139 499.355 598.171 499.754C599.214 500.152 600.38 500.352 601.669 500.352C603.04 500.352 604.258 500.152 605.325 499.754C606.403 499.355 607.317 498.77 608.067 497.996C608.805 497.234 609.368 496.297 609.755 495.184C610.153 494.07 610.352 492.799 610.352 491.369L610.335 474.406ZM634.074 478.432V474.406H613.437V478.432H621.224V500H626.181V478.432H634.074ZM656.055 478.432V474.406H635.418V478.432H643.205V500H648.162V478.432H656.055ZM677.086 489.084V485.357C677.086 484.197 676.975 483.102 676.753 482.07C676.542 481.039 676.231 480.09 675.821 479.223C675.446 478.461 674.995 477.764 674.467 477.131C673.952 476.498 673.348 475.959 672.657 475.514C671.965 475.045 671.186 474.688 670.319 474.441C669.463 474.184 668.544 474.055 667.559 474.055C666.586 474.055 665.684 474.178 664.852 474.424C664.02 474.67 663.27 475.021 662.602 475.479C661.922 475.947 661.319 476.51 660.792 477.166C660.276 477.822 659.836 478.555 659.473 479.363C659.098 480.219 658.811 481.15 658.612 482.158C658.424 483.166 658.331 484.232 658.331 485.357V489.084C658.331 490.139 658.413 491.141 658.577 492.09C658.753 493.039 659.004 493.918 659.333 494.727C659.696 495.605 660.147 496.396 660.686 497.1C661.225 497.791 661.835 498.383 662.514 498.875C663.206 499.344 663.973 499.707 664.817 499.965C665.661 500.223 666.581 500.352 667.577 500.352C668.514 500.352 669.387 500.234 670.196 500C671.016 499.777 671.766 499.461 672.446 499.051C673.196 498.582 673.864 497.996 674.45 497.293C675.036 496.59 675.528 495.816 675.926 494.973C676.301 494.129 676.588 493.215 676.788 492.23C676.987 491.234 677.086 490.186 677.086 489.084ZM672.077 485.322V489.084C672.077 489.717 672.042 490.326 671.971 490.912C671.913 491.498 671.819 492.037 671.69 492.529C671.526 493.162 671.303 493.73 671.022 494.234C670.753 494.727 670.419 495.137 670.02 495.465C669.704 495.734 669.34 495.939 668.93 496.08C668.52 496.221 668.069 496.291 667.577 496.291C667.061 496.291 666.598 496.215 666.188 496.062C665.79 495.91 665.432 495.693 665.116 495.412C664.776 495.096 664.477 494.686 664.219 494.182C663.973 493.666 663.786 493.098 663.657 492.477C663.54 491.984 663.458 491.451 663.411 490.877C663.364 490.303 663.34 489.705 663.34 489.084V485.322C663.34 484.666 663.364 484.039 663.411 483.441C663.469 482.844 663.557 482.293 663.674 481.789C663.827 481.133 664.038 480.559 664.307 480.066C664.588 479.574 664.928 479.164 665.327 478.836C665.62 478.613 665.948 478.443 666.311 478.326C666.686 478.209 667.102 478.15 667.559 478.15C668.04 478.15 668.473 478.215 668.86 478.344C669.258 478.473 669.616 478.654 669.932 478.889C670.331 479.205 670.676 479.615 670.969 480.119C671.262 480.611 671.497 481.174 671.672 481.807C671.813 482.311 671.913 482.861 671.971 483.459C672.042 484.045 672.077 484.666 672.077 485.322ZM698.083 500V474.406H693.126L693.109 490.842L686.042 474.406H681.068V500H686.042V483.494L693.161 500H698.083ZM571.197 554H578.07C579.207 554 580.273 553.859 581.27 553.578C582.277 553.297 583.197 552.893 584.029 552.365C584.744 551.92 585.4 551.369 585.998 550.713C586.596 550.045 587.117 549.318 587.562 548.533C588.031 547.654 588.395 546.688 588.652 545.633C588.91 544.578 589.039 543.459 589.039 542.275V540.166C589.039 538.936 588.898 537.775 588.617 536.686C588.348 535.596 587.961 534.6 587.457 533.697C587.023 532.959 586.514 532.279 585.928 531.658C585.354 531.025 584.697 530.492 583.959 530.059C583.115 529.531 582.178 529.127 581.146 528.846C580.115 528.553 579.008 528.406 577.824 528.406H571.197V554ZM576.172 532.414H577.824C578.422 532.414 578.973 532.484 579.477 532.625C579.992 532.754 580.461 532.941 580.883 533.188C581.434 533.516 581.914 533.938 582.324 534.453C582.746 534.969 583.086 535.555 583.344 536.211C583.555 536.762 583.713 537.371 583.818 538.039C583.936 538.695 583.994 539.393 583.994 540.131V542.275C583.994 543.061 583.936 543.793 583.818 544.473C583.713 545.141 583.555 545.75 583.344 546.301C583.086 546.934 582.775 547.49 582.412 547.971C582.061 548.439 581.662 548.826 581.217 549.131C580.783 549.424 580.303 549.646 579.775 549.799C579.248 549.951 578.68 550.027 578.07 550.027H576.172V532.414ZM611.143 543.084V539.357C611.143 538.197 611.032 537.102 610.809 536.07C610.598 535.039 610.288 534.09 609.878 533.223C609.503 532.461 609.051 531.764 608.524 531.131C608.008 530.498 607.405 529.959 606.714 529.514C606.022 529.045 605.243 528.688 604.376 528.441C603.52 528.184 602.6 528.055 601.616 528.055C600.643 528.055 599.741 528.178 598.909 528.424C598.077 528.67 597.327 529.021 596.659 529.479C595.979 529.947 595.376 530.51 594.848 531.166C594.333 531.822 593.893 532.555 593.53 533.363C593.155 534.219 592.868 535.15 592.669 536.158C592.481 537.166 592.387 538.232 592.387 539.357V543.084C592.387 544.139 592.469 545.141 592.633 546.09C592.809 547.039 593.061 547.918 593.389 548.727C593.753 549.605 594.204 550.396 594.743 551.1C595.282 551.791 595.891 552.383 596.571 552.875C597.262 553.344 598.03 553.707 598.874 553.965C599.717 554.223 600.637 554.352 601.633 554.352C602.571 554.352 603.444 554.234 604.253 554C605.073 553.777 605.823 553.461 606.503 553.051C607.253 552.582 607.921 551.996 608.506 551.293C609.092 550.59 609.585 549.816 609.983 548.973C610.358 548.129 610.645 547.215 610.844 546.23C611.044 545.234 611.143 544.186 611.143 543.084ZM606.133 539.322V543.084C606.133 543.717 606.098 544.326 606.028 544.912C605.969 545.498 605.876 546.037 605.747 546.529C605.583 547.162 605.36 547.73 605.079 548.234C604.809 548.727 604.475 549.137 604.077 549.465C603.76 549.734 603.397 549.939 602.987 550.08C602.577 550.221 602.126 550.291 601.633 550.291C601.118 550.291 600.655 550.215 600.245 550.062C599.846 549.91 599.489 549.693 599.173 549.412C598.833 549.096 598.534 548.686 598.276 548.182C598.03 547.666 597.842 547.098 597.714 546.477C597.596 545.984 597.514 545.451 597.467 544.877C597.421 544.303 597.397 543.705 597.397 543.084V539.322C597.397 538.666 597.421 538.039 597.467 537.441C597.526 536.844 597.614 536.293 597.731 535.789C597.883 535.133 598.094 534.559 598.364 534.066C598.645 533.574 598.985 533.164 599.383 532.836C599.676 532.613 600.005 532.443 600.368 532.326C600.743 532.209 601.159 532.15 601.616 532.15C602.096 532.15 602.53 532.215 602.917 532.344C603.315 532.473 603.673 532.654 603.989 532.889C604.387 533.205 604.733 533.615 605.026 534.119C605.319 534.611 605.553 535.174 605.729 535.807C605.87 536.311 605.969 536.861 606.028 537.459C606.098 538.045 606.133 538.666 606.133 539.322ZM632.316 528.406H627.411L627.394 545.369C627.382 546.201 627.294 546.934 627.13 547.566C626.966 548.199 626.72 548.727 626.392 549.148C626.087 549.559 625.7 549.869 625.232 550.08C624.775 550.279 624.247 550.379 623.65 550.379C623.099 550.379 622.613 550.285 622.191 550.098C621.769 549.898 621.411 549.605 621.118 549.219C620.802 548.797 620.562 548.264 620.398 547.619C620.245 546.975 620.163 546.225 620.152 545.369L620.134 528.406H615.195L615.177 545.369C615.177 546.799 615.376 548.076 615.775 549.201C616.185 550.314 616.759 551.252 617.497 552.014C618.236 552.775 619.12 553.355 620.152 553.754C621.195 554.152 622.361 554.352 623.65 554.352C625.021 554.352 626.24 554.152 627.306 553.754C628.384 553.355 629.298 552.77 630.048 551.996C630.786 551.234 631.349 550.297 631.736 549.184C632.134 548.07 632.333 546.799 632.333 545.369L632.316 528.406ZM637.211 554H646.545C647.951 554 649.217 553.842 650.342 553.525C651.467 553.209 652.422 552.734 653.207 552.102C653.992 551.469 654.596 550.684 655.018 549.746C655.439 548.809 655.65 547.725 655.65 546.494C655.65 545.85 655.562 545.229 655.387 544.631C655.223 544.021 654.965 543.459 654.613 542.943C654.273 542.463 653.851 542.041 653.348 541.678C652.855 541.314 652.187 541.016 651.344 540.781V540.764C651.777 540.6 652.17 540.4 652.521 540.166C652.885 539.932 653.207 539.674 653.488 539.393C654.004 538.877 654.391 538.279 654.648 537.6C654.918 536.908 655.059 536.176 655.07 535.402C655.07 534.207 654.848 533.17 654.402 532.291C653.969 531.412 653.348 530.686 652.539 530.111C651.73 529.537 650.752 529.109 649.603 528.828C648.467 528.547 647.201 528.406 645.807 528.406H637.211V554ZM642.168 542.715H646.773C647.465 542.727 648.062 542.82 648.566 542.996C649.07 543.172 649.48 543.424 649.797 543.752C650.113 544.068 650.342 544.455 650.482 544.912C650.635 545.369 650.711 545.885 650.711 546.459C650.711 547.01 650.611 547.508 650.412 547.953C650.225 548.398 649.943 548.779 649.568 549.096C649.228 549.377 648.801 549.6 648.285 549.764C647.781 549.928 647.207 550.01 646.562 550.01H642.168V542.715ZM642.168 539.146V532.432H645.824C646.621 532.443 647.312 532.531 647.898 532.695C648.496 532.859 648.971 533.123 649.322 533.486C649.592 533.744 649.791 534.066 649.92 534.453C650.06 534.84 650.131 535.291 650.131 535.807C650.131 536.299 650.049 536.738 649.885 537.125C649.732 537.512 649.51 537.84 649.217 538.109C648.865 538.449 648.402 538.707 647.828 538.883C647.254 539.047 646.592 539.135 645.842 539.146H642.168ZM664.518 550.01V528.406H659.561V554H676.506V550.01H664.518ZM696.958 542.785V538.883H686.446V532.432H698.681V528.406H681.489V554H698.734V550.01H686.446V542.785H696.958ZM720.486 544.684V540.729H705.844V544.684H720.486ZM576.559 598.613H580.373C581.768 598.613 583.027 598.414 584.152 598.016C585.277 597.617 586.238 597.061 587.035 596.346C587.82 595.643 588.424 594.805 588.846 593.832C589.279 592.859 589.496 591.799 589.496 590.65C589.496 589.42 589.279 588.301 588.846 587.293C588.424 586.285 587.82 585.418 587.035 584.691C586.238 583.977 585.277 583.42 584.152 583.021C583.027 582.611 581.768 582.406 580.373 582.406H571.619V608H576.559V598.613ZM576.559 594.605V586.414H580.373C581.076 586.414 581.686 586.525 582.201 586.748C582.717 586.971 583.15 587.275 583.502 587.662C583.842 588.049 584.094 588.5 584.258 589.016C584.434 589.531 584.521 590.088 584.521 590.686C584.521 591.201 584.434 591.699 584.258 592.18C584.094 592.648 583.842 593.064 583.502 593.428C583.15 593.791 582.717 594.078 582.201 594.289C581.686 594.5 581.076 594.605 580.373 594.605H576.559ZM601.967 598.438L606.784 608H612.075V607.771L606.573 597.207C607.276 596.891 607.909 596.516 608.471 596.082C609.046 595.648 609.538 595.139 609.948 594.553C610.346 593.979 610.651 593.328 610.862 592.602C611.085 591.863 611.196 591.037 611.196 590.123C611.196 588.857 610.973 587.744 610.528 586.783C610.094 585.822 609.473 585.02 608.665 584.375C607.844 583.73 606.86 583.244 605.712 582.916C604.563 582.576 603.28 582.406 601.862 582.406H593.284V608H598.223V598.438H601.967ZM598.223 594.43V586.414H601.862C602.542 586.414 603.145 586.496 603.673 586.66C604.2 586.824 604.645 587.059 605.008 587.363C605.419 587.703 605.723 588.137 605.923 588.664C606.133 589.18 606.239 589.777 606.239 590.457C606.239 591.02 606.157 591.529 605.993 591.986C605.84 592.443 605.612 592.836 605.307 593.164C604.944 593.574 604.469 593.891 603.883 594.113C603.309 594.324 602.641 594.43 601.88 594.43H598.223ZM631.015 596.785V592.883H620.503V586.432H632.738V582.406H615.546V608H632.79V604.01H620.503V596.785H631.015ZM650.535 601.32C650.535 601.777 650.441 602.199 650.254 602.586C650.066 602.961 649.797 603.283 649.445 603.553C649.094 603.822 648.66 604.033 648.144 604.186C647.641 604.338 647.06 604.414 646.404 604.414C645.666 604.414 644.986 604.332 644.365 604.168C643.756 604.004 643.234 603.746 642.801 603.395C642.355 603.043 642.01 602.592 641.764 602.041C641.518 601.49 641.383 600.828 641.359 600.055H636.508C636.508 601.379 636.76 602.533 637.264 603.518C637.779 604.502 638.476 605.357 639.355 606.084C640.281 606.822 641.365 607.385 642.607 607.771C643.861 608.146 645.127 608.334 646.404 608.334C647.705 608.334 648.906 608.182 650.008 607.877C651.109 607.561 652.059 607.098 652.855 606.488C653.652 605.891 654.273 605.158 654.719 604.291C655.176 603.412 655.404 602.41 655.404 601.285C655.404 599.984 655.105 598.836 654.508 597.84C653.91 596.844 653.107 595.971 652.1 595.221C651.432 594.764 650.699 594.359 649.902 594.008C649.105 593.656 648.268 593.357 647.389 593.111C646.568 592.889 645.83 592.648 645.174 592.391C644.529 592.133 643.978 591.846 643.521 591.529C643.064 591.225 642.713 590.879 642.467 590.492C642.232 590.105 642.115 589.672 642.115 589.191C642.115 588.734 642.203 588.312 642.379 587.926C642.566 587.527 642.836 587.182 643.187 586.889C643.539 586.607 643.967 586.391 644.471 586.238C644.986 586.074 645.572 585.992 646.228 585.992C646.943 585.992 647.564 586.092 648.092 586.291C648.631 586.479 649.082 586.742 649.445 587.082C649.797 587.434 650.06 587.85 650.236 588.33C650.424 588.811 650.529 589.338 650.553 589.912H655.369C655.369 588.764 655.146 587.709 654.701 586.748C654.256 585.787 653.635 584.955 652.838 584.252C652.041 583.561 651.086 583.021 649.973 582.635C648.871 582.248 647.652 582.055 646.316 582.055C645.027 582.055 643.832 582.225 642.73 582.564C641.629 582.893 640.674 583.367 639.865 583.988C639.057 584.609 638.424 585.359 637.967 586.238C637.51 587.117 637.281 588.096 637.281 589.174C637.281 590.111 637.451 590.979 637.791 591.775C638.143 592.572 638.658 593.299 639.338 593.955C640.018 594.611 640.891 595.215 641.957 595.766C643.035 596.316 644.283 596.785 645.701 597.172C646.615 597.418 647.377 597.688 647.986 597.98C648.607 598.262 649.111 598.572 649.498 598.912C649.873 599.264 650.137 599.639 650.289 600.037C650.453 600.436 650.535 600.863 650.535 601.32ZM672.516 601.32C672.516 601.777 672.422 602.199 672.235 602.586C672.047 602.961 671.778 603.283 671.426 603.553C671.075 603.822 670.641 604.033 670.126 604.186C669.622 604.338 669.042 604.414 668.385 604.414C667.647 604.414 666.967 604.332 666.346 604.168C665.737 604.004 665.215 603.746 664.782 603.395C664.336 603.043 663.991 602.592 663.745 602.041C663.499 601.49 663.364 600.828 663.34 600.055H658.489C658.489 601.379 658.741 602.533 659.245 603.518C659.76 604.502 660.458 605.357 661.336 606.084C662.262 606.822 663.346 607.385 664.588 607.771C665.842 608.146 667.108 608.334 668.385 608.334C669.686 608.334 670.887 608.182 671.989 607.877C673.09 607.561 674.04 607.098 674.836 606.488C675.633 605.891 676.254 605.158 676.7 604.291C677.157 603.412 677.385 602.41 677.385 601.285C677.385 599.984 677.086 598.836 676.489 597.84C675.891 596.844 675.088 595.971 674.081 595.221C673.413 594.764 672.68 594.359 671.883 594.008C671.086 593.656 670.249 593.357 669.37 593.111C668.549 592.889 667.811 592.648 667.155 592.391C666.51 592.133 665.96 591.846 665.503 591.529C665.045 591.225 664.694 590.879 664.448 590.492C664.213 590.105 664.096 589.672 664.096 589.191C664.096 588.734 664.184 588.312 664.36 587.926C664.547 587.527 664.817 587.182 665.169 586.889C665.52 586.607 665.948 586.391 666.452 586.238C666.967 586.074 667.553 585.992 668.21 585.992C668.924 585.992 669.545 586.092 670.073 586.291C670.612 586.479 671.063 586.742 671.426 587.082C671.778 587.434 672.042 587.85 672.217 588.33C672.405 588.811 672.51 589.338 672.534 589.912H677.35C677.35 588.764 677.128 587.709 676.682 586.748C676.237 585.787 675.616 584.955 674.819 584.252C674.022 583.561 673.067 583.021 671.954 582.635C670.852 582.248 669.633 582.055 668.297 582.055C667.008 582.055 665.813 582.225 664.711 582.564C663.61 582.893 662.655 583.367 661.846 583.988C661.038 584.609 660.405 585.359 659.948 586.238C659.491 587.117 659.262 588.096 659.262 589.174C659.262 590.111 659.432 590.979 659.772 591.775C660.124 592.572 660.639 593.299 661.319 593.955C661.999 594.611 662.872 595.215 663.938 595.766C665.016 596.316 666.264 596.785 667.682 597.172C668.596 597.418 669.358 597.688 669.967 597.98C670.588 598.262 671.092 598.572 671.479 598.912C671.854 599.264 672.118 599.639 672.27 600.037C672.434 600.436 672.516 600.863 672.516 601.32ZM696.958 596.785V592.883H686.446V586.432H698.681V582.406H681.489V608H698.734V604.01H686.446V596.785H696.958ZM703.084 608H709.957C711.094 608 712.16 607.859 713.156 607.578C714.164 607.297 715.084 606.893 715.916 606.365C716.631 605.92 717.287 605.369 717.885 604.713C718.482 604.045 719.004 603.318 719.449 602.533C719.918 601.654 720.281 600.688 720.539 599.633C720.797 598.578 720.926 597.459 720.926 596.275V594.166C720.926 592.936 720.785 591.775 720.504 590.686C720.234 589.596 719.848 588.6 719.344 587.697C718.91 586.959 718.4 586.279 717.814 585.658C717.24 585.025 716.584 584.492 715.846 584.059C715.002 583.531 714.064 583.127 713.033 582.846C712.002 582.553 710.894 582.406 709.711 582.406H703.084V608ZM708.058 586.414H709.711C710.308 586.414 710.859 586.484 711.363 586.625C711.879 586.754 712.348 586.941 712.769 587.188C713.32 587.516 713.801 587.938 714.211 588.453C714.633 588.969 714.973 589.555 715.23 590.211C715.441 590.762 715.599 591.371 715.705 592.039C715.822 592.695 715.881 593.393 715.881 594.131V596.275C715.881 597.061 715.822 597.793 715.705 598.473C715.599 599.141 715.441 599.75 715.23 600.301C714.973 600.934 714.662 601.49 714.299 601.971C713.947 602.439 713.549 602.826 713.103 603.131C712.67 603.424 712.189 603.646 711.662 603.799C711.135 603.951 710.566 604.027 709.957 604.027H708.058V586.414ZM731.639 600.23H736.034C736.034 599.762 736.045 599.363 736.069 599.035C736.092 598.695 736.151 598.385 736.245 598.104C736.327 597.822 736.467 597.547 736.666 597.277C736.866 597.008 737.141 596.697 737.493 596.346C738.067 595.842 738.635 595.326 739.198 594.799C739.772 594.26 740.282 593.691 740.727 593.094C741.172 592.508 741.536 591.875 741.817 591.195C742.098 590.504 742.239 589.742 742.239 588.91C742.239 587.785 742.051 586.795 741.676 585.939C741.301 585.084 740.762 584.363 740.059 583.777C739.344 583.203 738.471 582.77 737.44 582.477C736.409 582.184 735.243 582.037 733.942 582.037C732.782 582.037 731.704 582.184 730.708 582.477C729.711 582.758 728.844 583.191 728.106 583.777C727.368 584.363 726.782 585.102 726.348 585.992C725.915 586.871 725.692 587.908 725.68 589.104H730.584C730.596 588.564 730.696 588.102 730.883 587.715C731.083 587.328 731.34 587.012 731.657 586.766C731.961 586.52 732.313 586.344 732.711 586.238C733.11 586.121 733.52 586.062 733.942 586.062C734.481 586.062 734.956 586.121 735.366 586.238C735.788 586.355 736.145 586.531 736.438 586.766C736.719 587.023 736.936 587.352 737.088 587.75C737.241 588.137 737.317 588.6 737.317 589.139C737.317 589.584 737.217 590.029 737.018 590.475C736.819 590.92 736.561 591.354 736.245 591.775C735.916 592.209 735.553 592.631 735.155 593.041C734.756 593.439 734.358 593.82 733.959 594.184C733.409 594.617 732.981 595.027 732.676 595.414C732.372 595.789 732.143 596.199 731.991 596.645C731.838 597.102 731.739 597.611 731.692 598.174C731.657 598.736 731.639 599.422 731.639 600.23ZM730.918 605.557C730.918 606.307 731.17 606.939 731.674 607.455C732.178 607.959 732.875 608.211 733.766 608.211C734.633 608.211 735.325 607.959 735.84 607.455C736.368 606.939 736.631 606.307 736.631 605.557C736.631 604.783 736.368 604.139 735.84 603.623C735.325 603.096 734.633 602.832 733.766 602.832C732.875 602.832 732.178 603.096 731.674 603.623C731.17 604.139 730.918 604.783 730.918 605.557Z" fill="white"/>
</svg>
