<svg width="129" height="89" viewBox="0 0 129 89" fill="none" xmlns="http://www.w3.org/2000/svg">
<path d="M127.851 31.4654C127.851 14.7308 113.737 1.123 96.3857 1.123C94.7783 1.123 93.1489 1.23309 91.5415 1.4753C78.0658 3.39097 69.0379 13.1014 63.9735 20.5439C58.9091 13.1014 49.8813 3.41299 36.4056 1.4753C34.7982 1.23309 33.1688 1.123 31.5614 1.123C14.2103 1.10098 0.0960388 14.7308 0.0960388 31.4654C0.0960388 48.1999 14.2103 61.8077 31.5614 61.8077C33.1688 61.8077 34.7982 61.6976 36.4056 61.4774C49.8813 59.5397 58.9091 49.8293 63.9735 42.3868C69.0159 49.8293 78.0438 59.5397 91.5415 61.4774C93.1489 61.7196 94.7783 61.8077 96.3857 61.8077C113.737 61.8077 127.851 48.1999 127.851 31.4654ZM34.8863 50.8202C33.7853 50.9743 32.6623 51.0624 31.5614 51.0624C20.1555 51.0624 10.8634 42.2547 10.8634 31.4654C10.8634 20.654 20.1555 11.8683 31.5834 11.8683C32.6844 11.8683 33.8073 11.9564 34.9083 12.1105C47.6133 13.9161 55.3861 26.445 58.0284 31.4654C55.3641 36.4857 47.5913 48.9926 34.8863 50.8202ZM69.9627 31.4654C72.605 26.445 80.3778 13.9161 93.0828 12.1105C94.1838 11.9564 95.3068 11.8683 96.4077 11.8683C107.836 11.8683 117.106 20.676 117.106 31.4654C117.106 42.2547 107.814 51.0624 96.4077 51.0624C95.3068 51.0624 94.1838 50.9743 93.0828 50.8202C80.3558 48.9926 72.583 36.4637 69.9627 31.4654Z" fill="#00878F"/>
<path d="M41.8003 28.4928H22.9079V34.5921H41.8003V28.4928Z" fill="#00878F"/>
<path d="M98.4775 34.57H104.863V28.4928H98.4775V22.0852H92.3782V28.4928H85.9707V34.57H92.3782V40.9776H98.4775V34.57Z" fill="#00878F"/>
<path d="M9.0358 70.8355L3.509 88.4068H7.95687L8.85965 84.8177H13.9241L14.8929 88.4068H19.5169L13.9241 70.8355H9.0358ZM9.7184 81.4267L11.3258 74.9972L13.0653 81.4267H9.7184Z" fill="#00878F"/>
<path d="M36.0973 76.6926C36.0973 73.3237 34.2697 70.8135 29.4035 70.8135H22.3134V88.3848H26.6731V82.814H28.8751L31.5174 88.3848H36.6698L33.2348 81.9552C35.1285 80.9423 36.0973 79.1147 36.0973 76.6926ZM28.9631 79.357H26.6511V74.4027H28.8751C30.9008 74.4027 31.4513 75.1733 31.4513 76.7367C31.4733 78.6744 30.4825 79.357 28.9631 79.357Z" fill="#00878F"/>
<path d="M45.3674 70.8355H39.6204V88.4068H45.4115C52.8759 88.4068 54.131 83.6066 54.131 79.467C54.131 73.9402 51.9511 70.8355 45.3674 70.8355ZM45.6096 84.8177H43.9582V74.3806H45.2353C49.1327 74.3806 49.485 76.2082 49.485 79.6432C49.485 82.6158 49.2208 84.8177 45.6096 84.8177Z" fill="#00878F"/>
<path d="M67.0122 81.5589C67.0122 84.2452 66.2855 85.126 64.3038 85.126C62.6524 85.126 61.6175 84.4434 61.6175 81.5368V70.8355H57.2797V82.3516C57.2797 87.6802 61.1111 88.671 64.1277 88.671C67.2324 88.671 71.2178 87.5701 71.2178 82.3736V70.8135H67.0342V81.5589H67.0122Z" fill="#00878F"/>
<path d="M75.0932 74.4247H79.6291V84.8177H75.0932V88.4068H88.5469V84.8177H83.9889V74.4247H88.5469V70.8355H75.0932V74.4247Z" fill="#00878F"/>
<path d="M102.595 81.3827L96.8921 70.8355H92.136V88.4068H96.2536L96.2315 77.155L102.243 88.4068H106.647V70.8355H102.595V81.3827Z" fill="#00878F"/>
<path d="M116.886 70.5933C111.557 70.5933 109.531 74.5127 109.531 79.7973C109.531 85.6104 111.865 88.671 116.908 88.671C122.566 88.671 124.416 84.7076 124.416 79.6212C124.438 72.9053 121.906 70.5933 116.886 70.5933ZM116.908 85.126C114.397 85.126 114.155 83.3424 114.155 79.8193C114.155 75.5256 114.574 74.1384 116.886 74.1384C119.462 74.1384 119.792 75.3274 119.792 79.6212C119.814 83.6727 119.462 85.126 116.908 85.126Z" fill="#00878F"/>
<path d="M127.763 2.04778C127.587 1.62942 127.345 1.27711 127.036 0.968842C126.75 0.660574 126.376 0.440383 125.979 0.24221C125.583 0.0880765 125.165 0 124.68 0C124.218 0 123.777 0.0880765 123.381 0.26423C122.985 0.440383 122.633 0.682593 122.324 0.990861C122.016 1.29913 121.774 1.65143 121.598 2.0698C121.421 2.48816 121.333 2.92854 121.333 3.41297C121.333 3.87537 121.421 4.33777 121.598 4.75613C121.774 5.1745 122.016 5.54882 122.324 5.83507C122.61 6.14334 122.985 6.38555 123.381 6.5617C123.777 6.73785 124.218 6.82593 124.68 6.82593C125.143 6.82593 125.583 6.73785 125.979 6.5617C126.376 6.38555 126.728 6.14334 127.036 5.83507C127.345 5.5268 127.587 5.1745 127.763 4.75613C127.939 4.33777 128.027 3.89739 128.027 3.41297C128.049 2.92854 127.939 2.46614 127.763 2.04778ZM127.036 4.44786C126.904 4.75613 126.728 5.04238 126.486 5.28459C126.244 5.5268 125.979 5.72497 125.671 5.85709C125.363 5.9892 125.033 6.07728 124.702 6.07728C124.35 6.07728 124.02 6.01122 123.711 5.85709C123.403 5.72497 123.139 5.5268 122.897 5.28459C122.677 5.04238 122.5 4.77815 122.346 4.44786C122.214 4.1396 122.148 3.78729 122.148 3.41297C122.148 3.03864 122.214 2.68633 122.346 2.35605C122.478 2.02576 122.655 1.73951 122.897 1.51932C123.139 1.27711 123.403 1.10096 123.711 0.968842C124.02 0.836727 124.35 0.77067 124.702 0.77067C125.055 0.77067 125.385 0.836727 125.671 0.968842C125.979 1.10096 126.244 1.27711 126.486 1.51932C126.728 1.76153 126.904 2.04778 127.036 2.35605C127.168 2.68633 127.235 3.03864 127.235 3.41297C127.235 3.78729 127.168 4.11758 127.036 4.44786Z" fill="#00878F"/>
<path d="M125.429 3.74325C125.627 3.65517 125.759 3.52306 125.869 3.3469C125.979 3.17075 126.023 2.9946 126.023 2.77441C126.023 2.46614 125.913 2.17989 125.693 1.93768C125.473 1.69547 125.077 1.58537 124.548 1.58537C124.35 1.58537 124.152 1.58537 123.998 1.60739C123.844 1.60739 123.689 1.62941 123.535 1.65143V4.99834H124.372V3.89738H124.702L125.297 4.99834H126.266L125.429 3.74325ZM124.57 3.28085C124.46 3.28085 124.372 3.28085 124.328 3.25883V2.35604C124.372 2.33402 124.482 2.33402 124.614 2.33402C124.967 2.33402 125.143 2.48816 125.143 2.81844C125.143 3.12671 124.945 3.28085 124.57 3.28085Z" fill="#00878F"/>
</svg>
